<svg id="User_Interface" enable-background="new 0 0 64 64" height="512" viewBox="0 0 64 64" width="512" xmlns="http://www.w3.org/2000/svg"><g><path d="m51.88 47.02c-.82 2.26-2.6 4.04-4.86 4.86-10.01 3.67-20.03 3.67-30.04 0-2.26-.82-4.04-2.6-4.86-4.86-3.65-9.99-3.66-19.98-.03-29.97.84-2.3 2.66-4.09 4.97-4.9 10.49-3.68 20.51-3.7 30.05-.07 2.21.84 3.93 2.6 4.74 4.82 3.69 10.04 3.7 20.08.03 30.12z" fill="#fdcc58"/><path d="m48.12 45.65c-.42 1.15-1.32 2.05-2.46 2.47-4.56 1.67-9.15 2.51-13.66 2.51s-9.1-.84-13.64-2.51c-1.16-.42-2.06-1.32-2.48-2.46-3.35-9.17-3.36-18.08-.03-27.24.43-1.17 1.35-2.08 2.53-2.5 4.83-1.69 9.59-2.55 14.15-2.55 4.47 0 8.89.83 13.16 2.45 1.11.42 1.99 1.32 2.4 2.45 3.39 9.22 3.4 18.17.03 27.38z" fill="#efbb54"/><circle cx="33" cy="33" fill="#ddaa50" r="14"/><circle cx="32" cy="32" fill="#e5e7ea" r="14"/><path d="m32 25c-3.86 0-7 3.14-7 7s3.14 7 7 7 7-3.14 7-7-3.14-7-7-7zm0 12c-2.76 0-5-2.24-5-5s2.24-5 5-5 5 2.24 5 5-2.24 5-5 5z" fill="#434953"/><g fill="#6699d1"><path d="m35.42 32c0 .55-.45 1-1 1h-1.42v1.42c0 .55-.45 1-1 1s-1-.45-1-1v-1.42h-1.42c-.55 0-1-.45-1-1s.45-1 1-1h1.42v-1.42c0-.55.45-1 1-1s1 .45 1 1v1.42h1.42c.55 0 1 .45 1 1z"/><circle cx="32" cy="22" r="2"/><circle cx="22" cy="32" r="2"/><circle cx="32" cy="42" r="2"/><circle cx="42" cy="32" r="2"/></g></g></svg>