<svg id="User_Interface" enable-background="new 0 0 64 64" height="512" viewBox="0 0 64 64" width="512" xmlns="http://www.w3.org/2000/svg"><g><path d="m51.88 47.02c-.82 2.26-2.6 4.04-4.86 4.86-10.01 3.67-20.03 3.67-30.04 0-2.26-.82-4.04-2.6-4.86-4.86-3.65-9.99-3.66-19.98-.03-29.97.84-2.3 2.66-4.09 4.97-4.9 10.49-3.68 20.51-3.7 30.05-.07 2.21.84 3.93 2.6 4.74 4.82 3.69 10.04 3.7 20.08.03 30.12z" fill="#6ea7db"/><path d="m48.12 45.65c-.42 1.15-1.32 2.05-2.46 2.47-4.56 1.67-9.15 2.51-13.66 2.51s-9.1-.84-13.64-2.51c-1.16-.42-2.06-1.32-2.48-2.46-3.35-9.17-3.36-18.08-.03-27.24.43-1.17 1.35-2.08 2.53-2.5 4.83-1.69 9.59-2.55 14.15-2.55 4.47 0 8.89.83 13.16 2.45 1.11.42 1.99 1.32 2.4 2.45 3.39 9.22 3.4 18.17.03 27.38z" fill="#6699d1"/><path d="m44.13 37.67h-2.46v-13.33c0-1.11-.9-2-2-2h-13.33v-2.46c0-1.11-.9-2-2-2-1.11 0-2 .89-2 2v2.46h-2.46c-1.11 0-2 .89-2 2 0 1.1.89 2 2 2h2.46v13.33c0 1.1.89 2 2 2h13.33v2.46c0 1.11.89 2 2 2 1.1 0 2-.89 2-2v-2.46h2.46c1.11 0 2-.9 2-2 0-1.11-.89-2-2-2zm-6.46 0h-11.33v-11.33h11.33z" fill="#e5e7ea"/><g fill="#6194c1"><path d="m41.67 24.34v13.33h2v-13.33c0-1.11-.9-2-2-2h-2c1.1 0 2 .89 2 2z"/><path d="m41.67 44.13c0 .742-.407 1.379-1.002 1.724.295.171.634.276 1.002.276 1.1 0 2-.89 2-2v-2.46h-2z"/><path d="m44.13 41.67h2c1.11 0 2-.9 2-2 0-1.11-.89-2-2-2h-2c1.11 0 2 .89 2 2 0 1.1-.89 2-2 2z"/><path d="m26.34 17.88c-.368 0-.707.105-1.002.276.595.345 1.002.982 1.002 1.724v2.46h2v-2.46c0-1.11-.9-2-2-2z"/></g><path d="m26.34 26.34h11.33v11.33h-11.33z" fill="#6699d1"/><path d="m26.34 26.34h2v11.33h-2z" fill="#6194c1"/></g></svg>