<?xml version="1.0" encoding="iso-8859-1"?>
<!-- Generator: Adobe Illustrator 19.0.0, SVG Export Plug-In . SVG Version: 6.00 Build 0)  -->
<svg version="1.1" id="Capa_1" xmlns="http://www.w3.org/2000/svg" xmlns:xlink="http://www.w3.org/1999/xlink" x="0px" y="0px"
	 viewBox="0 0 512 512" style="enable-background:new 0 0 512 512;" xml:space="preserve">
<g style="opacity:0.08;">
	<path d="M124.676,512C52.701,512,4.339,463.638,4.339,391.663V163.727c0-71.975,48.362-120.337,120.337-120.337h227.935
		c71.975,0,120.337,48.362,120.337,120.337v227.935c0,71.975-48.362,120.337-120.337,120.337H124.676z"/>
</g>
<linearGradient id="SVGID_1_" gradientUnits="userSpaceOnUse" x1="-15.8535" y1="578.9824" x2="-15.8535" y2="632.9824" gradientTransform="matrix(8.678 0 0 -8.678 376.2203 5527.7119)">
	<stop  offset="0" style="stop-color:#ECECEC"/>
	<stop  offset="1" style="stop-color:#FFFFFF"/>
</linearGradient>
<path style="fill:url(#SVGID_1_);" d="M124.676,503.322c-71.975,0-120.337-48.362-120.337-120.337V155.049
	c0-71.975,48.362-120.337,120.337-120.337h227.935c71.975,0,120.337,48.362,120.337,120.337v227.935
	c0,71.975-48.362,120.337-120.337,120.337H124.676z"/>
<g style="opacity:0.16;">
	
		<linearGradient id="SVGID_2_" gradientUnits="userSpaceOnUse" x1="-15.8535" y1="578.9824" x2="-15.8535" y2="632.9824" gradientTransform="matrix(8.678 0 0 -8.678 376.2203 5527.7119)">
		<stop  offset="0" style="stop-color:#000000"/>
		<stop  offset="0.06" style="stop-color:#000000;stop-opacity:0"/>
	</linearGradient>
	<path style="fill:url(#SVGID_2_);" d="M352.612,34.712H124.676c-71.975,0-120.337,48.362-120.337,120.337v227.935
		c0,71.975,48.362,120.337,120.337,120.337h227.935c71.975,0,120.337-48.362,120.337-120.337V155.049
		C472.949,83.074,424.587,34.712,352.612,34.712z M455.593,382.985c0,62.559-40.422,102.981-102.981,102.981H124.676
		c-62.559,0-102.981-40.422-102.981-102.981V155.049c0-62.559,40.422-102.981,102.981-102.981h227.935
		c62.559,0,102.981,40.422,102.981,102.981V382.985z"/>
</g>
<linearGradient id="SVGID_3_" gradientUnits="userSpaceOnUse" x1="-15.8535" y1="583.9824" x2="-15.8535" y2="627.9824" gradientTransform="matrix(8.678 0 0 -8.678 376.2203 5527.7119)">
	<stop  offset="0" style="stop-color:#BBBDC0"/>
	<stop  offset="1" style="stop-color:#D7D8DB"/>
</linearGradient>
<path style="fill:url(#SVGID_3_);" d="M124.676,459.932c-48.9,0-76.948-28.047-76.948-76.948V155.049
	c0-48.9,28.047-76.948,76.948-76.948h227.935c48.9,0,76.948,28.047,76.948,76.948v227.935c0,48.9-28.047,76.948-76.948,76.948
	L124.676,459.932L124.676,459.932z"/>
<g style="opacity:0.12;">
	<path d="M352.612,78.102H124.676c-48.9,0-76.948,28.047-76.948,76.948v227.935c0,48.9,28.047,76.947,76.948,76.947h227.935
		c48.9,0,76.948-28.047,76.948-76.948V155.049C429.559,106.149,401.512,78.102,352.612,78.102z M420.881,382.985
		c0,44.023-24.246,68.27-68.27,68.27H124.676c-44.023,0-68.27-24.246-68.27-68.27V155.049c0-44.023,24.246-68.27,68.27-68.27
		h227.935c44.023,0,68.27,24.246,68.27,68.27V382.985z"/>
</g>
<g style="opacity:0.16;">
	<path d="M352.612,34.712H124.676c-71.975,0-120.337,48.362-120.337,120.337v227.935c0,71.975,48.362,120.337,120.337,120.337
		h227.935c71.975,0,120.337-48.362,120.337-120.337V155.049C472.949,83.074,424.587,34.712,352.612,34.712z M464.271,382.985
		c0,66.786-44.874,111.659-111.659,111.659H124.676c-66.786,0-111.659-44.874-111.659-111.659V155.049
		c0-66.786,44.874-111.659,111.659-111.659h227.935c66.786,0,111.659,44.874,111.659,111.659V382.985z"/>
</g>
<circle style="opacity:0.9;fill:#F4413D;enable-background:new    ;" cx="403.525" cy="104.136" r="104.136"/>
<g>
</g>
<g>
</g>
<g>
</g>
<g>
</g>
<g>
</g>
<g>
</g>
<g>
</g>
<g>
</g>
<g>
</g>
<g>
</g>
<g>
</g>
<g>
</g>
<g>
</g>
<g>
</g>
<g>
</g>
</svg>
