<?xml version="1.0" encoding="iso-8859-1"?>
<!-- Generator: Adobe Illustrator 19.0.0, SVG Export Plug-In . SVG Version: 6.00 Build 0)  -->
<svg version="1.1" id="Capa_1" xmlns="http://www.w3.org/2000/svg" xmlns:xlink="http://www.w3.org/1999/xlink" x="0px" y="0px"
	 viewBox="0 0 512 512" style="enable-background:new 0 0 512 512;" xml:space="preserve">
<g style="opacity:0.08;">
	<circle cx="256" cy="268.59" r="243.41"/>
</g>
<linearGradient id="SVGID_1_" gradientUnits="userSpaceOnUse" x1="256" y1="10.4" x2="256" y2="514" gradientTransform="matrix(1 0 0 -1 0 514)">
	<stop  offset="0" style="stop-color:#F2F2F2"/>
	<stop  offset="1" style="stop-color:#FFFFFF"/>
</linearGradient>
<circle style="fill:url(#SVGID_1_);" cx="256" cy="251.8" r="251.8"/>
<g style="opacity:0.08;">
	
		<linearGradient id="SVGID_2_" gradientUnits="userSpaceOnUse" x1="256" y1="10.393" x2="256" y2="514" gradientTransform="matrix(1 0 0 -1 0 514)">
		<stop  offset="0" style="stop-color:#000000"/>
		<stop  offset="0.36" style="stop-color:#000000;stop-opacity:0"/>
	</linearGradient>
	<path style="fill:url(#SVGID_2_);" d="M256,0C116.929,0,4.197,112.732,4.197,251.803S116.929,503.607,256,503.607
		s251.803-112.732,251.803-251.803S395.071,0,256,0z M256,486.82c-129.586,0-235.016-105.43-235.016-235.016
		S126.414,16.787,256,16.787s235.016,105.43,235.016,235.016S385.586,486.82,256,486.82z"/>
</g>
<g style="opacity:0.16;">
	<path d="M256,0C116.929,0,4.197,112.732,4.197,251.803S116.929,503.607,256,503.607s251.803-112.732,251.803-251.803
		S395.071,0,256,0z M256,495.213c-134.429,0-243.41-108.98-243.41-243.41S121.571,8.393,256,8.393s243.41,108.98,243.41,243.41
		S390.429,495.213,256,495.213z"/>
</g>
<linearGradient id="SVGID_3_" gradientUnits="userSpaceOnUse" x1="256" y1="35.58" x2="256" y2="488.82" gradientTransform="matrix(1 0 0 -1 0 514)">
	<stop  offset="0" style="stop-color:#3871E9"/>
	<stop  offset="1" style="stop-color:#61C5F6"/>
</linearGradient>
<circle style="fill:url(#SVGID_3_);" cx="256" cy="251.8" r="226.62"/>
<g style="opacity:0.16;">
	
		<linearGradient id="SVGID_4_" gradientUnits="userSpaceOnUse" x1="256" y1="35.574" x2="256" y2="488.82" gradientTransform="matrix(1 0 0 -1 0 514)">
		<stop  offset="0" style="stop-color:#000000"/>
		<stop  offset="0.36" style="stop-color:#000000;stop-opacity:0"/>
	</linearGradient>
	<path style="fill:url(#SVGID_4_);" d="M256,25.18c-125.163,0-226.623,101.46-226.623,226.623S130.837,478.426,256,478.426
		s226.623-101.46,226.623-226.623S381.163,25.18,256,25.18z M256,470.033c-120.521,0-218.229-97.708-218.229-218.229
		S135.479,33.574,256,33.574s218.229,97.708,218.229,218.229S376.521,470.033,256,470.033z"/>
</g>
<g style="opacity:0.36;">
	<path id="SVGCleanerId_0" style="fill:#FFFFFF;" d="M256,83.238c-1.933,0-3.5-1.567-3.5-3.5V46.164c0-1.933,1.567-3.5,3.5-3.5
		c1.933,0,3.5,1.567,3.5,3.5v33.574C259.5,81.671,257.933,83.238,256,83.238z"/>
	<g>
		<path style="fill:#FFFFFF;" d="M231.344,68.063c-1.73,0-3.234-1.282-3.466-3.043l-2.191-16.636
			c-0.252-1.917,1.097-3.675,3.013-3.927c1.912-0.248,3.675,1.097,3.927,3.013l2.191,16.636c0.252,1.917-1.097,3.675-3.013,3.927
			C231.651,68.053,231.497,68.063,231.344,68.063z"/>
		<path style="fill:#FFFFFF;" d="M183.734,80.83c-1.374,0-2.676-0.813-3.235-2.161l-6.429-15.511
			c-0.74-1.786,0.107-3.833,1.893-4.574c1.788-0.739,3.834,0.108,4.574,1.893l6.429,15.511c0.74,1.786-0.107,3.833-1.893,4.574
			C184.634,80.744,184.18,80.83,183.734,80.83z"/>
		<path style="fill:#FFFFFF;" d="M141.038,105.48c-1.051,0-2.09-0.471-2.779-1.369l-10.223-13.32
			c-1.177-1.533-0.888-3.73,0.646-4.907c1.533-1.176,3.731-0.888,4.907,0.646l10.223,13.32c1.177,1.533,0.888,3.73-0.646,4.907
			C142.531,105.245,141.781,105.48,141.038,105.48z"/>
		<path style="fill:#FFFFFF;" d="M106.175,140.338c-0.744,0-1.493-0.236-2.128-0.724l-13.321-10.223
			c-1.534-1.177-1.823-3.374-0.646-4.907c1.177-1.533,3.375-1.822,4.907-0.646l13.321,10.223c1.534,1.177,1.823,3.374,0.646,4.907
			C108.265,139.867,107.226,140.338,106.175,140.338z"/>
		<path style="fill:#FFFFFF;" d="M81.524,183.037c-0.446,0-0.9-0.086-1.339-0.268l-15.511-6.429
			c-1.786-0.74-2.633-2.788-1.893-4.574c0.74-1.785,2.787-2.634,4.574-1.893l15.511,6.429c1.786,0.74,2.633,2.788,1.893,4.574
			C84.2,182.223,82.897,183.037,81.524,183.037z"/>
		<path style="fill:#FFFFFF;" d="M68.764,230.652c-0.152,0-0.306-0.01-0.461-0.03l-16.636-2.191
			c-1.917-0.252-3.266-2.011-3.013-3.927c0.252-1.916,2.01-3.257,3.927-3.013l16.636,2.191c1.917,0.252,3.266,2.011,3.013,3.927
			C71.998,229.37,70.493,230.652,68.764,230.652z"/>
		<path style="fill:#FFFFFF;" d="M211.462,89.105c-1.545,0-2.959-1.031-3.378-2.595l-8.687-32.432
			c-0.5-1.867,0.608-3.787,2.475-4.287c1.866-0.499,3.786,0.607,4.287,2.475l8.687,32.432c0.5,1.867-0.608,3.787-2.475,4.287
			C212.067,89.066,211.762,89.105,211.462,89.105z"/>
		<path style="fill:#FFFFFF;" d="M169.971,106.287c-1.21,0-2.386-0.627-3.035-1.75l-16.787-29.075
			c-0.966-1.674-0.393-3.814,1.281-4.781c1.674-0.965,3.814-0.394,4.781,1.281l16.787,29.075c0.966,1.674,0.393,3.814-1.281,4.781
			C171.166,106.135,170.564,106.287,169.971,106.287z"/>
		<path style="fill:#FFFFFF;" d="M134.329,133.632c-0.896,0-1.792-0.342-2.475-1.025l-23.737-23.736
			c-1.367-1.367-1.367-3.583,0-4.95s3.583-1.367,4.95,0l23.737,23.736c1.367,1.367,1.367,3.583,0,4.95
			C136.12,133.29,135.224,133.632,134.329,133.632z"/>
		<path style="fill:#FFFFFF;" d="M106.979,169.271c-0.594,0-1.195-0.151-1.747-0.469l-29.075-16.787
			c-1.674-0.967-2.248-3.107-1.281-4.781c0.967-1.674,3.108-2.246,4.781-1.281l29.075,16.787c1.674,0.967,2.248,3.107,1.281,4.781
			C109.366,168.644,108.189,169.271,106.979,169.271z"/>
		<path style="fill:#FFFFFF;" d="M89.803,210.769c-0.299,0-0.604-0.039-0.908-0.12l-32.432-8.687
			c-1.867-0.5-2.975-2.419-2.475-4.287c0.5-1.866,2.416-2.974,4.287-2.475l32.432,8.687c1.867,0.5,2.975,2.419,2.475,4.287
			C92.763,209.737,91.349,210.769,89.803,210.769z"/>
		<path style="fill:#FFFFFF;" d="M83.935,255.303H50.361c-1.933,0-3.5-1.567-3.5-3.5s1.567-3.5,3.5-3.5h33.574
			c1.933,0,3.5,1.567,3.5,3.5S85.868,255.303,83.935,255.303z"/>
	</g>
	<g>
		<path style="fill:#FFFFFF;" d="M52.119,282.146c-1.73,0-3.234-1.281-3.466-3.043c-0.252-1.917,1.097-3.675,3.013-3.927
			l16.636-2.19c1.921-0.25,3.675,1.096,3.927,3.013s-1.097,3.675-3.013,3.927l-16.636,2.19
			C52.425,282.136,52.271,282.146,52.119,282.146z"/>
		<path style="fill:#FFFFFF;" d="M66.016,334.001c-1.374,0-2.676-0.813-3.235-2.161c-0.74-1.785,0.107-3.833,1.893-4.573
			l15.511-6.429c1.788-0.741,3.834,0.108,4.574,1.894c0.74,1.785-0.107,3.833-1.893,4.573l-15.511,6.429
			C66.917,333.915,66.462,334.001,66.016,334.001z"/>
		<path style="fill:#FFFFFF;" d="M92.859,380.491c-1.051,0-2.09-0.471-2.779-1.369c-1.177-1.533-0.888-3.73,0.646-4.907
			l13.321-10.223c1.534-1.178,3.731-0.889,4.907,0.646c1.177,1.533,0.888,3.73-0.646,4.907l-13.321,10.223
			C94.352,380.256,93.603,380.491,92.859,380.491z"/>
		<path style="fill:#FFFFFF;" d="M130.81,418.446c-0.744,0-1.493-0.235-2.128-0.724c-1.534-1.177-1.823-3.374-0.646-4.907
			l10.223-13.32c1.177-1.533,3.375-1.823,4.907-0.646c1.534,1.177,1.823,3.374,0.646,4.907l-10.223,13.32
			C132.899,417.976,131.86,418.446,130.81,418.446z"/>
		<path style="fill:#FFFFFF;" d="M177.302,445.29c-0.446,0-0.9-0.086-1.339-0.268c-1.786-0.74-2.633-2.788-1.893-4.573l6.429-15.512
			c0.74-1.785,2.786-2.635,4.574-1.894c1.786,0.74,2.633,2.788,1.893,4.573l-6.429,15.512
			C179.978,444.477,178.675,445.29,177.302,445.29z"/>
		<path style="fill:#FFFFFF;" d="M229.162,459.18c-0.152,0-0.306-0.01-0.461-0.03c-1.917-0.252-3.266-2.011-3.013-3.927
			l2.191-16.636c0.253-1.917,2.011-3.264,3.927-3.013c1.917,0.252,3.266,2.011,3.013,3.927l-2.191,16.636
			C232.396,457.898,230.892,459.18,229.162,459.18z"/>
		<path style="fill:#FFFFFF;" d="M57.367,308.527c-1.546,0-2.96-1.031-3.379-2.596c-0.5-1.867,0.608-3.786,2.475-4.286l32.432-8.688
			c1.871-0.497,3.787,0.608,4.287,2.476c0.5,1.867-0.608,3.786-2.475,4.286l-32.432,8.688
			C57.972,308.488,57.667,308.527,57.367,308.527z"/>
		<path style="fill:#FFFFFF;" d="M77.911,358.124c-1.21,0-2.386-0.628-3.035-1.751c-0.966-1.674-0.393-3.814,1.281-4.781
			l29.075-16.787c1.675-0.968,3.815-0.393,4.781,1.281s0.393,3.814-1.281,4.781l-29.075,16.787
			C79.106,357.973,78.505,358.124,77.911,358.124z"/>
		<path style="fill:#FFFFFF;" d="M153.177,433.396c-0.594,0-1.195-0.151-1.747-0.47c-1.674-0.967-2.248-3.107-1.281-4.781
			l16.787-29.075c0.967-1.675,3.108-2.247,4.781-1.281c1.674,0.967,2.248,3.107,1.281,4.781l-16.787,29.075
			C155.563,432.769,154.386,433.396,153.177,433.396z"/>
		<path style="fill:#FFFFFF;" d="M202.779,453.936c-0.3,0-0.604-0.039-0.908-0.12c-1.867-0.5-2.975-2.419-2.475-4.286l8.687-32.433
			c0.5-1.867,2.416-2.975,4.287-2.476c1.867,0.5,2.975,2.419,2.475,4.286l-8.687,32.433
			C205.739,452.904,204.325,453.936,202.779,453.936z"/>
		<path style="fill:#FFFFFF;" d="M256,460.942c-1.933,0-3.5-1.567-3.5-3.5v-33.573c0-1.933,1.567-3.5,3.5-3.5
			c1.933,0,3.5,1.567,3.5,3.5v33.573C259.5,459.375,257.933,460.942,256,460.942z"/>
	</g>
	<g>
		<path style="fill:#FFFFFF;" d="M282.837,459.18c-1.729,0-3.233-1.281-3.465-3.043l-2.19-16.636
			c-0.253-1.917,1.097-3.675,3.013-3.927c1.921-0.252,3.675,1.096,3.927,3.013l2.19,16.636c0.253,1.917-1.097,3.675-3.013,3.927
			C283.144,459.17,282.989,459.18,282.837,459.18z"/>
		<path style="fill:#FFFFFF;" d="M334.698,445.29c-1.373,0-2.676-0.813-3.234-2.161l-6.43-15.512
			c-0.74-1.785,0.107-3.833,1.894-4.573c1.78-0.739,3.833,0.107,4.573,1.894l6.43,15.512c0.74,1.785-0.107,3.833-1.894,4.573
			C335.6,445.204,335.146,445.29,334.698,445.29z"/>
		<path style="fill:#FFFFFF;" d="M381.191,418.446c-1.051,0-2.09-0.471-2.779-1.369l-10.224-13.32
			c-1.177-1.533-0.888-3.73,0.646-4.907c1.531-1.177,3.729-0.889,4.907,0.646l10.224,13.32c1.177,1.533,0.888,3.73-0.646,4.907
			C382.685,418.21,381.935,418.446,381.191,418.446z"/>
		<path style="fill:#FFFFFF;" d="M419.141,380.491c-0.743,0-1.492-0.235-2.128-0.724l-13.32-10.223
			c-1.533-1.177-1.822-3.374-0.646-4.907c1.175-1.534,3.372-1.825,4.907-0.646l13.32,10.223c1.533,1.177,1.822,3.374,0.646,4.907
			C421.231,380.021,420.191,380.491,419.141,380.491z"/>
		<path style="fill:#FFFFFF;" d="M445.984,334.001c-0.447,0-0.9-0.086-1.339-0.268l-15.511-6.429
			c-1.786-0.74-2.634-2.788-1.894-4.573c0.74-1.787,2.788-2.632,4.573-1.894l15.511,6.429c1.786,0.74,2.634,2.788,1.894,4.573
			C448.66,333.188,447.357,334.001,445.984,334.001z"/>
		<path style="fill:#FFFFFF;" d="M459.882,282.146c-0.152,0-0.307-0.01-0.462-0.03l-16.636-2.19
			c-1.916-0.252-3.266-2.01-3.013-3.927c0.252-1.915,2.012-3.267,3.927-3.013l16.636,2.19c1.916,0.252,3.266,2.01,3.013,3.927
			C463.115,280.863,461.611,282.146,459.882,282.146z"/>
		<path style="fill:#FFFFFF;" d="M309.221,453.936c-1.546,0-2.96-1.031-3.379-2.596l-8.688-32.433
			c-0.5-1.867,0.608-3.786,2.476-4.286c1.862-0.499,3.786,0.608,4.286,2.476l8.688,32.433c0.5,1.867-0.608,3.786-2.476,4.286
			C309.825,453.896,309.521,453.936,309.221,453.936z"/>
		<path style="fill:#FFFFFF;" d="M358.822,433.396c-1.209,0-2.386-0.628-3.034-1.751l-16.786-29.075
			c-0.967-1.674-0.393-3.814,1.281-4.781c1.672-0.966,3.814-0.394,4.781,1.281l16.786,29.075c0.967,1.674,0.393,3.814-1.281,4.781
			C360.019,433.245,359.416,433.396,358.822,433.396z"/>
		<path style="fill:#FFFFFF;" d="M401.408,400.711c-0.896,0-1.791-0.342-2.475-1.025l-23.737-23.736
			c-1.367-1.366-1.367-3.583,0-4.949c1.365-1.367,3.582-1.367,4.949,0l23.737,23.736c1.367,1.366,1.367,3.583,0,4.949
			C403.2,400.369,402.304,400.711,401.408,400.711z"/>
		<path style="fill:#FFFFFF;" d="M434.089,358.124c-0.594,0-1.196-0.151-1.747-0.47l-29.074-16.787
			c-1.674-0.967-2.248-3.107-1.281-4.781c0.967-1.675,3.109-2.247,4.781-1.281l29.074,16.787c1.674,0.967,2.248,3.107,1.281,4.781
			C436.475,357.496,435.298,358.124,434.089,358.124z"/>
		<path style="fill:#FFFFFF;" d="M454.633,308.527c-0.3,0-0.604-0.039-0.907-0.12l-32.433-8.688c-1.867-0.5-2.976-2.419-2.476-4.286
			c0.5-1.868,2.423-2.975,4.286-2.476l32.433,8.688c1.867,0.5,2.976,2.419,2.476,4.286
			C457.593,307.496,456.179,308.527,454.633,308.527z"/>
	</g>
	<path id="SVGCleanerId_1" style="fill:#FFFFFF;" d="M461.64,255.303h-33.574c-1.933,0-3.5-1.567-3.5-3.5s1.567-3.5,3.5-3.5h33.574
		c1.933,0,3.5,1.567,3.5,3.5S463.572,255.303,461.64,255.303z"/>
	<g>
		<path id="SVGCleanerId_1_1_" style="fill:#FFFFFF;" d="M461.64,255.303h-33.574c-1.933,0-3.5-1.567-3.5-3.5s1.567-3.5,3.5-3.5
			h33.574c1.933,0,3.5,1.567,3.5,3.5S463.572,255.303,461.64,255.303z"/>
	</g>
	<g>
		<path style="fill:#FFFFFF;" d="M443.236,230.652c-1.729,0-3.233-1.282-3.465-3.043c-0.253-1.917,1.097-3.675,3.013-3.927
			l16.636-2.191c1.916-0.246,3.675,1.097,3.927,3.013c0.253,1.917-1.097,3.675-3.013,3.927l-16.636,2.191
			C443.543,230.642,443.389,230.652,443.236,230.652z"/>
		<path style="fill:#FFFFFF;" d="M430.476,183.037c-1.373,0-2.676-0.813-3.234-2.161c-0.74-1.786,0.107-3.833,1.894-4.574
			l15.511-6.429c1.781-0.738,3.833,0.107,4.573,1.893s-0.107,3.833-1.894,4.574l-15.511,6.429
			C431.377,182.951,430.923,183.037,430.476,183.037z"/>
		<path style="fill:#FFFFFF;" d="M405.826,140.338c-1.051,0-2.09-0.471-2.779-1.369c-1.177-1.533-0.888-3.73,0.646-4.907
			l13.32-10.223c1.534-1.178,3.729-0.888,4.907,0.646c1.177,1.533,0.888,3.73-0.646,4.907l-13.32,10.223
			C407.318,140.103,406.569,140.338,405.826,140.338z"/>
		<path style="fill:#FFFFFF;" d="M370.962,105.48c-0.743,0-1.492-0.236-2.128-0.724c-1.533-1.177-1.822-3.374-0.646-4.907
			l10.224-13.32c1.177-1.534,3.371-1.824,4.907-0.646c1.533,1.177,1.822,3.374,0.646,4.907l-10.224,13.32
			C373.052,105.009,372.013,105.48,370.962,105.48z"/>
		<path style="fill:#FFFFFF;" d="M328.267,80.83c-0.447,0-0.901-0.086-1.339-0.268c-1.786-0.74-2.634-2.788-1.894-4.574l6.43-15.511
			c0.74-1.786,2.793-2.632,4.573-1.893c1.786,0.74,2.634,2.788,1.894,4.574l-6.43,15.511C330.942,80.016,329.64,80.83,328.267,80.83
			z"/>
		<path style="fill:#FFFFFF;" d="M280.656,68.063c-0.152,0-0.307-0.01-0.462-0.03c-1.916-0.252-3.266-2.011-3.013-3.927l2.19-16.636
			c0.252-1.917,2.009-3.26,3.927-3.013c1.916,0.252,3.266,2.011,3.013,3.927l-2.19,16.636
			C283.89,66.781,282.386,68.063,280.656,68.063z"/>
		<path style="fill:#FFFFFF;" d="M422.196,210.769c-1.546,0-2.96-1.032-3.379-2.595c-0.5-1.867,0.608-3.787,2.476-4.287
			l32.433-8.687c1.865-0.5,3.785,0.609,4.286,2.475c0.5,1.867-0.608,3.787-2.476,4.287l-32.433,8.687
			C422.801,210.729,422.496,210.769,422.196,210.769z"/>
		<path style="fill:#FFFFFF;" d="M405.021,169.271c-1.209,0-2.386-0.627-3.034-1.75c-0.967-1.674-0.393-3.814,1.281-4.781
			l29.074-16.787c1.672-0.965,3.814-0.394,4.781,1.281c0.967,1.674,0.393,3.814-1.281,4.781l-29.074,16.787
			C406.217,169.12,405.614,169.271,405.021,169.271z"/>
		<path style="fill:#FFFFFF;" d="M342.03,106.287c-0.594,0-1.196-0.151-1.747-0.469c-1.674-0.967-2.248-3.107-1.281-4.781
			l16.786-29.075c0.968-1.674,3.109-2.246,4.781-1.281c1.674,0.967,2.248,3.107,1.281,4.781l-16.786,29.075
			C344.416,105.659,343.239,106.287,342.03,106.287z"/>
		<path style="fill:#FFFFFF;" d="M300.537,89.105c-0.3,0-0.604-0.039-0.907-0.12c-1.867-0.5-2.976-2.419-2.476-4.287l8.688-32.432
			c0.5-1.866,2.423-2.974,4.286-2.475c1.867,0.5,2.976,2.419,2.476,4.287l-8.688,32.432
			C303.497,88.074,302.083,89.105,300.537,89.105z"/>
	</g>
	<g>
		<path id="SVGCleanerId_0_1_" style="fill:#FFFFFF;" d="M256,83.238c-1.933,0-3.5-1.567-3.5-3.5V46.164c0-1.933,1.567-3.5,3.5-3.5
			c1.933,0,3.5,1.567,3.5,3.5v33.574C259.5,81.671,257.933,83.238,256,83.238z"/>
	</g>
</g>
<polygon style="fill:#F4413D;" points="403.657,104.146 226.321,222.124 256,251.803 "/>
<polygon style="fill:#CC2B2B;" points="403.657,104.146 256,251.803 285.679,281.482 "/>
<polygon style="fill:#FFFFFF;" points="226.321,222.124 108.343,399.461 256,251.803 "/>
<polygon style="fill:#D8D8D8;" points="108.343,399.461 285.679,281.482 256,251.803 "/>
<g>
</g>
<g>
</g>
<g>
</g>
<g>
</g>
<g>
</g>
<g>
</g>
<g>
</g>
<g>
</g>
<g>
</g>
<g>
</g>
<g>
</g>
<g>
</g>
<g>
</g>
<g>
</g>
<g>
</g>
</svg>
