<svg id="User_Interface" enable-background="new 0 0 64 64" height="512" viewBox="0 0 64 64" width="512" xmlns="http://www.w3.org/2000/svg"><g><path d="m51.88 47.02c-.82 2.26-2.6 4.04-4.86 4.86-10.01 3.67-20.03 3.67-30.04 0-2.26-.82-4.04-2.6-4.86-4.86-3.65-9.99-3.66-19.98-.03-29.97.84-2.3 2.66-4.09 4.97-4.9 10.49-3.68 20.51-3.7 30.05-.07 2.21.84 3.93 2.6 4.74 4.82 3.69 10.04 3.7 20.08.03 30.12z" fill="#62ccae"/><path d="m48.12 45.65c-.42 1.15-1.32 2.05-2.46 2.47-4.56 1.67-9.15 2.51-13.66 2.51s-9.1-.84-13.64-2.51c-1.16-.42-2.06-1.32-2.48-2.46-3.35-9.17-3.36-18.08-.03-27.24.43-1.17 1.35-2.08 2.53-2.5 4.83-1.69 9.59-2.55 14.15-2.55 4.47 0 8.89.83 13.16 2.45 1.11.42 1.99 1.32 2.4 2.45 3.39 9.22 3.4 18.17.03 27.38z" fill="#5ac0a6"/><path d="m44 23.33v17.17h-4v-17.17c0-1.1.9-2 2-2 .55 0 1.05.23 1.41.59.37.36.59.86.59 1.41z" fill="#e5e7ea"/><path d="m43.823 22.516c.112.249.177.523.177.814v17.17h-3v1h4v-17.17c0-.55-.22-1.05-.59-1.41-.168-.168-.368-.303-.587-.404z" fill="#57b59a"/><path d="m37.33 26.33v14.17h-4v-14.17c0-1.1.9-2 2-2 .55 0 1.05.23 1.42.59.36.36.58.86.58 1.41z" fill="#e5e7ea"/><path d="m38.33 27.33c0-.55-.22-1.05-.58-1.41-.172-.168-.375-.303-.596-.404.111.249.176.524.176.814v14.17h-3v1h4z" fill="#57b59a"/><path d="m30.67 28.33v12.17h-4v-12.17c0-1.1.89-2 2-2 .55 0 1.05.23 1.41.59s.59.86.59 1.41z" fill="#e5e7ea"/><path d="m30.487 27.513c.114.25.182.526.182.817v12.17h-3v1h4v-12.17c0-.55-.23-1.05-.59-1.41-.168-.169-.37-.306-.592-.407z" fill="#57b59a"/><path d="m24 32.33v8.17h-4v-8.17c0-1.1.9-2 2-2 .55 0 1.05.23 1.41.59.37.36.59.86.59 1.41z" fill="#e5e7ea"/><path d="m25 33.33c0-.55-.22-1.05-.59-1.41-.168-.168-.368-.303-.587-.404.112.249.177.523.177.814v8.17h-3v1h4z" fill="#57b59a"/></g></svg>