<svg id="User_Interface" enable-background="new 0 0 64 64" height="512" viewBox="0 0 64 64" width="512" xmlns="http://www.w3.org/2000/svg"><g><path d="m51.88 47.02c-.82 2.26-2.6 4.04-4.86 4.86-10.01 3.67-20.03 3.67-30.04 0-2.26-.82-4.04-2.6-4.86-4.86-3.65-9.99-3.66-19.98-.03-29.97.84-2.3 2.66-4.09 4.97-4.9 10.49-3.68 20.51-3.7 30.05-.07 2.21.84 3.93 2.6 4.74 4.82 3.69 10.04 3.7 20.08.03 30.12z" fill="#6ea7db"/><path d="m48.12 45.65c-.42 1.15-1.32 2.05-2.46 2.47-4.56 1.67-9.15 2.51-13.66 2.51s-9.1-.84-13.64-2.51c-1.16-.42-2.06-1.32-2.48-2.46-3.35-9.17-3.36-18.08-.03-27.24.43-1.17 1.35-2.08 2.53-2.5 4.83-1.69 9.59-2.55 14.15-2.55 4.47 0 8.89.83 13.16 2.45 1.11.42 1.99 1.32 2.4 2.45 3.39 9.22 3.4 18.17.03 27.38z" fill="#6699d1"/><path d="m46.66 36.46c.51-1.43.76-2.92.76-4.46 0-5.65-3.47-10.6-8.7-12.55-.27-2.36-2.28-4.2-4.72-4.2s-4.45 1.84-4.72 4.2c-5.23 1.95-8.7 6.9-8.7 12.55 0 1.54.25 3.03.76 4.46-.97.86-1.59 2.13-1.59 3.54 0 2.62 2.13 4.75 4.75 4.75 1.12 0 2.15-.39 2.96-1.03 2 1.11 4.24 1.7 6.54 1.7s4.54-.59 6.54-1.7c.81.64 1.84 1.03 2.96 1.03 2.62 0 4.75-2.13 4.75-4.75 0-1.41-.62-2.68-1.59-3.54zm-12.66-19.21c1.52 0 2.75 1.23 2.75 2.75 0 .07 0 .14-.01.21-.11 1.42-1.29 2.54-2.74 2.54s-2.63-1.12-2.74-2.54c-.01-.07-.01-.14-.01-.21 0-1.52 1.23-2.75 2.75-2.75zm-7.36 24.48s-.02.01-.02.02c-.5.61-1.26 1-2.12 1-1.52 0-2.75-1.23-2.75-2.75 0-1 .53-1.87 1.32-2.35.41-.25.91-.4 1.43-.4 1.04 0 1.95.58 2.42 1.44.21.39.33.83.33 1.31 0 .66-.23 1.26-.61 1.73zm-2.14-6.48c-.48 0-.94.07-1.38.2-.36-1.11-.54-2.27-.54-3.45 0-4.63 2.74-8.72 6.92-10.49.53 1.58 1.86 2.78 3.5 3.13v6.95l-5.1 5.1c-.86-.89-2.07-1.44-3.4-1.44zm4.24 6.88c.33-.64.51-1.37.51-2.13 0-.55-.09-1.08-.27-1.57l5.02-5.01 5.02 5.01c-.18.49-.27 1.02-.27 1.57 0 .76.18 1.49.51 2.13-3.26 1.67-7.26 1.67-10.52 0zm11.36-5.44-5.1-5.11v-6.94c1.64-.35 2.97-1.55 3.5-3.13 4.18 1.77 6.92 5.86 6.92 10.49 0 1.18-.18 2.34-.54 3.45-.44-.13-.9-.2-1.38-.2-1.33 0-2.54.55-3.4 1.44zm3.4 6.06c-.86 0-1.62-.39-2.12-1-.01-.01-.01-.01-.02-.02-.38-.47-.61-1.07-.61-1.73 0-.48.12-.92.33-1.31.47-.86 1.38-1.44 2.42-1.44.52 0 1.02.15 1.43.4.79.48 1.32 1.35 1.32 2.35 0 1.52-1.23 2.75-2.75 2.75z" fill="#6194c1"/><path d="m38.994 22.974c-.001-.001-.003-.002-.004-.003.002.001.003.002.004.003z" fill="#6194c1"/><g><path d="m38.54 43.72c-2 1.11-4.24 1.7-6.54 1.7s-4.54-.59-6.54-1.7c.54-.43.98-.98 1.28-1.59 3.26 1.67 7.26 1.67 10.52 0 .3.61.74 1.16 1.28 1.59z" fill="#434953"/></g><g><path d="m45.42 32c0 1.54-.25 3.03-.76 4.46-.51-.46-1.11-.8-1.78-1.01.36-1.11.54-2.27.54-3.45 0-4.63-2.74-8.72-6.92-10.49.16-.47.25-.98.25-1.51 0-.18-.01-.37-.03-.55 5.23 1.95 8.7 6.9 8.7 12.55z" fill="#434953"/></g><g><path d="m36.72 19.45c-.27-2.36-2.28-4.2-4.72-4.2s-4.45 1.84-4.72 4.2c-.02.18-.03.37-.03.55 0 .53.09 1.04.25 1.51.53 1.58 1.86 2.78 3.5 3.13.32.07.66.11 1 .11s.68-.04 1-.11c1.64-.35 2.97-1.55 3.5-3.13.16-.47.25-.98.25-1.51 0-.18-.01-.37-.03-.55zm-1.98.76c-.11 1.42-1.29 2.54-2.74 2.54s-2.63-1.12-2.74-2.54c-.01-.07-.01-.14-.01-.21 0-1.52 1.23-2.75 2.75-2.75s2.75 1.23 2.75 2.75c0 .07 0 .14-.01.21z" fill="#e5e7ea"/></g><g><path d="m26.98 38.43c-.23-.66-.6-1.25-1.08-1.74-.86-.89-2.07-1.44-3.4-1.44-.48 0-.94.07-1.38.2-.67.21-1.27.55-1.78 1.01-.97.86-1.59 2.13-1.59 3.54 0 2.62 2.13 4.75 4.75 4.75 1.12 0 2.15-.39 2.96-1.03.54-.43.98-.98 1.28-1.59.33-.64.51-1.37.51-2.13 0-.55-.09-1.08-.27-1.57zm-2.34 3.3s-.02.01-.02.02c-.5.61-1.26 1-2.12 1-1.52 0-2.75-1.23-2.75-2.75 0-1 .53-1.87 1.32-2.35.41-.25.91-.4 1.43-.4 1.04 0 1.95.58 2.42 1.44.21.39.33.83.33 1.31 0 .66-.23 1.26-.61 1.73z" fill="#e5e7ea"/></g><g><path d="m44.66 36.46c-.51-.46-1.11-.8-1.78-1.01-.44-.13-.9-.2-1.38-.2-1.33 0-2.54.55-3.4 1.44-.48.49-.85 1.08-1.08 1.74-.18.49-.27 1.02-.27 1.57 0 .76.18 1.49.51 2.13.3.61.74 1.16 1.28 1.59.81.64 1.84 1.03 2.96 1.03 2.62 0 4.75-2.13 4.75-4.75 0-1.41-.62-2.68-1.59-3.54zm-3.16 6.29c-.86 0-1.62-.39-2.12-1-.01-.01-.01-.01-.02-.02-.38-.47-.61-1.07-.61-1.73 0-.48.12-.92.33-1.31.47-.86 1.38-1.44 2.42-1.44.52 0 1.02.15 1.43.4.79.48 1.32 1.35 1.32 2.35 0 1.52-1.23 2.75-2.75 2.75z" fill="#e5e7ea"/></g><g><path d="m38.1 36.69c-.48.49-.85 1.08-1.08 1.74l-5.02-5.01-5.02 5.01c-.23-.66-.6-1.25-1.08-1.74l5.1-5.1v-6.95c.32.07.66.11 1 .11s.68-.04 1-.11v6.94z" fill="#434953"/></g><g><path d="m20.58 32c0 1.18.18 2.34.54 3.45-.67.21-1.27.55-1.78 1.01-.51-1.43-.76-2.92-.76-4.46 0-5.65 3.47-10.6 8.7-12.55-.02.18-.03.37-.03.55 0 .53.09 1.04.25 1.51-4.18 1.77-6.92 5.86-6.92 10.49z" fill="#434953"/></g></g></svg>