<?xml version="1.0" encoding="iso-8859-1"?>
<!-- Generator: Adobe Illustrator 19.0.0, SVG Export Plug-In . SVG Version: 6.00 Build 0)  -->
<svg version="1.1" id="Capa_1" xmlns="http://www.w3.org/2000/svg" xmlns:xlink="http://www.w3.org/1999/xlink" x="0px" y="0px"
	 viewBox="0 0 512 512" style="enable-background:new 0 0 512 512;" xml:space="preserve">
<g style="opacity:0.08;">
	<circle cx="256" cy="268.59" r="243.41"/>
</g>
<linearGradient id="SVGID_1_" gradientUnits="userSpaceOnUse" x1="-12.6621" y1="576.4395" x2="-12.6621" y2="636.4395" gradientTransform="matrix(8.3934 0 0 -8.3934 362.2788 5341.9175)">
	<stop  offset="0" style="stop-color:#F2F2F2"/>
	<stop  offset="1" style="stop-color:#FFFFFF"/>
</linearGradient>
<circle style="fill:url(#SVGID_1_);" cx="256" cy="251.803" r="251.803"/>
<g style="opacity:0.04;">
	
		<linearGradient id="SVGID_2_" gradientUnits="userSpaceOnUse" x1="-12.6621" y1="576.4395" x2="-12.6621" y2="636.4395" gradientTransform="matrix(8.3934 0 0 -8.3934 362.2788 5341.9175)">
		<stop  offset="0" style="stop-color:#000000"/>
		<stop  offset="0.36" style="stop-color:#000000;stop-opacity:0"/>
	</linearGradient>
	<path style="fill:url(#SVGID_2_);" d="M256,0C116.929,0,4.197,112.732,4.197,251.803S116.929,503.607,256,503.607
		s251.803-112.732,251.803-251.803S395.071,0,256,0z M256,486.82c-129.586,0-235.016-105.43-235.016-235.016
		S126.414,16.787,256,16.787s235.016,105.43,235.016,235.016S385.586,486.82,256,486.82z"/>
</g>
<linearGradient id="SVGID_3_" gradientUnits="userSpaceOnUse" x1="-12.6621" y1="579.4395" x2="-12.6621" y2="633.4395" gradientTransform="matrix(8.3934 0 0 -8.3934 362.2788 5341.9175)">
	<stop  offset="0" style="stop-color:#CB44F6"/>
	<stop  offset="1" style="stop-color:#EB4CBD"/>
</linearGradient>
<circle style="fill:url(#SVGID_3_);" cx="256" cy="251.803" r="226.623"/>
<g style="opacity:0.16;">
	
		<linearGradient id="SVGID_4_" gradientUnits="userSpaceOnUse" x1="-12.6621" y1="579.4395" x2="-12.6621" y2="633.4395" gradientTransform="matrix(8.3934 0 0 -8.3934 362.2788 5341.9175)">
		<stop  offset="0" style="stop-color:#000000"/>
		<stop  offset="0.36" style="stop-color:#000000;stop-opacity:0"/>
	</linearGradient>
	<path style="fill:url(#SVGID_4_);" d="M256,25.18c-125.163,0-226.623,101.46-226.623,226.623S130.837,478.426,256,478.426
		s226.623-101.46,226.623-226.623S381.163,25.18,256,25.18z M256,470.033c-120.521,0-218.229-97.708-218.229-218.23
		S135.479,33.574,256,33.574s218.23,97.708,218.23,218.229S376.521,470.033,256,470.033z"/>
</g>
<g style="opacity:0.16;">
	<path d="M256,0C116.929,0,4.197,112.732,4.197,251.803S116.929,503.607,256,503.607s251.803-112.732,251.803-251.803
		S395.071,0,256,0z M256,495.213c-134.429,0-243.41-108.98-243.41-243.41S121.571,8.393,256,8.393s243.41,108.98,243.41,243.41
		S390.429,495.213,256,495.213z"/>
</g>
<g style="opacity:0.9;">
	
		<linearGradient id="SVGID_5_" gradientUnits="userSpaceOnUse" x1="-18.7569" y1="608.8802" x2="-31.3819" y2="613.1302" gradientTransform="matrix(8.3934 0 0 -8.3934 362.2788 5341.9175)">
		<stop  offset="0" style="stop-color:#FFFFFF;stop-opacity:0.9"/>
		<stop  offset="1" style="stop-color:#FFFFFF"/>
	</linearGradient>
	<path style="fill:url(#SVGID_5_);" d="M100.721,193.049c-1.813,0-3.425,1.167-3.995,2.887c-0.554,1.729,0.05,3.618,1.511,4.692
		l93.788,68.767l25.08-76.347H100.721z"/>
	
		<linearGradient id="SVGID_6_" gradientUnits="userSpaceOnUse" x1="-16.4505" y1="601.58" x2="-24.2005" y2="590.455" gradientTransform="matrix(8.3934 0 0 -8.3934 362.2788 5341.9175)">
		<stop  offset="0" style="stop-color:#FFFFFF;stop-opacity:0.9"/>
		<stop  offset="1" style="stop-color:#FFFFFF"/>
	</linearGradient>
	<path style="fill:url(#SVGID_6_);" d="M155.489,380.592c-0.571,1.737,0.042,3.643,1.519,4.709c1.477,1.066,3.475,1.074,4.952-0.008
		L256,316.324l-63.975-46.919L155.489,380.592z"/>
	
		<linearGradient id="SVGID_7_" gradientUnits="userSpaceOnUse" x1="-1.3337" y1="590.9058" x2="-8.8387" y2="601.5308" gradientTransform="matrix(8.3934 0 0 -8.3934 362.2788 5341.9175)">
		<stop  offset="0" style="stop-color:#FFFFFF"/>
		<stop  offset="1" style="stop-color:#FFFFFF;stop-opacity:0.9"/>
	</linearGradient>
	<path style="fill:url(#SVGID_7_);" d="M350.04,385.284c0.739,0.546,1.612,0.814,2.484,0.814c0.865,0,1.729-0.269,2.468-0.806
		c1.477-1.066,2.09-2.971,1.519-4.709l-36.537-111.188L256,316.315L350.04,385.284z"/>
	
		<linearGradient id="SVGID_8_" gradientUnits="userSpaceOnUse" x1="-15.2252" y1="620.0905" x2="-39.6302" y2="633.0505" gradientTransform="matrix(8.3934 0 0 -8.3934 362.2788 5341.9175)">
		<stop  offset="0" style="stop-color:#FFFFFF;stop-opacity:0.9"/>
		<stop  offset="1" style="stop-color:#FFFFFF"/>
	</linearGradient>
	<path style="fill:url(#SVGID_8_);" d="M259.987,86.822c-1.133-3.441-6.832-3.441-7.965,0l-34.917,106.227h77.79L259.987,86.822z"/>
	
		<linearGradient id="SVGID_9_" gradientUnits="userSpaceOnUse" x1="-6.5804" y1="608.8763" x2="6.3508" y2="612.9789" gradientTransform="matrix(8.3934 0 0 -8.3934 362.2788 5341.9175)">
		<stop  offset="0" style="stop-color:#FFFFFF;stop-opacity:0.9"/>
		<stop  offset="1" style="stop-color:#FFFFFF"/>
	</linearGradient>
	<path style="fill:url(#SVGID_9_);" d="M415.274,195.937c-0.571-1.721-2.182-2.887-3.995-2.887H294.895l25.08,76.355l93.788-68.767
		C415.224,199.554,415.828,197.666,415.274,195.937z"/>
</g>
<polygon style="fill:#FFFEFF;" points="217.105,193.049 192.025,269.404 256,316.324 319.975,269.404 294.895,193.049 "/>
<g>
</g>
<g>
</g>
<g>
</g>
<g>
</g>
<g>
</g>
<g>
</g>
<g>
</g>
<g>
</g>
<g>
</g>
<g>
</g>
<g>
</g>
<g>
</g>
<g>
</g>
<g>
</g>
<g>
</g>
</svg>
