<svg id="User_Interface" enable-background="new 0 0 64 64" height="512" viewBox="0 0 64 64" width="512" xmlns="http://www.w3.org/2000/svg"><g><path d="m48.12 45.65c-.42 1.15-1.32 2.05-2.46 2.47-4.56 1.67-9.15 2.51-13.66 2.51s-9.1-.84-13.64-2.51c-1.16-.42-2.06-1.32-2.48-2.46-3.35-9.17-3.36-18.08-.03-27.24.43-1.17 1.35-2.08 2.53-2.5 4.83-1.69 9.59-2.55 14.15-2.55 4.47 0 8.89.83 13.16 2.45 1.11.42 1.99 1.32 2.4 2.45 3.39 9.22 3.4 18.17.03 27.38z" fill="#e5e7ea"/><path d="m51.85 16.9c-.81-2.22-2.53-3.98-4.74-4.82-9.54-3.63-19.56-3.61-30.05.07-2.31.81-4.13 2.6-4.97 4.9-3.63 9.99-3.62 19.98.03 29.97.82 2.26 2.6 4.04 4.86 4.86 10.01 3.67 20.03 3.67 30.04 0 2.26-.82 4.04-2.6 4.86-4.86 3.67-10.04 3.66-20.08-.03-30.12zm-3.71 28.7c-.43 1.16-1.33 2.1-2.49 2.52-3.09 1.14-5.53 1.89-8.38 2.25-1.08.13-2.07-.65-2.2-1.74l-1.49-11.68c0-.11-.02-.23-.05-.33-.03-.09-.06-.18-.1-.26-.03-.07-.07-.14-.12-.2-.03-.06-.08-.11-.12-.16-.06-.07-.12-.13-.19-.19-.27-.23-.62-.36-1-.36-.84 0-1.54.66-1.58 1.5l-1.49 11.68c-.09.74-.57 1.33-1.21 1.59-.06.03-.12.06-.19.07-.06.02-.13.03-.19.05-.04.01-.08.02-.12.02-.16.03-.33.03-.5.01-2.84-.36-5.28-1.11-8.36-2.25-1.16-.42-2.06-1.32-2.48-2.46-3.35-9.17-3.36-18.08-.03-27.24.19-.52.47-.98.83-1.37.46-.51 1.04-.89 1.7-1.13 4.83-1.69 9.59-2.55 14.15-2.55.32 0 .63.01.95.02h.06c4.13.11 8.2.93 12.15 2.43 1.11.42 1.99 1.32 2.4 2.45 3.38 9.2 3.4 18.14.05 27.33z" fill="#5ac0a6"/><g><path d="m38.28 50.22c-.33.06-.67.11-1.01.15-1.08.13-2.07-.65-2.2-1.74l-1.49-11.68c0-.11-.02-.23-.05-.33-.03-.09-.06-.18-.1-.26-.03-.07-.07-.14-.12-.2-.03-.06-.08-.11-.12-.16-.06-.07-.12-.13-.19-.19.27-.22.62-.36 1-.36.84 0 1.54.66 1.58 1.5l1.49 11.68c.09.74.57 1.32 1.21 1.59z" fill="#d9dadb"/></g><g><path d="m47.76 30.33c0 4.22-1.63 8.18-4.61 11.16-.19.19-.45.29-.71.29-.25 0-.51-.1-.7-.29-.39-.4-.39-1.03 0-1.42 2.59-2.6 4.02-6.05 4.02-9.74 0-3.68-1.43-7.14-4.02-9.73-.39-.39-.39-1.03 0-1.42s1.02-.39 1.41 0c2.98 2.98 4.61 6.94 4.61 11.15z" fill="#6699d1"/></g><path d="m44.15 19.18c-.329-.329-.822-.363-1.205-.136.07.042.144.076.205.136 2.98 2.98 4.61 6.94 4.61 11.15 0 4.22-1.63 8.18-4.61 11.16-.059.059-.134.094-.205.135.155.091.323.155.495.155.26 0 .52-.1.71-.29 2.98-2.98 4.61-6.94 4.61-11.16 0-4.21-1.63-8.17-4.61-11.15z" fill="#d9dadb"/><g><path d="m22.26 40.07c.39.39.39 1.02 0 1.41-.19.2-.45.3-.7.3-.26 0-.52-.1-.71-.3-2.98-2.97-4.61-6.93-4.61-11.15 0-4.21 1.63-8.17 4.61-11.15.39-.39 1.02-.39 1.41 0s.39 1.03 0 1.42c-2.59 2.59-4.02 6.05-4.02 9.73 0 3.69 1.43 7.14 4.02 9.74z" fill="#6699d1"/></g><g><path d="m43.77 30.33c0 3.15-1.23 6.11-3.45 8.33-.19.19-.45.29-.7.29-.26 0-.52-.1-.71-.29-.39-.39-.39-1.03 0-1.42 3.81-3.81 3.81-10.01 0-13.82-.39-.39-.39-1.02 0-1.41s1.02-.39 1.41 0c2.22 2.22 3.45 5.18 3.45 8.32z" fill="#6699d1"/></g><g><path d="m25.09 37.24c.39.39.39 1.03 0 1.42-.19.19-.45.29-.71.29-.25 0-.51-.1-.7-.29-4.59-4.59-4.59-12.06 0-16.65.39-.39 1.02-.39 1.41 0s.39 1.02 0 1.41c-3.81 3.81-3.81 10.01 0 13.82z" fill="#6699d1"/></g><g><path d="m37.5 35.83c-.2.19-.46.29-.71.29-.26 0-.51-.1-.71-.29-.39-.39-.39-1.03 0-1.42 2.25-2.25 2.25-5.91 0-8.16-.39-.39-.39-1.02 0-1.41s1.02-.39 1.41 0c3.03 3.03 3.03 7.96.01 10.99z" fill="#6699d1"/></g><path d="m41.32 38.66c2.22-2.22 3.45-5.18 3.45-8.33 0-3.14-1.23-6.1-3.45-8.32-.329-.329-.822-.363-1.205-.136.07.042.144.076.205.136 2.22 2.22 3.45 5.18 3.45 8.32 0 3.15-1.23 6.11-3.45 8.33-.059.059-.134.094-.205.135.156.091.326.155.505.155.25 0 .51-.1.7-.29z" fill="#d9dadb"/><path d="m38.5 35.83c3.02-3.03 3.02-7.96-.01-10.99-.329-.329-.822-.363-1.205-.136.07.042.144.076.205.136 3.03 3.03 3.03 7.96.01 10.99-.063.06-.139.094-.211.136.156.091.323.154.501.154.25 0 .51-.1.71-.29z" fill="#d9dadb"/><g><path d="m27.92 34.41c.39.39.39 1.03 0 1.42-.2.19-.45.29-.71.29-.25 0-.51-.1-.71-.29-3.02-3.03-3.02-7.96 0-10.99.4-.39 1.03-.39 1.42 0s.39 1.02 0 1.41c-2.25 2.25-2.25 5.91 0 8.16z" fill="#6699d1"/></g><path d="m33.96 32.29c-1.08 1.08-2.84 1.08-3.92 0s-1.08-2.83 0-3.92c1.08-1.08 2.84-1.08 3.92 0 1.08 1.09 1.08 2.84 0 3.92z" fill="#6699d1"/><path d="m32.5 33.052c.866.157 1.793-.095 2.46-.762 1.08-1.08 1.08-2.83 0-3.92-.667-.667-1.594-.92-2.46-.762.535.097 1.047.35 1.46.762 1.08 1.09 1.08 2.84 0 3.92-.413.413-.925.665-1.46.762z" fill="#d9dadb"/></g></svg>