<?xml version="1.0" encoding="iso-8859-1"?>
<!-- Generator: Adobe Illustrator 19.0.0, SVG Export Plug-In . SVG Version: 6.00 Build 0)  -->
<svg version="1.1" id="Capa_1" xmlns="http://www.w3.org/2000/svg" xmlns:xlink="http://www.w3.org/1999/xlink" x="0px" y="0px"
	 viewBox="0 0 512 512" style="enable-background:new 0 0 512 512;" xml:space="preserve">
<g style="opacity:0.08;">
	<circle cx="256" cy="260.197" r="251.803"/>
</g>
<linearGradient id="SVGID_1_" gradientUnits="userSpaceOnUse" x1="-12.6621" y1="576.4395" x2="-12.6621" y2="636.4395" gradientTransform="matrix(8.3934 0 0 -8.3934 362.2788 5341.9175)">
	<stop  offset="0" style="stop-color:#3871E9"/>
	<stop  offset="1" style="stop-color:#61C5F6"/>
</linearGradient>
<circle style="fill:url(#SVGID_1_);" cx="256" cy="251.803" r="251.803"/>
<g style="opacity:0.16;">
	
		<linearGradient id="SVGID_2_" gradientUnits="userSpaceOnUse" x1="-12.6621" y1="576.4395" x2="-12.6621" y2="636.4395" gradientTransform="matrix(8.3934 0 0 -8.3934 362.2788 5341.9175)">
		<stop  offset="0" style="stop-color:#000000"/>
		<stop  offset="0.36" style="stop-color:#000000;stop-opacity:0"/>
	</linearGradient>
	<path style="fill:url(#SVGID_2_);" d="M256,0C116.929,0,4.197,112.732,4.197,251.803S116.929,503.607,256,503.607
		s251.803-112.732,251.803-251.803S395.071,0,256,0z M256,486.82c-129.796,0-235.016-105.22-235.016-235.016
		S126.204,16.787,256,16.787s235.016,105.22,235.016,235.016C490.874,381.541,385.737,486.677,256,486.82z"/>
</g>
<g style="opacity:0.16;">
	<path d="M256,0C116.929,0,4.197,112.732,4.197,251.803S116.929,503.607,256,503.607s251.803-112.732,251.803-251.803
		S395.071,0,256,0z M256,495.213c-134.429,0-243.41-108.98-243.41-243.41S121.571,8.393,256,8.393s243.41,108.98,243.41,243.41
		S390.429,495.213,256,495.213z"/>
</g>
<linearGradient id="SVGID_3_" gradientUnits="userSpaceOnUse" x1="-12.6616" y1="587.4394" x2="-12.6616" y2="625.4395" gradientTransform="matrix(8.3934 0 0 -8.3934 362.2788 5341.9175)">
	<stop  offset="0" style="stop-color:#E2EFF6"/>
	<stop  offset="1" style="stop-color:#FFFFFF"/>
</linearGradient>
<path style="fill:url(#SVGID_3_);" d="M256,92.328c-88.072,0-159.475,71.403-159.475,159.475S167.928,411.279,256,411.279
	c27.102,0.034,53.752-6.941,77.362-20.237c6.052-3.425,8.184-11.113,4.751-17.165c-3.433-6.052-11.113-8.184-17.165-4.751l0,0
	C301.123,380.29,278.746,386.14,256,386.098c-74.173,0-134.295-60.122-134.295-134.295S181.827,117.508,256,117.508
	s134.295,60.122,134.295,134.295c0,28.554-16.653,52.686-36.369,52.686c-19.725,0-36.377-24.131-36.377-52.686v-58.024
	c0-5.565-3.651-10.467-8.973-12.061c-42.395-12.733-78.865-9.929-102.711,7.831c-12.649,9.409-27.732,27.833-27.732,62.145
	c0,48.825,29.108,77.975,77.874,77.975c20.631,0.722,40.331-8.561,52.912-24.929c10.122,15.066,26.867,24.341,45.014,24.929
	c33.935,0,61.549-34.933,61.549-77.866C415.375,163.773,344.03,92.429,256,92.328z M292.369,275.985
	c0,22.503-22.864,28.504-36.369,28.504c-24.039,0-52.694-9.157-52.694-52.795c0-19.145,5.917-33.263,17.593-41.95
	c11.44-7.588,25.004-11.323,38.711-10.66c11.054,0.118,22.05,1.57,32.76,4.306V275.985z"/>
<g>
</g>
<g>
</g>
<g>
</g>
<g>
</g>
<g>
</g>
<g>
</g>
<g>
</g>
<g>
</g>
<g>
</g>
<g>
</g>
<g>
</g>
<g>
</g>
<g>
</g>
<g>
</g>
<g>
</g>
</svg>
