<svg id="User_Interface" enable-background="new 0 0 64 64" height="512" viewBox="0 0 64 64" width="512" xmlns="http://www.w3.org/2000/svg"><g><path d="m51.88 47.02c-.82 2.26-2.6 4.04-4.86 4.86-10.01 3.67-20.03 3.67-30.04 0-2.26-.82-4.04-2.6-4.86-4.86-3.65-9.99-3.66-19.98-.03-29.97.84-2.3 2.66-4.09 4.97-4.9 10.49-3.68 20.51-3.7 30.05-.07 2.21.84 3.93 2.6 4.74 4.82 3.69 10.04 3.7 20.08.03 30.12z" fill="#e5e7ea"/><path d="m48.12 45.65c-.42 1.15-1.32 2.05-2.46 2.47-4.56 1.67-9.15 2.51-13.66 2.51s-9.1-.84-13.64-2.51c-1.16-.42-2.06-1.32-2.48-2.46-3.35-9.17-3.36-18.08-.03-27.24.43-1.17 1.35-2.08 2.53-2.5 4.83-1.69 9.59-2.55 14.15-2.55 4.47 0 8.89.83 13.16 2.45 1.11.42 1.99 1.32 2.4 2.45 3.39 9.22 3.4 18.17.03 27.38z" fill="#6ea7db"/><path d="m35.79 22.51v1.18c-1.33-.36-2.62-.61-3.49-.61-.97 0-2.52.31-4.09.74v-1.31c0-2.09 1.7-3.79 3.79-3.79s3.79 1.7 3.79 3.79z" fill="#6aa3ce"/><path d="m35.79 22.51c0-1.742-1.187-3.197-2.79-3.639-1.603.442-2.79 1.898-2.79 3.639v.836c.81-.162 1.546-.266 2.09-.266.285 0 .627.035.989.084.375-.049.724-.084 1.011-.084.414 0 .927.06 1.49.158z" fill="#6ea7db"/><path d="m43.74 42.77c-2.58.95-9.18 1.42-11.74 1.42s-9.16-.47-11.73-1.42c-.66-.24.69-11.64 2.58-16.83.11-.3 1.57-.93 3.36-1.52v2.48c-.6.34-1 .98-1 1.72 0 1.1.9 2 2 2s2-.9 2-2c0-.74-.41-1.38-1-1.72v-3.08c1.57-.43 3.12-.74 4.09-.74.87 0 2.16.25 3.49.61v3.21c-.59.34-1 .98-1 1.72 0 1.1.9 2 2 2s2-.9 2-2c0-.74-.4-1.38-1-1.72v-2.59c1.76.58 3.21 1.24 3.33 1.55 1.92 5.22 3.27 16.67 2.62 16.91z" fill="#fdcc58"/><path d="m43.12 25.86c-.12-.31-1.57-.97-3.33-1.55v.753c.749.326 1.261.619 1.33.797 1.92 5.22 3.27 16.67 2.62 16.91-2.293.844-7.755 1.309-10.74 1.402.374.012.715.018 1 .018 2.56 0 9.16-.47 11.74-1.42.65-.24-.7-11.69-2.62-16.91z" fill="#6aa3ce"/><path d="m38.79 28.62c0 1.1-.9 2-2 2s-2-.9-2-2c0-.74.41-1.38 1-1.72v-4.39c0-2.09-1.7-3.79-3.79-3.79s-3.79 1.7-3.79 3.79v4.39c.59.34 1 .98 1 1.72 0 1.1-.9 2-2 2s-2-.9-2-2c0-.74.4-1.38 1-1.72v-4.39c0-3.19 2.6-5.79 5.79-5.79s5.79 2.6 5.79 5.79v4.39c.6.34 1 .98 1 1.72z" fill="#ea5765"/><path d="m34 16.72c-.342 0-.674.036-1 .093 2.715.477 4.79 2.849 4.79 5.697v1.8c.753.248 1.44.51 2 .753v-2.553c0-3.19-2.6-5.79-5.79-5.79z" fill="#6aa3ce"/></g></svg>