<svg id="User_Interface" enable-background="new 0 0 64 64" height="512" viewBox="0 0 64 64" width="512" xmlns="http://www.w3.org/2000/svg"><g><path d="m51.88 47.02c-.82 2.26-2.6 4.04-4.86 4.86-10.01 3.67-20.03 3.67-30.04 0-2.26-.82-4.04-2.6-4.86-4.86-3.65-9.99-3.66-19.98-.03-29.97.84-2.3 2.66-4.09 4.97-4.9 10.49-3.68 20.51-3.7 30.05-.07 2.21.84 3.93 2.6 4.74 4.82 3.69 10.04 3.7 20.08.03 30.12z" fill="#fdcc58"/><path d="m48.12 45.65c-.42 1.15-1.32 2.05-2.46 2.47-4.56 1.67-9.15 2.51-13.66 2.51s-9.1-.84-13.64-2.51c-1.16-.42-2.06-1.32-2.48-2.46-3.35-9.17-3.36-18.08-.03-27.24.43-1.17 1.35-2.08 2.53-2.5 4.83-1.69 9.59-2.55 14.15-2.55 4.47 0 8.89.83 13.16 2.45 1.11.42 1.99 1.32 2.4 2.45 3.39 9.22 3.4 18.17.03 27.38z" fill="#e5e7ea"/><ellipse cx="33" cy="31" fill="#d9dadb" rx="14.77" ry="14.77" transform="matrix(.16 -.987 .987 .16 -2.886 58.608)"/><ellipse cx="32" cy="32" fill="#efbb54" rx="14.77" ry="14.77" transform="matrix(.16 -.987 .987 .16 -4.713 58.461)"/><ellipse cx="31" cy="32" fill="#fdcc58" rx="13.77" ry="14.719"/><path d="m24.855 34.381c-.809-.306-1.501.912-1.149 2.009 1.298 4.051 5.24 7.006 8.294 7.006 3.053 0 6.994-2.953 8.293-7.003.353-1.099-.341-2.318-1.151-2.012-4.121 1.558-10.167 1.557-14.287 0z" fill="#ea5765"/><g><path d="m28.039 28.727c-.391 0-.78-.151-1.074-.453-.354-.363-.879-.797-1.363-.797s-1.009.434-1.363.797c-.579.593-1.528.604-2.121.027-.594-.578-.605-1.528-.027-2.121 2.203-2.26 4.82-2.26 7.023 0 .578.593.566 1.543-.027 2.121-.292.284-.67.426-1.048.426z" fill="#434953"/></g><g><path d="m40.836 28.727c-.391 0-.78-.151-1.074-.453-.354-.363-.879-.797-1.363-.797s-1.009.434-1.363.797c-.579.593-1.527.604-2.121.027-.594-.578-.605-1.528-.027-2.121 2.203-2.26 4.82-2.26 7.023 0 .578.593.566 1.543-.027 2.121-.292.284-.67.426-1.048.426z" fill="#434953"/></g></g></svg>