<?xml version="1.0" encoding="iso-8859-1"?>
<!-- Generator: Adobe Illustrator 19.0.0, SVG Export Plug-In . SVG Version: 6.00 Build 0)  -->
<svg version="1.1" id="Capa_1" xmlns="http://www.w3.org/2000/svg" xmlns:xlink="http://www.w3.org/1999/xlink" x="0px" y="0px"
	 viewBox="0 0 512 512" style="enable-background:new 0 0 512 512;" xml:space="preserve">
<g style="opacity:0.08;">
	<path d="M129.051,512c-74.5,0-124.56-50.059-124.56-124.56V133.542c0-74.5,50.059-124.56,124.56-124.56h253.898
		c74.5,0,124.56,50.059,124.56,124.56V387.44c0,74.5-50.059,124.56-124.56,124.56H129.051z"/>
</g>
<linearGradient id="SVGID_1_" gradientUnits="userSpaceOnUse" x1="-15.0449" y1="581.5254" x2="-15.0449" y2="637.5254" gradientTransform="matrix(8.9825 0 0 -8.9825 391.1404 5726.5439)">
	<stop  offset="0" style="stop-color:#D8D6CC"/>
	<stop  offset="1" style="stop-color:#E8E5DC"/>
</linearGradient>
<path style="fill:url(#SVGID_1_);" d="M129.051,503.018c-74.5,0-124.56-50.059-124.56-124.56V124.56C4.491,50.059,54.55,0,129.051,0
	h253.898c74.5,0,124.56,50.059,124.56,124.56v253.898c0,74.5-50.059,124.56-124.56,124.56H129.051z"/>
<rect x="444.632" y="125.754" style="fill:#5AC8FA;" width="62.877" height="125.754"/>
<rect x="444.632" y="251.509" style="fill:#FF9500;" width="62.877" height="125.754"/>
<path style="fill:#C4C2BA;" d="M507.509,124.587v1.168h-62.877V13.923C483.705,33.594,507.509,73.297,507.509,124.587z"/>
<path style="fill:#4CD964;" d="M507.509,377.263v1.168c0,51.29-23.804,90.992-62.877,110.664V377.263H507.509z"/>
<g style="opacity:0.16;">
	
		<linearGradient id="SVGID_2_" gradientUnits="userSpaceOnUse" x1="-15.0449" y1="581.5254" x2="-15.0449" y2="637.5254" gradientTransform="matrix(8.9825 0 0 -8.9825 391.1404 5726.5439)">
		<stop  offset="0" style="stop-color:#000000"/>
		<stop  offset="0.06" style="stop-color:#000000;stop-opacity:0"/>
	</linearGradient>
	<path style="fill:url(#SVGID_2_);" d="M382.949,0H129.051C54.55,0,4.491,50.059,4.491,124.56v253.898
		c0,74.5,50.059,124.56,124.56,124.56h253.898c74.5,0,124.56-50.059,124.56-124.56V124.56C507.509,50.059,457.45,0,382.949,0z
		 M489.544,378.458c0,64.755-41.84,106.595-106.595,106.595H129.051c-64.755,0-106.595-41.84-106.595-106.595V124.56
		c0-64.755,41.84-106.595,106.595-106.595h253.898c64.755,0,106.595,41.84,106.595,106.595V378.458z"/>
</g>
<g style="opacity:0.16;">
	<path d="M382.949,0H129.051C54.55,0,4.491,50.059,4.491,124.56v253.898c0,74.5,50.059,124.56,124.56,124.56h253.898
		c74.5,0,124.56-50.059,124.56-124.56V124.56C507.509,50.059,457.45,0,382.949,0z M498.526,378.458
		c0,69.129-46.448,115.577-115.577,115.577H129.051c-69.129,0-115.577-46.448-115.577-115.577V124.56
		c0-69.129,46.448-115.577,115.577-115.577h253.898c69.129,0,115.577,46.448,115.577,115.577V378.458z"/>
</g>
<g style="opacity:0.16;">
	<path d="M453.614,29.283v444.452c-2.874,1.976-5.839,3.862-8.982,5.569V23.714C447.775,25.42,450.74,27.307,453.614,29.283z"/>
</g>
<g>
	<path style="fill:#A9A29A;" d="M226.538,322.74c-21.738,7.815-53.895,19.582-53.895,55.242v15.45
		c-32.067-12.755-58.745-36.02-75.812-65.572c3.683-1.796,7.455-3.413,11.048-5.03c17.156-7.635,27.666-12.845,27.666-24.702
		c0-14.641-7.725-22.546-10.15-24.612c-7.725-2.066-11.048-15.989-11.048-23.444c0-4.671,1.168-7.455,2.605-9.072
		c-4.851-17.875-4.222-41.948,7.905-58.566c8.803-12.126,22.726-18.684,40.421-18.773c12.935-4.222,26.678-1.527,36.918,7.366
		c9.072,7.905,22.726,27.217,15.18,69.614c1.617,1.617,2.874,4.491,2.874,9.432c0,7.455-3.324,21.468-10.959,23.444
		c-2.515,2.066-10.42,9.971-10.42,24.612C198.872,309.985,209.381,315.194,226.538,322.74z"/>
	<path style="fill:#A9A29A;" d="M355.526,337.022c-27.397,40.601-73.836,67.189-126.473,67.189c-16.528,0-32.516-2.605-47.427-7.545
		v-18.683c0-29.642,26.947-39.253,48.505-46.978c19.851-7.096,31.888-12.216,31.888-23.714c0-2.066-0.269-4.042-0.629-6.018
		c-23.085-2.964-36.199-9.432-36.918-9.791c-1.347-0.719-2.246-2.066-2.425-3.593c-0.09-1.527,0.539-3.054,1.796-3.952
		c0.629-0.449,14.911-11.587,8.982-33.145c-8.713-31.528-1.168-50.481,6.737-60.901c9.971-13.025,26.498-20.48,45.361-20.48
		c18.863,0,35.391,7.455,45.361,20.48c7.905,10.42,15.45,29.373,6.737,60.901c-6.018,21.827,8.803,32.966,8.982,33.145
		c1.258,0.898,1.886,2.425,1.797,3.952c-0.18,1.527-1.078,2.874-2.425,3.593c-0.719,0.359-13.743,6.827-36.918,9.791
		c-0.359,1.976-0.629,3.952-0.629,6.018c0,11.498,12.036,16.618,31.888,23.714C344.836,332.8,350.226,334.776,355.526,337.022z"/>
</g>
<circle style="fill:none;stroke:#A9A29A;stroke-linecap:round;stroke-linejoin:round;stroke-miterlimit:10;" cx="229.053" cy="251.509" r="157.193"/>
<g>
</g>
<g>
</g>
<g>
</g>
<g>
</g>
<g>
</g>
<g>
</g>
<g>
</g>
<g>
</g>
<g>
</g>
<g>
</g>
<g>
</g>
<g>
</g>
<g>
</g>
<g>
</g>
<g>
</g>
</svg>
