<svg id="User_Interface" enable-background="new 0 0 64 64" height="512" viewBox="0 0 64 64" width="512" xmlns="http://www.w3.org/2000/svg"><g><path d="m48.12 45.65c-.42 1.15-1.32 2.05-2.46 2.47-4.56 1.67-9.15 2.51-13.66 2.51s-9.1-.84-13.64-2.51c-1.16-.42-2.06-1.32-2.48-2.46-3.35-9.17-3.36-18.08-.03-27.24.43-1.17 1.35-2.08 2.53-2.5 4.83-1.69 9.59-2.55 14.15-2.55 4.47 0 8.89.83 13.16 2.45 1.11.42 1.99 1.32 2.4 2.45 3.39 9.22 3.4 18.17.03 27.38z" fill="#e5e7ea"/><path d="m51.85 16.9c-.81-2.22-2.53-3.98-4.74-4.82-9.54-3.63-19.56-3.61-30.05.07-2.31.81-4.13 2.6-4.97 4.9-3.63 9.99-3.62 19.98.03 29.97.82 2.26 2.6 4.04 4.86 4.86 10.01 3.67 20.03 3.67 30.04 0 2.26-.82 4.04-2.6 4.86-4.86 3.67-10.04 3.66-20.08-.03-30.12zm-3.74 28.78c-.42 1.14-1.31 2.02-2.45 2.44-1.75.64-3.51 1.16-5.26 1.55-.24.05-.48.11-.72.16-1.24.25-2.41-.7-2.41-1.97v-4.42c2.59-1.46 4.29-3.98 4.29-6.84v-7.04h-19.12v7.04c0 2.86 1.7 5.38 4.29 6.84v4.42c0 .81-.47 1.48-1.13 1.81h-.01c-.03.02-.06.03-.09.04-.06.03-.12.05-.18.07-.31.1-.66.13-1 .05-1.99-.41-3.98-.98-5.96-1.71-1.16-.42-2.06-1.32-2.48-2.46-2.14-5.85-2.92-11.6-2.33-17.37.33-3.27 1.09-6.55 2.3-9.87.43-1.17 1.35-2.08 2.53-2.5 4.83-1.69 9.59-2.55 14.15-2.55.32 0 .63.01.95.02h.06c4.13.11 8.2.93 12.15 2.43 1.11.42 1.99 1.32 2.4 2.45 3.39 9.23 3.4 18.19.02 27.41z" fill="#434953"/><g><g><path d="m33 17v4.62c0 .56-.45 1-1 1s-1-.44-1-1v-4.62c0-.55.45-1 1-1s1 .45 1 1z" fill="#fdcc58"/></g></g><g><g><path d="m24.37 24.37c-.19.2-.45.29-.71.29-.25 0-.51-.09-.7-.29l-3.27-3.27c-.39-.39-.39-1.02 0-1.41s1.02-.39 1.41 0l3.27 3.27c.39.39.39 1.02 0 1.41z" fill="#fdcc58"/></g></g><g><g><path d="m44.31 21.1-3.27 3.27c-.19.2-.45.29-.7.29-.26 0-.52-.09-.71-.29-.39-.39-.39-1.02 0-1.41l3.27-3.27c.39-.39 1.02-.39 1.41 0s.39 1.02 0 1.41z" fill="#fdcc58"/></g></g><g fill="#d9dadb"><path d="m34 22.62v-4.62c0-.55-.45-1-1-1v4.62c0 .56-.45 1-1 1 0 .56.45 1 1 1s1-.44 1-1z"/><path d="m25.37 23.96-1-1c.39.39.39 1.02 0 1.41-.19.2-.45.29-.71.29-.25 0-.51-.09-.7-.29l1 1c.19.2.45.29.7.29.26 0 .52-.09.71-.29.39-.39.39-1.02 0-1.41z"/><path d="m44.602 20.398c-.001.254-.098.508-.292.702l-3.27 3.27c-.19.2-.45.29-.7.29h-.001c-.001.257.095.514.291.71.19.2.45.29.71.29.25 0 .51-.09.7-.29l3.27-3.27c.39-.39.39-1.02 0-1.41-.196-.196-.452-.293-.708-.292z"/><path d="m41.56 29.56h2v3.44h-2z"/></g><g><path d="m43.56 33v3.6c0 2.86-1.7 5.38-4.29 6.84v4.42c0 .81.48 1.47 1.13 1.81-.24.05-.48.11-.72.16-1.24.25-2.41-.7-2.41-1.97v-4.42c2.59-1.46 4.29-3.98 4.29-6.84v-3.6z" fill="#d9dadb"/></g><path d="m39.33 29.56c0-2.45-3.28-4.44-7.33-4.44s-7.33 1.99-7.33 4.44v1.565h14.66z" fill="#fdcc58"/><path d="m36 25.12c-.694 0-1.364.062-2 .172 3.076.528 5.33 2.238 5.33 4.268v1.565h4v-1.565c0-2.45-3.28-4.44-7.33-4.44z" fill="#d9dadb"/><path d="m22.44 29.56h19.12v3.44h-19.12z" fill="#4c545e"/></g></svg>