<svg id="User_Interface" enable-background="new 0 0 64 64" height="512" viewBox="0 0 64 64" width="512" xmlns="http://www.w3.org/2000/svg"><g><path d="m51.88 47.02c-.82 2.26-2.6 4.04-4.86 4.86-10.01 3.67-20.03 3.67-30.04 0-2.26-.82-4.04-2.6-4.86-4.86-3.65-9.99-3.66-19.98-.03-29.97.84-2.3 2.66-4.09 4.97-4.9 10.49-3.68 20.51-3.7 30.05-.07 2.21.84 3.93 2.6 4.74 4.82 3.69 10.04 3.7 20.08.03 30.12z" fill="#6ea7db"/><path d="m48.12 45.65c-.42 1.15-1.32 2.05-2.46 2.47-4.56 1.67-9.15 2.51-13.66 2.51s-9.1-.84-13.64-2.51c-1.16-.42-2.06-1.32-2.48-2.46-3.35-9.17-3.36-18.08-.03-27.24.43-1.17 1.35-2.08 2.53-2.5 4.83-1.69 9.59-2.55 14.15-2.55 4.47 0 8.89.83 13.16 2.45 1.11.42 1.99 1.32 2.4 2.45 3.39 9.22 3.4 18.17.03 27.38z" fill="#6699d1"/><path d="m45.36 23.56v.53c0 .9-.73 1.62-1.63 1.62h.37l-2.29 18.52c-.12.97-.95 1.69-1.92 1.69h-11.78c-.97 0-1.8-.72-1.92-1.69l-2.29-18.52h.37c-.9 0-1.63-.72-1.63-1.62v-.53c0-.89.73-1.62 1.63-1.62h5.49c-.06-.16-.08-.34-.08-.52v-1.39c0-.98.8-1.78 1.78-1.78h5.08c.98 0 1.78.8 1.78 1.78v1.39c0 .18-.02.36-.08.52h5.49c.9 0 1.63.73 1.63 1.62z" fill="#6194c1"/><path d="m42.1 25.71-2.29 18.52c-.12.97-.95 1.69-1.92 1.69h-11.78c-.97 0-1.8-.72-1.92-1.69l-2.29-18.52z" fill="#e5e7ea"/><path d="m43.36 23.56v.53c0 .9-.73 1.62-1.63 1.62h-19.46c-.9 0-1.63-.72-1.63-1.62v-.53c0-.89.73-1.62 1.63-1.62h19.46c.9 0 1.63.73 1.63 1.62z" fill="#d9dadb"/><g><path d="m33 29.63v10.46c0 .55-.45 1-1 1s-1-.45-1-1v-10.46c0-.55.45-1 1-1s1 .45 1 1z" fill="#d9dadb"/></g><g><path d="m28.68 29.63v10.46c0 .55-.45 1-1 1-.56 0-1-.45-1-1v-10.46c0-.55.44-1 1-1 .55 0 1 .45 1 1z" fill="#d9dadb"/></g><g><path d="m37.32 29.63v10.46c0 .55-.44 1-1 1-.55 0-1-.45-1-1v-10.46c0-.55.45-1 1-1 .56 0 1 .45 1 1z" fill="#d9dadb"/></g><path d="m36.32 20.03v1.39c0 .18-.02.36-.08.52h-8.48c-.06-.16-.08-.34-.08-.52v-1.39c0-.98.8-1.78 1.78-1.78h5.08c.98 0 1.78.8 1.78 1.78z" fill="#e5e7ea"/></g></svg>