<svg id="User_Interface" enable-background="new 0 0 64 64" height="512" viewBox="0 0 64 64" width="512" xmlns="http://www.w3.org/2000/svg"><g><path d="m51.88 47.02c-.82 2.26-2.6 4.04-4.86 4.86-10.01 3.67-20.03 3.67-30.04 0-2.26-.82-4.04-2.6-4.86-4.86-3.65-9.99-3.66-19.98-.03-29.97.84-2.3 2.66-4.09 4.97-4.9 10.49-3.68 20.51-3.7 30.05-.07 2.21.84 3.93 2.6 4.74 4.82 3.69 10.04 3.7 20.08.03 30.12z" fill="#6ea7db"/><path d="m48.12 45.65c-.42 1.15-1.32 2.05-2.46 2.47-4.56 1.67-9.15 2.51-13.66 2.51s-9.1-.84-13.64-2.51c-1.16-.42-2.06-1.32-2.48-2.46-3.35-9.17-3.36-18.08-.03-27.24.43-1.17 1.35-2.08 2.53-2.5 4.83-1.69 9.59-2.55 14.15-2.55 4.47 0 8.89.83 13.16 2.45 1.11.42 1.99 1.32 2.4 2.45 3.39 9.22 3.4 18.17.03 27.38z" fill="#6699d1"/><path d="m24.04 26.78v10.98h-3.88c-1.11 0-2-.89-2-2v-6.98c0-1.1.89-2 2-2z" fill="#434953"/><path d="m35.76 20.11v23.86c0 1.92-2.33 2.88-3.68 1.51l-8.04-8.18v-10.52l8.04-8.18c1.35-1.37 3.68-.41 3.68 1.51z" fill="#e5e7ea"/><path d="m34.089 46.046c1.262.315 2.671-.581 2.671-2.076v-23.86c0-1.494-1.409-2.39-2.671-2.076.904.214 1.671.978 1.671 2.076v23.86c0 1.098-.767 1.861-1.671 2.076z" fill="#6194c1"/><path d="m47.01 34.9c.39.39.39 1.03 0 1.42-.19.19-.45.29-.71.29-.25 0-.51-.1-.7-.29l-2.91-2.91-2.9 2.91c-.19.19-.45.29-.71.29-.25 0-.51-.1-.7-.29-.39-.39-.39-1.03 0-1.42l2.9-2.9-2.9-2.9c-.39-.39-.39-1.03 0-1.42s1.02-.39 1.41 0l2.9 2.91 2.91-2.91c.39-.39 1.02-.39 1.41 0s.39 1.03 0 1.42l-2.9 2.9z" fill="#e5e7ea"/><g fill="#6194c1"><path d="m48.01 34.9-2.9-2.9 2.9-2.9c.39-.39.39-1.03 0-1.42-.329-.329-.822-.363-1.205-.136.07.042.144.076.205.136.39.39.39 1.03 0 1.42l-2.9 2.9 2.9 2.9c.39.39.39 1.03 0 1.42-.059.059-.134.094-.205.135.155.091.323.155.495.155.26 0 .52-.1.71-.29.39-.39.39-1.03 0-1.42z"/><path d="m40.79 36.32 2.401-2.409-.501-.501-2.9 2.91c-.059.059-.135.094-.205.135.155.091.323.155.495.155.26 0 .52-.1.71-.29z"/><path d="m43.191 30.089-2.401-2.409c-.329-.329-.822-.363-1.205-.136.07.042.144.076.205.136l2.9 2.91z"/></g></g></svg>