<svg id="User_Interface" enable-background="new 0 0 64 64" height="512" viewBox="0 0 64 64" width="512" xmlns="http://www.w3.org/2000/svg"><g><path d="m51.88 47.02c-.82 2.26-2.6 4.04-4.86 4.86-10.01 3.67-20.03 3.67-30.04 0-2.26-.82-4.04-2.6-4.86-4.86-3.65-9.99-3.66-19.98-.03-29.97.84-2.3 2.66-4.09 4.97-4.9 10.49-3.68 20.51-3.7 30.05-.07 2.21.84 3.93 2.6 4.74 4.82 3.69 10.04 3.7 20.08.03 30.12z" fill="#6ea7db"/><path d="m48.12 45.65c-.42 1.15-1.32 2.05-2.46 2.47-4.56 1.67-9.15 2.51-13.66 2.51s-9.1-.84-13.64-2.51c-1.16-.42-2.06-1.32-2.48-2.46-3.35-9.17-3.36-18.08-.03-27.24.43-1.17 1.35-2.08 2.53-2.5 4.83-1.69 9.59-2.55 14.15-2.55 4.47 0 8.89.83 13.16 2.45 1.11.42 1.99 1.32 2.4 2.45 3.39 9.22 3.4 18.17.03 27.38z" fill="#6699d1"/><path d="m47.3 38.01c0 3.69-2.99 6.68-6.69 6.68-2-4.47-2-8.92 0-13.38.68 0 1.33.1 1.95.29v-.91c0-1.49-.28-2.94-.83-4.31-1.9-4.74-6.27-6.43-9.73-6.43s-7.83 1.69-9.73 6.43c-.55 1.37-.83 2.82-.83 4.31v.91c.62-.19 1.27-.29 1.95-.29 2 4.46 2 8.91 0 13.38-3.7 0-6.69-2.99-6.69-6.68 0-1.73.65-3.3 1.74-4.49v-2.83c0-1.87.35-3.7 1.04-5.43 2.06-5.12 6.86-8.31 12.52-8.31 2.84 0 5.45.8 7.61 2.23 2.17 1.44 3.88 3.52 4.91 6.08.69 1.73 1.04 3.55 1.04 5.43v2.83c1.09 1.19 1.74 2.76 1.74 4.49z" fill="#e5e7ea"/><g fill="#6194c1"><path d="m23.499 31.587c1.838 4.276 1.838 8.543-.001 12.828.6.176 1.234.275 1.892.275 2-4.47 2-8.92 0-13.38-.659 0-1.289.098-1.891.277z"/><path d="m32 19.95c-3.46 0-7.83 1.69-9.73 6.43-.55 1.37-.83 2.82-.83 4.31v.91c.62-.19 1.27-.29 1.95-.29.019.042.031.085.05.127v-.747c0-1.49.28-2.94.83-4.31 1.721-4.294 5.468-6.08 8.73-6.379-.339-.031-.674-.051-1-.051z"/><path d="m42.56 31.437c-.022.05-.037.1-.059.149.019.006.04.007.059.013z"/><path d="m49.3 38.01c0-1.73-.65-3.3-1.74-4.49v-2.83c0-1.88-.35-3.7-1.04-5.43-1.03-2.56-2.74-4.64-4.91-6.08-2.16-1.43-4.77-2.23-7.61-2.23-.337 0-.67.013-1 .035 2.452.165 4.706.934 6.61 2.195 2.17 1.44 3.88 3.52 4.91 6.08.69 1.73 1.04 3.55 1.04 5.43v2.83c1.09 1.19 1.74 2.76 1.74 4.49 0 3.034-2.023 5.59-4.798 6.405.039.092.067.183.108.275 3.7 0 6.69-2.99 6.69-6.68z"/></g></g></svg>