<?xml version="1.0" encoding="iso-8859-1"?>
<!-- Generator: Adobe Illustrator 19.0.0, SVG Export Plug-In . SVG Version: 6.00 Build 0)  -->
<svg version="1.1" id="Capa_1" xmlns="http://www.w3.org/2000/svg" xmlns:xlink="http://www.w3.org/1999/xlink" x="0px" y="0px"
	 viewBox="0 0 512 512" style="enable-background:new 0 0 512 512;" xml:space="preserve">
<g style="opacity:0.08;">
	<path d="M129.051,512c-74.5,0-124.56-50.059-124.56-124.56V133.542c0-74.5,50.059-124.56,124.56-124.56h253.898
		c74.5,0,124.56,50.059,124.56,124.56V387.44c0,74.5-50.059,124.56-124.56,124.56H129.051z"/>
</g>
<linearGradient id="SVGID_1_" gradientUnits="userSpaceOnUse" x1="-15.0449" y1="581.5254" x2="-15.0449" y2="637.5254" gradientTransform="matrix(8.9825 0 0 -8.9825 391.1404 5726.5439)">
	<stop  offset="0" style="stop-color:#3871E9"/>
	<stop  offset="1" style="stop-color:#61C5F6"/>
</linearGradient>
<path style="fill:url(#SVGID_1_);" d="M129.051,503.018c-74.5,0-124.56-50.059-124.56-124.56V124.56C4.491,50.059,54.55,0,129.051,0
	h253.898c74.5,0,124.56,50.059,124.56,124.56v253.898c0,74.5-50.059,124.56-124.56,124.56H129.051z"/>
<linearGradient id="SVGID_2_" gradientUnits="userSpaceOnUse" x1="-11.0449" y1="590.5254" x2="-11.0449" y2="616.5254" gradientTransform="matrix(8.9825 0 0 -8.9825 391.1404 5726.5439)">
	<stop  offset="0" style="stop-color:#ECECEC"/>
	<stop  offset="1" style="stop-color:#FFFFFF"/>
</linearGradient>
<path style="fill:url(#SVGID_2_);" d="M175.158,422.175c-9.926,0-17.965-8.039-17.965-17.965V206.596
	c0-9.926,8.039-17.965,17.965-17.965h233.544c9.926,0,17.965,8.039,17.965,17.965v197.614c0,9.926-8.039,17.965-17.965,17.965
	H175.158z"/>
<linearGradient id="SVGID_3_" gradientUnits="userSpaceOnUse" x1="-11.0449" y1="607.5254" x2="-11.0449" y2="616.5254" gradientTransform="matrix(8.9825 0 0 -8.9825 391.1404 5726.5439)">
	<stop  offset="0" style="stop-color:#D0CFD1"/>
	<stop  offset="1" style="stop-color:#E6E5E7"/>
</linearGradient>
<path style="fill:url(#SVGID_3_);" d="M426.667,269.474H157.193v-62.877c0-9.926,8.039-17.965,17.965-17.965h233.544
	c9.926,0,17.965,8.039,17.965,17.965V269.474z"/>
<circle style="fill:#EC6B5F;" cx="193.123" cy="224.561" r="13.474"/>
<path style="fill:#D06055;" d="M193.123,215.579c4.958,0,8.982,4.024,8.982,8.982s-4.024,8.982-8.982,8.982
	c-4.958,0-8.982-4.024-8.982-8.982S188.164,215.579,193.123,215.579 M193.123,206.596c-9.908,0-17.965,8.057-17.965,17.965
	s8.057,17.965,17.965,17.965s17.965-8.057,17.965-17.965S203.03,206.596,193.123,206.596L193.123,206.596z"/>
<circle style="fill:#F4C150;" cx="247.018" cy="224.561" r="13.474"/>
<path style="fill:#D7A751;" d="M247.018,215.579c4.958,0,8.982,4.024,8.982,8.982s-4.024,8.982-8.982,8.982
	s-8.982-4.024-8.982-8.982S242.059,215.579,247.018,215.579 M247.018,206.596c-9.908,0-17.965,8.057-17.965,17.965
	s8.057,17.965,17.965,17.965s17.965-8.057,17.965-17.965S256.925,206.596,247.018,206.596L247.018,206.596z"/>
<circle style="fill:#67C655;" cx="300.912" cy="224.561" r="13.474"/>
<path style="fill:#5CB147;" d="M300.912,215.579c4.958,0,8.982,4.024,8.982,8.982s-4.024,8.982-8.982,8.982
	c-4.958,0-8.982-4.024-8.982-8.982S295.954,215.579,300.912,215.579 M300.912,206.596c-9.908,0-17.965,8.057-17.965,17.965
	s8.057,17.965,17.965,17.965s17.965-8.057,17.965-17.965S310.82,206.596,300.912,206.596L300.912,206.596z"/>
<g style="opacity:0.24;">
	<rect x="157.193" y="260.491" width="269.474" height="8.982"/>
</g>
<g style="opacity:0.24;">
	<path d="M408.702,179.649H175.158c-14.857,0-26.947,12.09-26.947,26.947v197.614c0,14.857,12.09,26.947,26.947,26.947h233.544
		c14.857,0,26.947-12.09,26.947-26.947V206.596C435.649,191.74,423.559,179.649,408.702,179.649z M426.667,404.211
		c0,9.926-8.039,17.965-17.965,17.965H175.158c-9.926,0-17.965-8.039-17.965-17.965V206.596c0-9.926,8.039-17.965,17.965-17.965
		h233.544c9.926,0,17.965,8.039,17.965,17.965V404.211z"/>
</g>
<linearGradient id="SVGID_4_" gradientUnits="userSpaceOnUse" x1="-19.0449" y1="602.5254" x2="-19.0449" y2="628.5254" gradientTransform="matrix(8.9825 0 0 -8.9825 391.1404 5726.5439)">
	<stop  offset="0" style="stop-color:#ECECEC"/>
	<stop  offset="1" style="stop-color:#FFFFFF"/>
</linearGradient>
<path style="fill:url(#SVGID_4_);" d="M103.298,314.386c-9.926,0-17.965-8.039-17.965-17.965V98.807
	c0-9.926,8.039-17.965,17.965-17.965h233.544c9.926,0,17.965,8.039,17.965,17.965v197.614c0,9.926-8.039,17.965-17.965,17.965
	H103.298z"/>
<linearGradient id="SVGID_5_" gradientUnits="userSpaceOnUse" x1="-19.0449" y1="619.5254" x2="-19.0449" y2="628.5254" gradientTransform="matrix(8.9825 0 0 -8.9825 391.1404 5726.5439)">
	<stop  offset="0" style="stop-color:#D0CFD1"/>
	<stop  offset="1" style="stop-color:#E6E5E7"/>
</linearGradient>
<path style="fill:url(#SVGID_5_);" d="M354.807,161.684H85.333V98.807c0-9.926,8.039-17.965,17.965-17.965h233.544
	c9.926,0,17.965,8.039,17.965,17.965V161.684z"/>
<circle style="fill:#EC6B5F;" cx="121.263" cy="116.772" r="13.474"/>
<path style="fill:#D06055;" d="M121.263,107.789c4.958,0,8.982,4.024,8.982,8.982c0,4.958-4.024,8.982-8.982,8.982
	c-4.958,0-8.982-4.024-8.982-8.982C112.281,111.814,116.305,107.789,121.263,107.789 M121.263,98.807
	c-9.908,0-17.965,8.057-17.965,17.965s8.057,17.965,17.965,17.965s17.965-8.057,17.965-17.965S131.171,98.807,121.263,98.807
	L121.263,98.807z"/>
<circle style="fill:#F4C150;" cx="175.158" cy="116.772" r="13.474"/>
<path style="fill:#D7A751;" d="M175.158,107.789c4.958,0,8.982,4.024,8.982,8.982c0,4.958-4.024,8.982-8.982,8.982
	s-8.982-4.024-8.982-8.982C166.175,111.814,170.2,107.789,175.158,107.789 M175.158,98.807c-9.908,0-17.965,8.057-17.965,17.965
	s8.057,17.965,17.965,17.965s17.965-8.057,17.965-17.965S185.066,98.807,175.158,98.807L175.158,98.807z"/>
<circle style="fill:#67C655;" cx="229.053" cy="116.772" r="13.474"/>
<path style="fill:#5CB147;" d="M229.053,107.789c4.958,0,8.982,4.024,8.982,8.982c0,4.958-4.024,8.982-8.982,8.982
	c-4.958,0-8.982-4.024-8.982-8.982C220.07,111.814,224.094,107.789,229.053,107.789 M229.053,98.807
	c-9.908,0-17.965,8.057-17.965,17.965s8.057,17.965,17.965,17.965s17.965-8.057,17.965-17.965S238.96,98.807,229.053,98.807
	L229.053,98.807z"/>
<g style="opacity:0.24;">
	<rect x="85.333" y="152.702" width="269.474" height="8.982"/>
</g>
<g style="opacity:0.24;">
	<path d="M336.842,71.86H103.298c-14.857,0-26.947,12.09-26.947,26.947v197.614c0,14.857,12.09,26.947,26.947,26.947h233.544
		c14.857,0,26.947-12.09,26.947-26.947V98.807C363.789,83.95,351.699,71.86,336.842,71.86z M354.807,296.421
		c0,9.926-8.039,17.965-17.965,17.965H103.298c-9.926,0-17.965-8.039-17.965-17.965V98.807c0-9.926,8.039-17.965,17.965-17.965
		h233.544c9.926,0,17.965,8.039,17.965,17.965V296.421z"/>
</g>
<g style="opacity:0.16;">
	
		<linearGradient id="SVGID_6_" gradientUnits="userSpaceOnUse" x1="-15.0449" y1="581.5254" x2="-15.0449" y2="637.5254" gradientTransform="matrix(8.9825 0 0 -8.9825 391.1404 5726.5439)">
		<stop  offset="0" style="stop-color:#000000"/>
		<stop  offset="0.06" style="stop-color:#000000;stop-opacity:0"/>
	</linearGradient>
	<path style="fill:url(#SVGID_6_);" d="M382.949,0H129.051C54.55,0,4.491,50.059,4.491,124.56v253.898
		c0,74.5,50.059,124.56,124.56,124.56h253.898c74.5,0,124.56-50.059,124.56-124.56V124.56C507.509,50.059,457.45,0,382.949,0z
		 M489.544,378.458c0,64.755-41.84,106.595-106.595,106.595H129.051c-64.755,0-106.595-41.84-106.595-106.595V124.56
		c0-64.755,41.84-106.595,106.595-106.595h253.898c64.755,0,106.595,41.84,106.595,106.595V378.458z"/>
</g>
<g style="opacity:0.16;">
	<path d="M382.949,0H129.051C54.55,0,4.491,50.059,4.491,124.56v253.898c0,74.5,50.059,124.56,124.56,124.56h253.898
		c74.5,0,124.56-50.059,124.56-124.56V124.56C507.509,50.059,457.45,0,382.949,0z M498.526,378.458
		c0,69.129-46.448,115.577-115.577,115.577H129.051c-69.129,0-115.577-46.448-115.577-115.577V124.56
		c0-69.129,46.448-115.577,115.577-115.577h253.898c69.129,0,115.577,46.448,115.577,115.577V378.458z"/>
</g>
<g>
</g>
<g>
</g>
<g>
</g>
<g>
</g>
<g>
</g>
<g>
</g>
<g>
</g>
<g>
</g>
<g>
</g>
<g>
</g>
<g>
</g>
<g>
</g>
<g>
</g>
<g>
</g>
<g>
</g>
</svg>
