<svg id="User_Interface" enable-background="new 0 0 64 64" height="512" viewBox="0 0 64 64" width="512" xmlns="http://www.w3.org/2000/svg"><g><path d="m51.88 47.02c-.82 2.26-2.6 4.04-4.86 4.86-10.01 3.67-20.03 3.67-30.04 0-2.26-.82-4.04-2.6-4.86-4.86-3.65-9.99-3.66-19.98-.03-29.97.84-2.3 2.66-4.09 4.97-4.9 10.49-3.68 20.51-3.7 30.05-.07 2.21.84 3.93 2.6 4.74 4.82 3.69 10.04 3.7 20.08.03 30.12z" fill="#ea5765"/><path d="m48.12 45.65c-.42 1.15-1.32 2.05-2.46 2.47-4.56 1.67-9.15 2.51-13.66 2.51s-9.1-.84-13.64-2.51c-1.16-.42-2.06-1.32-2.48-2.46-3.35-9.17-3.36-18.08-.03-27.24.43-1.17 1.35-2.08 2.53-2.5 4.83-1.69 9.59-2.55 14.15-2.55 4.47 0 8.89.83 13.16 2.45 1.11.42 1.99 1.32 2.4 2.45 3.39 9.22 3.4 18.17.03 27.38z" fill="#e5e7ea"/><path d="m44.67 35.01-2.38-1.9c-.15-.12-.33-.19-.51-.21.01-.22.02-.43.02-.63 0-1.05-.21-1.96-.6-2.73l3.28-1.85c.32-.18.51-.51.51-.87v-3.46c0-.55-.45-1-1-1s-1 .45-1 1v2.87l-2.81 1.59c-.07.04-.14.09-.19.14-.53-.48-1.17-.85-1.88-1.14.05-.24.07-.48.07-.72 0-.6-.13-1.17-.35-1.68v-3.21c0-1.08.88-1.96 1.96-1.96.55 0 1-.45 1-1s-.45-1-1-1c-2.18 0-3.96 1.78-3.96 3.96v1.13c-.55-.27-1.17-.42-1.83-.42s-1.28.15-1.83.42v-1.13c0-2.18-1.78-3.96-3.96-3.96-.55 0-1 .45-1 1s.45 1 1 1c1.08 0 1.96.88 1.96 1.96v3.21c-.22.51-.35 1.08-.35 1.68 0 .24.02.48.07.72-.72.28-1.36.66-1.89 1.13-.05-.05-.11-.09-.18-.13l-2.81-1.59v-2.87c0-.55-.45-1-1-1s-1 .45-1 1v3.46c0 .36.19.69.51.87l3.28 1.85c-.39.77-.6 1.68-.6 2.73 0 .2.01.41.02.63-.18.02-.36.09-.51.21l-2.38 1.9c-.72.57-1.13 1.42-1.13 2.34v2.33c0 .55.45 1 1 1s1-.45 1-1v-2.33c0-.3.14-.59.38-.78l1.96-1.56c.27 1.21.7 2.51 1.25 3.76-.1.05-.2.12-.29.2l-.46.47c-1.47 1.46-2.28 3.42-2.28 5.49 0 .55.45 1 1 1 .56 0 1-.45 1-1 0-1.54.6-2.99 1.69-4.08l.25-.24c1.4 2.44 3.25 4.32 5.3 4.32 2.04 0 3.91-1.89 5.3-4.33l.25.25c1.09 1.09 1.69 2.54 1.69 4.08 0 .55.44 1 1 1 .55 0 1-.45 1-1 0-2.07-.81-4.03-2.28-5.49l-.46-.47c-.09-.08-.19-.15-.29-.2.55-1.25.97-2.55 1.25-3.76l1.96 1.56c.24.19.38.48.38.78v2.33c0 .55.45 1 1 1s1-.45 1-1v-2.33c0-.92-.41-1.77-1.13-2.34z" fill="#d9dadb"/><g><g><path d="m43.8 37.35v2.33c0 .55-.45 1-1 1s-1-.45-1-1v-2.33c0-.3-.14-.59-.38-.78l-1.96-1.56c.16-.75.27-1.46.32-2.11.18.02.36.09.51.21l2.38 1.9c.72.57 1.13 1.42 1.13 2.34z" fill="#434953"/></g></g><path d="m39.8 32.27c0 .2-.01.41-.02.63-.05.65-.16 1.36-.32 2.11-.28 1.21-.7 2.51-1.25 3.76-.27.63-.58 1.25-.91 1.83-1.39 2.44-3.26 4.33-5.3 4.33-2.05 0-3.9-1.88-5.3-4.32-.33-.59-.64-1.2-.91-1.84-.55-1.25-.98-2.55-1.25-3.76-.16-.75-.27-1.46-.32-2.11-.01-.22-.02-.43-.02-.63 0-1.05.21-1.96.6-2.73.14-.31.32-.59.52-.86.2-.26.43-.5.68-.73.53-.47 1.17-.85 1.89-1.13.92-.38 1.98-.6 3.11-.69.33-.02.66-.03 1-.03s.67.01 1 .03c1.13.09 2.19.31 3.11.69.71.29 1.35.66 1.88 1.14.25.21.48.46.69.72.2.27.38.55.52.86.39.77.6 1.68.6 2.73z" fill="#ea5765"/><g><g><path d="m26.7 40.61-.25.24c-1.09 1.09-1.69 2.54-1.69 4.08 0 .55-.44 1-1 1-.55 0-1-.45-1-1 0-2.07.81-4.03 2.28-5.49l.46-.47c.09-.08.19-.15.29-.2.27.64.58 1.25.91 1.84z" fill="#434953"/></g></g><g><g><path d="m24.54 35.01-1.96 1.56c-.24.19-.38.48-.38.78v2.33c0 .55-.45 1-1 1s-1-.45-1-1v-2.33c0-.92.41-1.77 1.13-2.34l2.38-1.9c.15-.12.33-.19.51-.21.05.65.16 1.36.32 2.11z" fill="#434953"/></g></g><g><g><path d="m26 27.95c-.25.23-.48.47-.68.73-.2.27-.38.55-.52.86l-3.28-1.85c-.32-.18-.51-.51-.51-.87v-3.46c0-.55.45-1 1-1s1 .45 1 1v2.87l2.81 1.59c.07.04.13.08.18.13z" fill="#434953"/></g></g><g><g><path d="m41.24 44.93c0 .55-.45 1-1 1-.56 0-1-.45-1-1 0-1.54-.6-2.99-1.69-4.08l-.25-.25c.33-.58.64-1.2.91-1.83.1.05.2.12.29.2l.46.47c1.47 1.46 2.28 3.42 2.28 5.49z" fill="#434953"/></g></g><g><g><path d="m42.99 23.36v3.46c0 .36-.19.69-.51.87l-3.28 1.85c-.14-.31-.32-.59-.52-.86-.21-.26-.44-.51-.69-.72.05-.05.12-.1.19-.14l2.81-1.59v-2.87c0-.55.45-1 1-1s1 .45 1 1z" fill="#434953"/></g></g><g><g><path d="m30.17 21.21v2.13c-.37.18-.7.41-1 .68v.01c-.42.39-.77.86-1 1.39v-4.21c0-1.08-.88-1.96-1.96-1.96-.55 0-1-.45-1-1s.45-1 1-1c2.18 0 3.96 1.78 3.96 3.96z" fill="#434953"/></g></g><path d="m38.79 18.25c0 .55-.45 1-1 1-1.08 0-1.96.88-1.96 1.96v4.21c-.23-.53-.58-1-1-1.39v-.01c-.3-.27-.63-.5-1-.68v-2.13c0-2.18 1.78-3.96 3.96-3.96.55 0 1 .45 1 1z" fill="#434953"/><g><path d="m33 26.13v9.38c0 .56-.45 1-1 1-.56 0-1-.44-1-1v-9.38c.33-.02.66-.03 1-.03s.67.01 1 .03z" fill="#db5367"/></g><path d="m36.18 26.1c0 .24-.02.48-.07.72-.92-.38-1.98-.6-3.11-.69-.33-.02-.66-.03-1-.03s-.67.01-1 .03c-1.13.09-2.19.31-3.11.69-.05-.24-.07-.48-.07-.72 0-.6.13-1.17.35-1.68.23-.53.58-1 1-1.39v-.01c.3-.27.63-.5 1-.68.55-.27 1.17-.42 1.83-.42s1.28.15 1.83.42c.37.18.7.41 1 .68v.01c.42.39.77.86 1 1.39.22.51.35 1.08.35 1.68z" fill="#4c545e"/></g></svg>