<svg id="User_Interface" enable-background="new 0 0 64 64" height="512" viewBox="0 0 64 64" width="512" xmlns="http://www.w3.org/2000/svg"><g><path d="m51.88 47.02c-.82 2.26-2.6 4.04-4.86 4.86-10.01 3.67-20.03 3.67-30.04 0-2.26-.82-4.04-2.6-4.86-4.86-3.65-9.99-3.66-19.98-.03-29.97.84-2.3 2.66-4.09 4.97-4.9 10.49-3.68 20.51-3.7 30.05-.07 2.21.84 3.93 2.6 4.74 4.82 3.69 10.04 3.7 20.08.03 30.12z" fill="#434953"/><path d="m48.12 45.65c-.42 1.15-1.32 2.05-2.46 2.47-4.56 1.67-9.15 2.51-13.66 2.51s-9.1-.84-13.64-2.51c-1.16-.42-2.06-1.32-2.48-2.46-3.35-9.17-3.36-18.08-.03-27.24.43-1.17 1.35-2.08 2.53-2.5 4.83-1.69 9.59-2.55 14.15-2.55 4.47 0 8.89.83 13.16 2.45 1.11.42 1.99 1.32 2.4 2.45 3.39 9.22 3.4 18.17.03 27.38z" fill="#e5e7ea"/><g><g fill="#d9dadb"><path d="m36.68 34.778c-.636-.042-1.268-.146-1.88-.338l-.08.25-.664 1.456 1.374 1.374z"/><path d="m32.34 36.68s.053-.052.126-.124l-.996-.996c-.05.05-1.13 1.12-1.13 1.12l-.16 1.71-2.41.15.03 2.23-.848.848 1.918.082.93-.93-.03-2.23 2.41-.15z"/><path d="m24.55 43.11-1.415 1.415 1.935.065 1.48-1.48-.028-1.425-2.002-.085z"/></g></g><path d="m42.95 20.99c-3.16-3.17-8.29-3.17-11.45 0-2.46 2.46-3.01 6.11-1.63 9.1l-.22.05-2.59 1.01 1.58 1.58c-.13.12-9.04 9.03-9.04 9.03l-.13 2.71 3.6.12 1.48-1.48-.03-1.51 2.35.1.93-.93-.03-2.23 2.41-.15.16-1.71s1.08-1.07 1.13-1.12l1.96 1.96 1.29-2.83.08-.25c2.78.87 5.95.2 8.15-2 3.16-3.17 3.16-8.29 0-11.45zm-1.91 6.63c-.06.18-.2.32-.38.39-.72.26-1.44.39-2.14.39-.71 0-1.43-.13-2.14-.39-.18-.07-.32-.21-.39-.39-.53-1.43-.53-2.83 0-4.27.06-.18.21-.32.39-.39.76-.26 1.5-.4 2.22-.4.7 0 1.39.13 2.06.39.18.06.31.2.38.38.53 1.45.53 2.85 0 4.29z" fill="#fdcc58"/><path d="m44.95 20.99c-1.835-1.841-4.333-2.605-6.725-2.308 1.727.214 3.4.979 4.725 2.308 3.16 3.16 3.16 8.28 0 11.45-1.319 1.319-2.987 2.076-4.71 2.293 2.387.29 4.882-.465 6.71-2.293 3.16-3.17 3.16-8.29 0-11.45z" fill="#d9dadb"/><path d="m41.04 27.62c-.06.18-.2.32-.38.39-.72.26-1.44.39-2.14.39-.71 0-1.43-.13-2.14-.39-.18-.07-.32-.21-.39-.39-.53-1.43-.53-2.83 0-4.27.06-.18.21-.32.39-.39.76-.26 1.5-.4 2.22-.4.7 0 1.39.13 2.06.39.18.06.31.2.38.38.53 1.45.53 2.85 0 4.29z" fill="#d9dadb"/><path d="m40.66 22.95c-.348-.135-.702-.232-1.06-.296-.401.067-.807.165-1.22.306-.18.07-.33.21-.39.39-.53 1.44-.53 2.84 0 4.27.07.18.21.32.39.39.377.138.757.234 1.136.299.379-.065.761-.16 1.143-.299.18-.07.32-.21.38-.39.53-1.44.53-2.84 0-4.29-.069-.18-.199-.32-.379-.38z" fill="#e5e7ea"/><path d="m34.8 34.44-.08.25-1.29 2.83-1.96-1.96c-.05.05-1.13 1.12-1.13 1.12l-.16 1.71-2.41.15.03 2.23-.93.93-2.35-.1.03 1.51-1.48 1.48-3.6-.12.13-2.71s8.91-8.91 9.04-9.03l-1.58-1.58 2.59-1.01.22-.05c.39.85.93 1.65 1.63 2.35.96.96 2.09 1.62 3.3 2z" fill="#efbb54"/></g></svg>