<svg id="User_Interface" enable-background="new 0 0 64 64" height="512" viewBox="0 0 64 64" width="512" xmlns="http://www.w3.org/2000/svg"><g><path d="m51.88 47.02c-.82 2.26-2.6 4.04-4.86 4.86-10.01 3.67-20.03 3.67-30.04 0-2.26-.82-4.04-2.6-4.86-4.86-3.65-9.99-3.66-19.98-.03-29.97.84-2.3 2.66-4.09 4.97-4.9 10.49-3.68 20.51-3.7 30.05-.07 2.21.84 3.93 2.6 4.74 4.82 3.69 10.04 3.7 20.08.03 30.12z" fill="#6ea7db"/><path d="m48.12 45.65c-.42 1.15-1.32 2.05-2.46 2.47-4.56 1.67-9.15 2.51-13.66 2.51s-9.1-.84-13.64-2.51c-1.16-.42-2.06-1.32-2.48-2.46-3.35-9.17-3.36-18.08-.03-27.24.43-1.17 1.35-2.08 2.53-2.5 4.83-1.69 9.59-2.55 14.15-2.55 4.47 0 8.89.83 13.16 2.45 1.11.42 1.99 1.32 2.4 2.45 3.39 9.22 3.4 18.17.03 27.38z" fill="#6699d1"/><g fill="#e5e7ea"><path d="m35.67 32c0 2.03-1.64 3.67-3.67 3.67s-3.67-1.64-3.67-3.67 1.64-3.67 3.67-3.67 3.67 1.64 3.67 3.67z"/><path d="m24.33 32c0 2.03-1.64 3.67-3.66 3.67-2.03 0-3.67-1.64-3.67-3.67s1.64-3.67 3.67-3.67c2.02 0 3.66 1.64 3.66 3.67z"/><path d="m47 32c0 2.03-1.64 3.67-3.67 3.67-2.02 0-3.66-1.64-3.66-3.67s1.64-3.67 3.66-3.67c2.03 0 3.67 1.64 3.67 3.67z"/></g><path d="m35.67 32c0 1.859-1.38 3.374-3.17 3.62.165.023.329.05.5.05 2.03 0 3.67-1.64 3.67-3.67s-1.64-3.67-3.67-3.67c-.171 0-.335.028-.5.05 1.79.246 3.17 1.761 3.17 3.62z" fill="#6194c1"/><path d="m21.169 35.62c.165.023.329.05.501.05 2.02 0 3.66-1.64 3.66-3.67s-1.64-3.67-3.66-3.67c-.172 0-.336.028-.501.05 1.782.246 3.161 1.761 3.161 3.62 0 1.858-1.379 3.374-3.161 3.62z" fill="#6194c1"/><path d="m48 32c0-2.03-1.64-3.67-3.67-3.67-.171 0-.334.028-.499.05 1.79.246 3.169 1.762 3.169 3.62s-1.379 3.374-3.169 3.62c.165.023.328.05.499.05 2.03 0 3.67-1.64 3.67-3.67z" fill="#6194c1"/></g></svg>