<svg id="User_Interface" enable-background="new 0 0 64 64" height="512" viewBox="0 0 64 64" width="512" xmlns="http://www.w3.org/2000/svg"><g><path d="m51.88 47.02c-.82 2.26-2.6 4.04-4.86 4.86-10.01 3.67-20.03 3.67-30.04 0-2.26-.82-4.04-2.6-4.86-4.86-3.65-9.99-3.66-19.98-.03-29.97.84-2.3 2.66-4.09 4.97-4.9 10.49-3.68 20.51-3.7 30.05-.07 2.21.84 3.93 2.6 4.74 4.82 3.69 10.04 3.7 20.08.03 30.12z" fill="#6ea7db"/><path d="m48.12 45.65c-.42 1.15-1.32 2.05-2.46 2.47-4.56 1.67-9.15 2.51-13.66 2.51s-9.1-.84-13.64-2.51c-1.16-.42-2.06-1.32-2.48-2.46-3.35-9.17-3.36-18.08-.03-27.24.43-1.17 1.35-2.08 2.53-2.5 4.83-1.69 9.59-2.55 14.15-2.55 4.47 0 8.89.83 13.16 2.45 1.11.42 1.99 1.32 2.4 2.45 3.39 9.22 3.4 18.17.03 27.38z" fill="#6699d1"/><path d="m36.76 20.11v23.86c0 1.92-2.33 2.88-3.68 1.51l-8.04-8.18v.46h-3.88c-1.11 0-2-.89-2-2v-6.98c0-1.1.89-2 2-2h3.88l8.04-8.18c1.35-1.37 3.68-.41 3.68 1.51z" fill="#6194c1"/><g><g><path d="m40.749 35.75c-.195 0-.393-.057-.565-.176-.455-.313-.57-.935-.258-1.391.993-1.446.988-2.841-.015-4.39-.301-.463-.168-1.083.295-1.383.463-.301 1.082-.167 1.383.295 1.438 2.218 1.433 4.504-.015 6.61-.193.284-.507.435-.825.435z" fill="#6194c1"/></g></g><g><g><path d="m44.187 39.75c-.173 0-.348-.044-.507-.139-.476-.281-.634-.894-.354-1.37 2.312-3.917 2.303-8.017-.027-12.533-.253-.491-.061-1.094.43-1.347.493-.254 1.094-.061 1.348.43 2.634 5.104 2.625 9.972-.027 14.467-.188.316-.521.492-.863.492z" fill="#6194c1"/></g></g><path d="m35.76 20.11v23.86c0 1.92-2.33 2.88-3.68 1.51l-8.04-8.18v-10.52l8.04-8.18c1.35-1.37 3.68-.41 3.68 1.51z" fill="#e5e7ea"/><path d="m24.04 26.78v10.98h-3.88c-1.11 0-2-.89-2-2v-6.98c0-1.1.89-2 2-2z" fill="#434953"/><g><g><path d="m39.749 35.75c-.195 0-.393-.057-.565-.176-.455-.313-.57-.935-.258-1.391.993-1.446.988-2.841-.015-4.39-.301-.463-.168-1.083.295-1.383.463-.301 1.082-.167 1.383.295 1.438 2.218 1.433 4.504-.015 6.61-.193.284-.507.435-.825.435z" fill="#e5e7ea"/></g></g><g><g><path d="m43.187 39.75c-.173 0-.348-.044-.507-.139-.476-.281-.634-.894-.354-1.37 2.312-3.917 2.303-8.017-.027-12.533-.253-.491-.061-1.094.43-1.347.493-.254 1.094-.061 1.348.43 2.634 5.104 2.625 9.972-.027 14.467-.188.316-.521.492-.863.492z" fill="#e5e7ea"/></g></g></g></svg>