<?xml version="1.0" encoding="iso-8859-1"?>
<!-- Generator: Adobe Illustrator 19.0.0, SVG Export Plug-In . SVG Version: 6.00 Build 0)  -->
<svg version="1.1" id="Capa_1" xmlns="http://www.w3.org/2000/svg" xmlns:xlink="http://www.w3.org/1999/xlink" x="0px" y="0px"
	 viewBox="0 0 512 512" style="enable-background:new 0 0 512 512;" xml:space="preserve">
<g style="opacity:0.08;">
	<path d="M485.333,98.133H192c-25.762,0-25.225-42.667-55.467-42.667H26.667C11.938,55.467,0,67.405,0,82.133l0,0v366.933
		c0,8.841,7.159,16,16,16h480c8.841,0,16-7.159,16-16V124.8C512,110.071,500.062,98.133,485.333,98.133L485.333,98.133z"/>
</g>
<linearGradient id="SVGID_1_" gradientUnits="userSpaceOnUse" x1="-13.2578" y1="583.2109" x2="-13.2578" y2="631.2109" gradientTransform="matrix(8.5333 0 0 -8.5333 369.1334 5433.2671)">
	<stop  offset="0" style="stop-color:#ABDEFB"/>
	<stop  offset="1" style="stop-color:#B2E1FB"/>
</linearGradient>
<path style="fill:url(#SVGID_1_);" d="M485.333,89.6H192c-25.762,0-25.225-42.667-55.467-42.667H26.667
	C11.938,46.933,0,58.871,0,73.6v366.933c0,8.841,7.159,16,16,16h480c8.841,0,16-7.159,16-16V116.267
	C512,101.538,500.062,89.6,485.333,89.6L485.333,89.6z"/>
<linearGradient id="SVGID_2_" gradientUnits="userSpaceOnUse" x1="-13.2578" y1="583.2109" x2="-13.2578" y2="622.2109" gradientTransform="matrix(8.5333 0 0 -8.5333 369.1334 5433.2671)">
	<stop  offset="0" style="stop-color:#91D0F6"/>
	<stop  offset="1" style="stop-color:#81C8F3"/>
</linearGradient>
<path style="fill:url(#SVGID_2_);" d="M0,123.733h512l0,0v315.733c0,9.429-7.637,17.067-17.067,17.067H17.067
	C7.637,456.533,0,448.896,0,439.467V123.733L0,123.733z"/>
<g style="opacity:0.16;">
	<rect x="8.533" y="123.733" width="494.933" height="8.533"/>
</g>
<g style="opacity:0.16;">
	
		<linearGradient id="SVGID_3_" gradientUnits="userSpaceOnUse" x1="-13.2578" y1="583.2109" x2="-13.2578" y2="631.2109" gradientTransform="matrix(8.5333 0 0 -8.5333 369.1334 5433.2671)">
		<stop  offset="0" style="stop-color:#000000"/>
		<stop  offset="0.06" style="stop-color:#000000;stop-opacity:0"/>
	</linearGradient>
	<path style="fill:url(#SVGID_3_);" d="M485.333,89.6H192c-25.762,0-25.225-42.667-55.467-42.667H26.667
		C11.938,46.933,0,58.871,0,73.6v366.933c0,8.841,7.159,16,16,16h480c8.841,0,16-7.159,16-16V116.267
		C512,101.538,500.062,89.6,485.333,89.6L485.333,89.6z M494.933,439.467H17.067V73.6c0.009-5.299,4.301-9.591,9.6-9.6h109.867
		c5.265,0,8.081,2.62,15.872,14.763c7.125,11.11,17.903,27.904,39.595,27.904h293.333c5.299,0.009,9.591,4.301,9.6,9.6V439.467z"/>
</g>
<g style="opacity:0.16;">
	<path d="M485.333,89.6H192c-25.762,0-25.225-42.667-55.467-42.667H26.667C11.938,46.933,0,58.871,0,73.6v366.933
		c0,8.841,7.159,16,16,16h480c8.841,0,16-7.159,16-16V116.267C512,101.538,500.062,89.6,485.333,89.6L485.333,89.6z
		 M503.467,440.533c-0.009,4.122-3.345,7.458-7.467,7.467H16c-4.122-0.009-7.458-3.345-7.467-7.467V73.6
		c0.009-10.01,8.124-18.125,18.133-18.133h109.867c10.53,0,15.625,7.1,23.057,18.688c6.852,10.684,15.386,23.979,32.41,23.979
		h293.333c10.01,0.009,18.125,8.124,18.133,18.133V440.533z"/>
</g>
<g>
</g>
<g>
</g>
<g>
</g>
<g>
</g>
<g>
</g>
<g>
</g>
<g>
</g>
<g>
</g>
<g>
</g>
<g>
</g>
<g>
</g>
<g>
</g>
<g>
</g>
<g>
</g>
<g>
</g>
</svg>
