<?xml version="1.0" encoding="iso-8859-1"?>
<!-- Generator: Adobe Illustrator 19.0.0, SVG Export Plug-In . SVG Version: 6.00 Build 0)  -->
<svg version="1.1" id="Capa_1" xmlns="http://www.w3.org/2000/svg" xmlns:xlink="http://www.w3.org/1999/xlink" x="0px" y="0px"
	 viewBox="0 0 512 512" style="enable-background:new 0 0 512 512;" xml:space="preserve">
<g style="opacity:0.08;">
	<circle cx="256" cy="268.59" r="243.41"/>
</g>
<linearGradient id="SVGID_1_" gradientUnits="userSpaceOnUse" x1="-12.6621" y1="576.4395" x2="-12.6621" y2="636.4395" gradientTransform="matrix(8.3934 0 0 -8.3934 362.2788 5341.9175)">
	<stop  offset="0" style="stop-color:#F2F2F2"/>
	<stop  offset="1" style="stop-color:#FFFFFF"/>
</linearGradient>
<circle style="fill:url(#SVGID_1_);" cx="256" cy="251.803" r="251.803"/>
<g style="opacity:0.04;">
	
		<linearGradient id="SVGID_2_" gradientUnits="userSpaceOnUse" x1="-12.6621" y1="576.4395" x2="-12.6621" y2="636.4395" gradientTransform="matrix(8.3934 0 0 -8.3934 362.2788 5341.9175)">
		<stop  offset="0" style="stop-color:#000000"/>
		<stop  offset="0.36" style="stop-color:#000000;stop-opacity:0"/>
	</linearGradient>
	<path style="fill:url(#SVGID_2_);" d="M256,0C116.929,0,4.197,112.732,4.197,251.803S116.929,503.607,256,503.607
		s251.803-112.732,251.803-251.803S395.071,0,256,0z M256,486.82c-129.586,0-235.016-105.43-235.016-235.016
		S126.414,16.787,256,16.787s235.016,105.43,235.016,235.016S385.586,486.82,256,486.82z"/>
</g>
<g style="opacity:0.16;">
	<path d="M256,0C116.929,0,4.197,112.732,4.197,251.803S116.929,503.607,256,503.607s251.803-112.732,251.803-251.803
		S395.071,0,256,0z M256,495.213c-134.429,0-243.41-108.98-243.41-243.41S121.571,8.393,256,8.393s243.41,108.98,243.41,243.41
		S390.429,495.213,256,495.213z"/>
</g>
<linearGradient id="SVGID_3_" gradientUnits="userSpaceOnUse" x1="-12.667" y1="587.3195" x2="-12.667" y2="625.4395" gradientTransform="matrix(8.3934 0 0 -8.3934 362.2788 5341.9175)">
	<stop  offset="0" style="stop-color:#E9465D"/>
	<stop  offset="1" style="stop-color:#EB6ECC"/>
</linearGradient>
<path style="fill:url(#SVGID_3_);" d="M237.618,412.286c-0.856,0-1.721-0.26-2.459-0.806c-1.88-1.36-2.291-3.987-0.923-5.859
	c4.23-5.825,7.932-13.027,11.298-22.008c0.814-2.174,3.24-3.299,5.405-2.451c2.165,0.814,3.265,3.231,2.451,5.405
	c-3.643,9.694-7.688,17.542-12.372,23.988C240.195,411.69,238.911,412.286,237.618,412.286z M266.492,411.279
	c-0.63,0-1.276-0.143-1.88-0.445c-2.073-1.041-2.913-3.567-1.872-5.64c10.643-21.202,17.475-46.668,20.304-75.667
	c0.227-2.3,2.3-3.878,4.583-3.769c2.308,0.227,3.995,2.275,3.769,4.591c-2.929,30.023-10.047,56.479-21.16,78.613
	C269.505,410.431,268.028,411.279,266.492,411.279z M296.952,404.984c-0.613,0-1.242-0.143-1.838-0.428
	c-2.082-1.016-2.946-3.525-1.931-5.607c19.305-39.592,19.481-101.67,13.211-146.566c-4.356-30.938-24.14-50.94-50.394-50.94
	c-5.565,0-11.121,0.94-16.51,2.795c-2.199,0.764-4.574-0.411-5.33-2.602c-0.755-2.199,0.411-4.583,2.602-5.338
	c6.27-2.149,12.741-3.248,19.238-3.248c30.686,0,53.735,22.839,58.712,58.175c2.224,15.931,12.011,98.103-13.983,151.401
	C300.007,404.111,298.504,404.984,296.952,404.984z M211.422,404.48c-0.806,0-1.62-0.227-2.333-0.713
	c-1.922-1.293-2.434-3.903-1.142-5.825c26.532-39.474,20.161-93.092,16.359-125.129c-1.049-8.863-1.88-15.864-1.88-21.009
	c0-18.516,15.058-33.574,33.574-33.574c17.106,0,30.896,13.572,33.54,33.011c2.35,17.114,3.466,35.353,3.223,52.744
	c-0.034,2.317-2.165,4.18-4.255,4.138c-2.317-0.034-4.172-1.93-4.138-4.255c0.235-16.972-0.856-34.791-3.148-51.494
	c-1.746-12.817-10.215-25.751-25.222-25.751c-13.883,0-25.18,11.298-25.18,25.18c0,4.658,0.848,11.768,1.821,20.018
	c3.937,33.196,10.534,88.752-17.727,130.812C214.1,403.834,212.782,404.48,211.422,404.48z M187.258,394.995
	c-0.688,0-1.385-0.168-2.023-0.529c-2.031-1.125-2.77-3.676-1.645-5.708c22.906-41.455,18.902-79.1,15.687-109.341
	c-1.041-9.82-2.031-19.095-2.031-27.614c0-13.866,4.885-27.262,13.757-37.712c1.502-1.779,4.155-1.989,5.917-0.487
	c1.771,1.494,1.989,4.146,0.487,5.909c-7.588,8.947-11.768,20.413-11.768,32.29c0,8.074,0.965,17.131,1.981,26.733
	c3.332,31.417,7.495,70.513-16.695,114.294C190.17,394.215,188.735,394.995,187.258,394.995z M327.848,392.897
	c-0.462,0-0.932-0.076-1.393-0.235c-2.191-0.764-3.332-3.164-2.568-5.347c16.904-48.212,10.156-115.511,7.688-134.983
	c-0.99-7.638-2.694-14.949-5.078-21.714c-0.772-2.182,0.378-4.583,2.568-5.355c2.165-0.764,4.574,0.369,5.355,2.568
	c2.577,7.319,4.423,15.209,5.489,23.434c2.526,19.951,9.426,88.878-8.091,138.819C331.197,391.814,329.585,392.897,327.848,392.897z
	 M163.672,381.902c-0.772,0-1.561-0.21-2.266-0.663c-1.947-1.251-2.518-3.844-1.267-5.791c5.859-9.14,10.265-18.969,13.085-29.234
	c0.613-2.241,2.913-3.534,5.162-2.938c2.233,0.613,3.542,2.929,2.929,5.162c-3.047,11.079-7.798,21.689-14.109,31.534
	C166.4,381.222,165.049,381.902,163.672,381.902z M360.414,371.913c-0.319,0-0.646-0.034-0.974-0.117
	c-2.258-0.529-3.651-2.795-3.114-5.053c5.808-24.534,7.076-70.362,4.6-97.775c-4.239-46.424-24.786-84.329-56.37-103.995
	c-1.964-1.225-2.568-3.819-1.343-5.783c1.225-1.956,3.811-2.56,5.775-1.343c33.834,21.068,55.816,61.297,60.298,110.357
	c2.526,28.084,1.209,75.155-4.801,100.478C364.04,370.612,362.32,371.913,360.414,371.913z M256.344,364.108
	c-0.269,0-0.537-0.025-0.814-0.084c-2.275-0.445-3.752-2.652-3.307-4.927c6.018-30.51,5.892-68.373-0.361-106.614
	c-0.369-2.291,1.183-4.449,3.466-4.818c2.308-0.411,4.449,1.175,4.818,3.458c6.404,39.214,6.513,78.143,0.311,109.602
	C260.054,362.723,258.3,364.108,256.344,364.108z M143.696,363.016c-0.621,0-1.259-0.143-1.855-0.436
	c-2.082-1.024-2.929-3.542-1.905-5.624c15.897-32.147,12.38-57.646,9.275-80.149c-1.192-8.687-2.325-16.896-2.325-25.004
	c0-60.164,48.951-109.115,109.115-109.115c8.981,0,17.878,1.183,26.448,3.508c2.241,0.604,3.559,2.913,2.954,5.145
	c-0.604,2.233-2.929,3.542-5.145,2.954c-7.856-2.132-16.023-3.215-24.257-3.215c-55.539,0-100.721,45.182-100.721,100.721
	c0,7.529,1.091,15.469,2.249,23.863c3.265,23.695,6.967,50.554-10.072,85.017C146.726,362.152,145.24,363.016,143.696,363.016z
	 M125.902,344.131c-0.369,0-0.747-0.05-1.116-0.151c-2.241-0.621-3.55-2.938-2.929-5.162c7.487-27.111,5.053-42.991,2.468-59.803
	c-1.284-8.41-2.619-17.097-2.619-27.212c0-43.528,21.252-84.497,56.84-109.61c1.889-1.343,4.516-0.89,5.85,1.007
	c1.335,1.897,0.881,4.507-1.016,5.842c-33.364,23.552-53.282,61.96-53.282,102.761c0,9.476,1.225,17.475,2.526,25.944
	c2.602,16.946,5.279,34.455-2.678,63.303C129.435,342.906,127.748,344.131,125.902,344.131z M390.807,335.234
	c-0.101,0-0.193,0-0.302-0.008c-2.308-0.168-4.054-2.174-3.886-4.482c0.73-10.441,0.915-20.144,0.579-30.544
	c-0.076-2.317,1.737-4.264,4.054-4.339c2.073-0.059,4.247,1.729,4.331,4.054c0.353,10.693,0.159,20.673-0.596,31.408
	C394.836,333.547,392.989,335.234,390.807,335.234z M181.55,322.644c-0.059,0-0.118,0-0.176,0c-2.317-0.101-4.121-2.048-4.02-4.373
	c0.638-15.939-1.343-30.686-3.097-43.696c-1.167-8.763-2.191-16.334-2.191-22.771c0-46.281,37.653-83.934,83.934-83.934
	c25.315,0,47.885,11.474,63.538,32.315c1.393,1.863,1.016,4.49-0.839,5.875c-1.847,1.418-4.474,1.016-5.875-0.831
	c-14.025-18.675-34.212-28.966-56.824-28.966c-41.648,0-75.541,33.884-75.541,75.541c0,5.867,0.982,13.186,2.124,21.655
	c1.712,12.691,3.836,28.487,3.156,45.165C185.655,320.873,183.791,322.644,181.55,322.644z M107.856,302.751
	c-1.788,0-3.441-1.15-4.004-2.938c-4.86-15.461-7.327-31.618-7.327-48.01c0-15.217,2.115-30.132,6.295-44.326
	c0.655-2.216,2.98-3.492,5.212-2.837c2.233,0.655,3.5,2.98,2.837,5.212c-3.945,13.421-5.951,27.53-5.951,41.95
	c0,15.545,2.333,30.846,6.941,45.492c0.697,2.216-0.529,4.574-2.745,5.263C108.695,302.693,108.267,302.751,107.856,302.751z
	 M389.951,275.725c-2.149,0-3.978-1.637-4.18-3.819c-0.134-1.528-0.252-3.097-0.361-4.709l-0.311-4.046
	c-6.488-82.105-58.376-137.25-129.1-137.25c-16.266,0-32.004,3.03-46.768,9.015c-2.157,0.856-4.6-0.176-5.464-2.317
	c-0.873-2.149,0.168-4.591,2.317-5.464c15.771-6.387,32.567-9.627,49.916-9.627c75.365,0,130.61,58.25,137.468,144.963l0.671,8.679
	c0.21,2.308-1.494,4.356-3.802,4.558C390.211,275.716,390.085,275.725,389.951,275.725z M411.195,251.803
	c-2.266,0-4.13-1.805-4.197-4.079c-1.93-72.192-54.96-133.145-126.086-144.963c-2.283-0.378-3.836-2.543-3.45-4.826
	c0.369-2.275,2.501-3.853,4.826-3.45c75.079,12.464,131.064,76.817,133.103,153.004c0.059,2.317-1.763,4.247-4.088,4.314
	C411.27,251.803,411.237,251.803,411.195,251.803z M117.089,186.586c-0.63,0-1.267-0.143-1.872-0.445
	c-2.073-1.032-2.921-3.559-1.88-5.632C140.489,126.12,195.148,92.328,256,92.328h0.839c2.317,0,4.197,1.88,4.197,4.197
	s-1.88,4.197-4.197,4.197H256c-57.646,0-109.434,32.013-135.16,83.548C120.11,185.738,118.625,186.586,117.089,186.586z"/>
<g>
</g>
<g>
</g>
<g>
</g>
<g>
</g>
<g>
</g>
<g>
</g>
<g>
</g>
<g>
</g>
<g>
</g>
<g>
</g>
<g>
</g>
<g>
</g>
<g>
</g>
<g>
</g>
<g>
</g>
</svg>
