<svg id="User_Interface" enable-background="new 0 0 64 64" height="512" viewBox="0 0 64 64" width="512" xmlns="http://www.w3.org/2000/svg"><g><path d="m51.88 47.02c-.82 2.26-2.6 4.04-4.86 4.86-10.01 3.67-20.03 3.67-30.04 0-2.26-.82-4.04-2.6-4.86-4.86-3.65-9.99-3.66-19.98-.03-29.97.84-2.3 2.66-4.09 4.97-4.9 10.49-3.68 20.51-3.7 30.05-.07 2.21.84 3.93 2.6 4.74 4.82 3.69 10.04 3.7 20.08.03 30.12z" fill="#e5e7ea"/><path d="m48.12 45.65c-.42 1.15-1.32 2.05-2.46 2.47-4.56 1.67-9.15 2.51-13.66 2.51s-9.1-.84-13.64-2.51c-1.16-.42-2.06-1.32-2.48-2.46-3.35-9.17-3.36-18.08-.03-27.24.43-1.17 1.35-2.08 2.53-2.5 4.83-1.69 9.59-2.55 14.15-2.55 4.47 0 8.89.83 13.16 2.45 1.11.42 1.99 1.32 2.4 2.45 3.39 9.22 3.4 18.17.03 27.38z" fill="#d9dadb"/><path d="m47 30c0 .08 0 .17-.01.25h-12.99v-13.25c7.18 0 13 5.82 13 13z" fill="#ea5765"/><path d="m43.99 33.25c-.13 7.06-5.89 12.75-12.99 12.75-7.18 0-13-5.82-13-13s5.82-13 13-13v13.25z" fill="#fdcc58"/><g fill="#cecece"><path d="m31 33.25h1v-13.25c-.338 0-.669.025-1 .051z"/><path d="m31.503 45.975c.166.006.329.025.497.025 7.1 0 12.86-5.69 12.99-12.75h-1c-.127 6.891-5.622 12.462-12.487 12.725z"/></g><path d="m47 30c0 .08 0 .17-.01.25h-12.99v-13.25c7.18 0 13 5.82 13 13z" fill="#6699d1"/><path d="m47.99 30.25c.01-.08.01-.17.01-.25 0-7.18-5.82-13-13-13v.051c6.711.512 12 6.107 12 12.949 0 .08 0 .17-.01.25z" fill="#cecece"/></g></svg>