<svg id="User_Interface" enable-background="new 0 0 64 64" height="512" viewBox="0 0 64 64" width="512" xmlns="http://www.w3.org/2000/svg"><g><path d="m51.88 47.02c-.82 2.26-2.6 4.04-4.86 4.86-10.01 3.67-20.03 3.67-30.04 0-2.26-.82-4.04-2.6-4.86-4.86-3.65-9.99-3.66-19.98-.03-29.97.84-2.3 2.66-4.09 4.97-4.9 10.49-3.68 20.51-3.7 30.05-.07 2.21.84 3.93 2.6 4.74 4.82 3.69 10.04 3.7 20.08.03 30.12z" fill="#fdcc58"/><path d="m48.12 45.65c-.42 1.15-1.32 2.05-2.46 2.47-.75.27-1.49.52-2.24.75v-16.87h-22.84v16.87c-.74-.23-1.48-.48-2.22-.75-1.16-.42-2.06-1.32-2.48-2.46-3.35-9.17-3.36-18.08-.03-27.24.43-1.17 1.35-2.08 2.53-2.5.5-.17 1-.34 1.5-.49v10.07c0 1.1.9 2 2 2h11.01c1.1 0 2-.9 2-2v-12.05c.93.06 1.86.16 2.79.3.34.05.66.19.93.4l10.21 7.81c.36.28.63.68.73 1.12 1.83 7.54 1.35 14.97-1.43 22.57z" fill="#434953"/><path d="m32.53 13.37c-4.09 0-8.34.69-12.65 2.06v10.07c0 1.1.9 2 2 2h11.01c1.1 0 2-.9 2-2v-12.05c-.79-.06-1.57-.08-2.36-.08zm.04 10.48c0 .55-.44 1-1 1h-3.31c-.55 0-1-.45-1-1v-6.75c0-.55.45-1 1-1h3.31c.56 0 1 .45 1 1z" fill="#e5e7ea"/><path d="m20.58 32v16.87c3.81 1.17 7.65 1.76 11.42 1.76s7.6-.59 11.42-1.76v-16.87zm19.23 14.43h-15.62c-.55 0-1-.44-1-1 0-.55.45-1 1-1h15.62c.56 0 1 .45 1 1 0 .56-.44 1-1 1zm0-5h-15.62c-.55 0-1-.44-1-1 0-.55.45-1 1-1h15.62c.56 0 1 .45 1 1 0 .56-.44 1-1 1zm0-4.99h-15.62c-.55 0-1-.45-1-1 0-.56.45-1 1-1h15.62c.56 0 1 .44 1 1 0 .55-.44 1-1 1z" fill="#e5e7ea"/><path d="m32.57 17.1v6.75c0 .55-.44 1-1 1h-3.31c-.55 0-1-.45-1-1v-6.75c0-.55.45-1 1-1h3.31c.56 0 1 .45 1 1z" fill="#434953"/><g><path d="m40.81 35.44c0 .55-.44 1-1 1h-15.62c-.55 0-1-.45-1-1 0-.56.45-1 1-1h15.62c.56 0 1 .44 1 1z" fill="#434953"/></g><g><path d="m40.81 40.43c0 .56-.44 1-1 1h-15.62c-.55 0-1-.44-1-1 0-.55.45-1 1-1h15.62c.56 0 1 .45 1 1z" fill="#434953"/></g><g><path d="m40.81 45.43c0 .56-.44 1-1 1h-15.62c-.55 0-1-.44-1-1 0-.55.45-1 1-1h15.62c.56 0 1 .45 1 1z" fill="#434953"/></g></g></svg>