<?xml version="1.0" encoding="iso-8859-1"?>
<!-- Generator: Adobe Illustrator 19.0.0, SVG Export Plug-In . SVG Version: 6.00 Build 0)  -->
<svg version="1.1" id="Capa_1" xmlns="http://www.w3.org/2000/svg" xmlns:xlink="http://www.w3.org/1999/xlink" x="0px" y="0px"
	 viewBox="0 0 512 512" style="enable-background:new 0 0 512 512;" xml:space="preserve">
<g style="opacity:0.08;">
	<path d="M129.051,512c-74.5,0-124.56-50.059-124.56-124.56V133.542c0-74.5,50.059-124.56,124.56-124.56h253.898
		c74.5,0,124.56,50.059,124.56,124.56V387.44c0,74.5-50.059,124.56-124.56,124.56H129.051z"/>
</g>
<linearGradient id="SVGID_1_" gradientUnits="userSpaceOnUse" x1="-15.0449" y1="581.5254" x2="-15.0449" y2="637.5254" gradientTransform="matrix(8.9825 0 0 -8.9825 391.1404 5726.5439)">
	<stop  offset="0" style="stop-color:#F2F2F2"/>
	<stop  offset="1" style="stop-color:#FFFFFF"/>
</linearGradient>
<path style="fill:url(#SVGID_1_);" d="M129.051,503.018c-74.5,0-124.56-50.059-124.56-124.56V124.56C4.491,50.059,54.55,0,129.051,0
	h253.898c74.5,0,124.56,50.059,124.56,124.56v253.898c0,74.5-50.059,124.56-124.56,124.56H129.051z"/>
<g style="opacity:0.16;">
	
		<linearGradient id="SVGID_2_" gradientUnits="userSpaceOnUse" x1="-15.0449" y1="581.5254" x2="-15.0449" y2="637.5254" gradientTransform="matrix(8.9825 0 0 -8.9825 391.1404 5726.5439)">
		<stop  offset="0" style="stop-color:#000000"/>
		<stop  offset="0.06" style="stop-color:#000000;stop-opacity:0"/>
	</linearGradient>
	<path style="fill:url(#SVGID_2_);" d="M382.949,0H129.051C54.55,0,4.491,50.059,4.491,124.56v253.898
		c0,74.5,50.059,124.56,124.56,124.56h253.898c74.5,0,124.56-50.059,124.56-124.56V124.56C507.509,50.059,457.45,0,382.949,0z
		 M489.544,378.458c0,64.755-41.84,106.595-106.595,106.595H129.051c-64.755,0-106.595-41.84-106.595-106.595V124.56
		c0-64.755,41.84-106.595,106.595-106.595h253.898c64.755,0,106.595,41.84,106.595,106.595V378.458z"/>
</g>
<g style="opacity:0.16;">
	<path d="M382.949,0H129.051C54.55,0,4.491,50.059,4.491,124.56v253.898c0,74.5,50.059,124.56,124.56,124.56h253.898
		c74.5,0,124.56-50.059,124.56-124.56V124.56C507.509,50.059,457.45,0,382.949,0z M498.526,378.458
		c0,69.129-46.448,115.577-115.577,115.577H129.051c-69.129,0-115.577-46.448-115.577-115.577V124.56
		c0-69.129,46.448-115.577,115.577-115.577h253.898c69.129,0,115.577,46.448,115.577,115.577V378.458z"/>
</g>
<linearGradient id="SVGID_3_" gradientUnits="userSpaceOnUse" x1="-15.0449" y1="624.0254" x2="-15.0449" y2="593.0254" gradientTransform="matrix(8.9825 0 0 -8.9825 391.1404 5726.5439)">
	<stop  offset="0" style="stop-color:#3871E9"/>
	<stop  offset="1" style="stop-color:#61C5F6"/>
</linearGradient>
<path style="fill:url(#SVGID_3_);" d="M374.64,259.557c0.35,3.692-0.853,7.411-3.288,10.213l-11.704,13.438
	c-2.722,3.135-6.548,4.752-10.375,4.752c-2.847,0-5.713-0.907-8.102-2.767C316.542,266.096,287.097,256,256,256
	s-60.542,10.096-85.154,29.202c-5.623,4.339-13.743,3.476-18.495-1.994l-11.704-13.438c-2.434-2.803-3.638-6.521-3.288-10.213
	c0.341-3.647,2.084-6.89,4.931-9.126c32.678-25.735,71.985-39.343,113.709-39.343s81.031,13.608,113.709,39.352
	C372.556,252.676,374.299,255.91,374.64,259.557z M309.787,317.781c-15.782-11.039-34.385-16.869-53.787-16.869
	s-38.005,5.83-53.796,16.878c-3.099,2.165-5.138,5.578-5.596,9.36c-0.467,3.818,0.719,7.662,3.234,10.554l52.772,60.479
	c0.853,0.97,2.084,1.536,3.386,1.536c1.302,0,2.533-0.566,3.386-1.536l52.772-60.479c2.515-2.892,3.701-6.737,3.234-10.554
	C314.943,323.368,312.895,319.955,309.787,317.781z M428.894,182.91C380.317,143.162,318.913,121.263,256,121.263
	S131.683,143.162,83.097,182.91c-2.794,2.291-4.5,5.551-4.797,9.18c-0.305,3.647,0.898,7.321,3.306,10.078l11.812,13.528
	c2.641,3.018,6.333,4.572,10.069,4.572c3.018,0,6.072-1.006,8.623-3.081c40.547-32.903,91.648-51.02,143.89-51.02
	s103.343,18.118,143.89,51.011c5.722,4.662,13.941,3.97,18.684-1.482l11.821-13.528c0.009,0,0.009,0,0.009,0
	c2.407-2.758,3.602-6.431,3.297-10.078C433.404,188.461,431.697,185.2,428.894,182.91z"/>
<g>
</g>
<g>
</g>
<g>
</g>
<g>
</g>
<g>
</g>
<g>
</g>
<g>
</g>
<g>
</g>
<g>
</g>
<g>
</g>
<g>
</g>
<g>
</g>
<g>
</g>
<g>
</g>
<g>
</g>
</svg>
