<svg id="User_Interface" enable-background="new 0 0 64 64" height="512" viewBox="0 0 64 64" width="512" xmlns="http://www.w3.org/2000/svg"><g><path d="m51.88 47.02c-.82 2.26-2.6 4.04-4.86 4.86-10.01 3.67-20.03 3.67-30.04 0-2.26-.82-4.04-2.6-4.86-4.86-3.65-9.99-3.66-19.98-.03-29.97.84-2.3 2.66-4.09 4.97-4.9 10.49-3.68 20.51-3.7 30.05-.07 2.21.84 3.93 2.6 4.74 4.82 3.69 10.04 3.7 20.08.03 30.12z" fill="#6ea7db"/><path d="m48.12 45.65c-.42 1.15-1.32 2.05-2.46 2.47-4.56 1.67-9.15 2.51-13.66 2.51s-9.1-.84-13.64-2.51c-1.16-.42-2.06-1.32-2.48-2.46-3.35-9.17-3.36-18.08-.03-27.24.43-1.17 1.35-2.08 2.53-2.5 4.83-1.69 9.59-2.55 14.15-2.55 4.47 0 8.89.83 13.16 2.45 1.11.42 1.99 1.32 2.4 2.45 3.39 9.22 3.4 18.17.03 27.38z" fill="#6699d1"/><path d="m44.93 24-6.47 7.38-3.74 4.27v6.6l-5.44 3.72v-10.32l-3.74-4.27-6.47-7.38z" fill="#e5e7ea"/><path d="m44.93 24-6.47 7.38-3.74 4.27v6.6l-3.44 2.352v1.368l5.44-3.72v-6.6l3.74-4.27 6.47-7.38z" fill="#6194c1"/><path d="m19.07 20.75h25.86v3.25h-25.86z" fill="#434953"/><path d="m44.93 20.75h2v3.25h-2z" fill="#6194c1"/></g></svg>