<svg id="User_Interface" enable-background="new 0 0 64 64" height="512" viewBox="0 0 64 64" width="512" xmlns="http://www.w3.org/2000/svg"><g><path d="m51.88 47.02c-.82 2.26-2.6 4.04-4.86 4.86-10.01 3.67-20.03 3.67-30.04 0-2.26-.82-4.04-2.6-4.86-4.86-3.65-9.99-3.66-19.98-.03-29.97.84-2.3 2.66-4.09 4.97-4.9 10.49-3.68 20.51-3.7 30.05-.07 2.21.84 3.93 2.6 4.74 4.82 3.69 10.04 3.7 20.08.03 30.12z" fill="#4c545e"/><path d="m48.12 45.65c-.42 1.15-1.32 2.05-2.46 2.47-4.56 1.67-9.15 2.51-13.66 2.51s-9.1-.84-13.64-2.51c-1.16-.42-2.06-1.32-2.48-2.46-3.35-9.17-3.36-18.08-.03-27.24.43-1.17 1.35-2.08 2.53-2.5 4.83-1.69 9.59-2.55 14.15-2.55 4.47 0 8.89.83 13.16 2.45 1.11.42 1.99 1.32 2.4 2.45 3.39 9.22 3.4 18.17.03 27.38z" fill="#434953"/><path d="m42.23 36.76c-2.94 7.7-11.57 11.55-19.27 8.61-1.15-.44-2.23-1.02-3.2-1.7 13.43-5.19 16.88-14.21 10.34-27.05 1.18.14 2.36.43 3.52.88 7.7 2.94 11.55 11.56 8.61 19.26z" fill="#fdcc58"/><path d="m35.62 17.5c-1.16-.45-2.34-.74-3.52-.88.077.152.147.301.221.452.435.123.868.261 1.299.428 7.7 2.94 11.55 11.56 8.61 19.26-2.152 5.636-7.355 9.195-13.008 9.553 6.394.46 12.604-3.256 15.008-9.553 2.94-7.7-.91-16.32-8.61-19.26z" fill="#373d44"/></g></svg>