<svg id="User_Interface" enable-background="new 0 0 64 64" height="512" viewBox="0 0 64 64" width="512" xmlns="http://www.w3.org/2000/svg"><g><path d="m51.88 47.02c-.82 2.26-2.6 4.04-4.86 4.86-10.01 3.67-20.03 3.67-30.04 0-2.26-.82-4.04-2.6-4.86-4.86-3.65-9.99-3.66-19.98-.03-29.97.84-2.3 2.66-4.09 4.97-4.9 10.49-3.68 20.51-3.7 30.05-.07 2.21.84 3.93 2.6 4.74 4.82 3.69 10.04 3.7 20.08.03 30.12z" fill="#fdcc58"/><path d="m48.12 45.65c-.42 1.15-1.32 2.05-2.46 2.47-4.56 1.67-9.15 2.51-13.66 2.51s-9.1-.84-13.64-2.51c-1.16-.42-2.06-1.32-2.48-2.46-3.35-9.17-3.36-18.08-.03-27.24.43-1.17 1.35-2.08 2.53-2.5 4.83-1.69 9.59-2.55 14.15-2.55 4.47 0 8.89.83 13.16 2.45 1.11.42 1.99 1.32 2.4 2.45 3.39 9.22 3.4 18.17.03 27.38z" fill="#efbb54"/><path d="m44.34 23.29v17.69c0 1.99-5.5 3.63-12.31 3.63-6.82 0-12.32-1.64-12.32-3.63v-17.69c0-2.01 5.5-3.63 12.32-3.63 6.81 0 12.31 1.62 12.31 3.63z" fill="#e5e7ea"/><path d="m44.34 23.29c0 2-5.5 3.63-12.31 3.63-6.82 0-12.32-1.63-12.32-3.63 0-2.01 5.5-3.63 12.32-3.63 6.81 0 12.31 1.62 12.31 3.63z" fill="#f2f3f4"/><path d="m44.34 32.13v8.85c0 1.99-5.5 3.63-12.31 3.63-6.82 0-12.32-1.64-12.32-3.63v-8.85c0 2 5.5 3.63 12.32 3.63 6.81 0 12.31-1.63 12.31-3.63z" fill="#d9dadb"/><path d="m24.42 39.16c0 .64-.54 1.17-1.2 1.17s-1.2-.53-1.2-1.17c0-.65.54-1.18 1.2-1.18s1.2.53 1.2 1.18z" fill="#ea5765"/><g><g><path d="m44.34 36.71v2.59c-2.52 1.38-7.02 2.03-11.31 2.03-1.55 0-3.04-.08-4.44-.24-.55-.06-.95-.55-.88-1.1.06-.55.55-.94 1.1-.88 1.33.14 2.75.22 4.22.22 7.35 0 11.31-1.86 11.31-2.62z" fill="#9dcd6a"/></g></g><path d="m24.42 30.03c0 .65-.54 1.18-1.2 1.18s-1.2-.53-1.2-1.18c0-.64.54-1.17 1.2-1.17s1.2.53 1.2 1.17z" fill="#ea5765"/><g><g><path d="m44.34 27.36v2.6c-2.52 1.38-7.02 2.03-11.31 2.03-1.55 0-3.04-.08-4.44-.24-.55-.06-.95-.55-.88-1.1.06-.55.55-.95 1.1-.88 1.33.14 2.75.22 4.22.22 7.35 0 11.31-1.87 11.31-2.63z" fill="#9dcd6a"/></g></g></g></svg>