<svg id="User_Interface" enable-background="new 0 0 64 64" height="512" viewBox="0 0 64 64" width="512" xmlns="http://www.w3.org/2000/svg"><g><path d="m48.12 45.65c-.42 1.15-1.32 2.05-2.46 2.47-4.56 1.67-9.15 2.51-13.66 2.51s-9.1-.84-13.64-2.51c-1.16-.42-2.06-1.32-2.48-2.46-3.35-9.17-3.36-18.08-.03-27.24.43-1.17 1.35-2.08 2.53-2.5 4.83-1.69 9.59-2.55 14.15-2.55 4.47 0 8.89.83 13.16 2.45 1.11.42 1.99 1.32 2.4 2.45 3.39 9.22 3.4 18.17.03 27.38z" fill="#e5e7ea"/><path d="m51.85 16.9c-.81-2.22-2.53-3.98-4.74-4.82-4.4-1.67-8.91-2.58-13.52-2.7-.04.01-.08.01-.13 0-5.33-.12-10.8.8-16.4 2.77-2.31.81-4.13 2.6-4.97 4.9-3.63 9.99-3.62 19.98.03 29.97.82 2.26 2.6 4.04 4.86 4.86 5.32 1.95 10.64 2.86 15.96 2.74h.12c4.66-.12 9.31-1.03 13.96-2.74 2.26-.82 4.04-2.6 4.86-4.86 3.67-10.04 3.66-20.08-.03-30.12zm-17.9 2.66 5.02 3.71-5.02 3.7-2 1.48v-10.37zm-18.07 26.09c-3.36-9.16-3.36-18.07-.03-27.23.43-1.17 1.35-2.08 2.53-2.49 2.64-.93 5.26-1.6 7.83-2.03.4-.07.8-.01 1.14.15.71.31 1.21 1.03 1.19 1.88-.03 1.35-.06 3.14-.08 4.93-.03 2.33-.05 4.68-.07 6.14 0 .91-.01 1.47-.01 1.47l-5.29-3.91c-.02-.02-.05-.03-.07-.04-.78-.53-1.86-.36-2.43.42-.58.79-.42 1.91.38 2.5l6.18 4.56-6.18 4.57c-.8.58-.96 1.7-.38 2.49.35.48.89.73 1.44.73.34 0 .69-.1.99-.31.02-.01.05-.02.07-.04l5.29-3.91s.01.56.01 1.47c.03 2.6.08 8.03.17 11.14.03.85-.48 1.58-1.19 1.89-.33.15-.71.21-1.1.15-2.64-.4-5.29-1.09-7.92-2.05-1.15-.43-2.05-1.33-2.47-2.48zm16.07.28v-10.38l2 1.48 5.02 3.7-5.02 3.72zm3.73 3.21c-.41-.83.03-1.53.68-2.03 1.49-1.15 3.03-2.25 4.54-3.37.94-.69 2.88-1.63 2.86-3.01-.01-1.29-1.57-2.06-2.48-2.73-2.7-2-5.41-4-8.11-6l4.53-3.36c1.65-1.22 3.31-2.43 4.95-3.66 1.35-1.01 1.38-2.4.02-3.42-1.76-1.32-3.53-2.61-5.3-3.92-.5-.37-1.15-.72-1.56-1.2-.91-1.08.08-2.66 1.44-2.44.35.05.7.1 1.05.16 1.8.26 3.6.58 5.37 1.04 1.84.47 3.57 1.06 4.37 2.94 1.85 4.3 2.62 9.36 2.6 14.01-.02 4.28-.81 8.52-2.19 12.57-.6 1.74-1.39 2.93-3.19 3.55-1.71.58-3.51.94-5.28 1.25-.42.07-.95.22-1.51.33-1.11.22-2.3.29-2.79-.71z" fill="#6699d1"/><path d="m51.85 16.9c-.81-2.22-2.53-3.98-4.74-4.82-4.4-1.67-8.91-2.58-13.52-2.7-.04.01-.08.01-.13 0-4.69.13-9.5 1.05-14.4 2.77-2.31.81-4.13 2.6-4.97 4.9-3.63 9.99-3.62 19.98.03 29.97.82 2.26 2.6 4.04 4.86 4.86 4.65 1.71 9.3 2.62 13.96 2.74h.12c4.66-.12 9.31-1.03 13.96-2.74 2.26-.82 4.04-2.6 4.86-4.86 3.67-10.04 3.66-20.08-.03-30.12zm-17.9 1.18 7.02 5.19-7.02 5.18zm-5.68 32.1c-.3-.05-.6-.09-.9-.15-.33.15-.71.21-1.1.15-2.64-.4-5.29-1.09-7.92-2.05-1.15-.43-2.05-1.33-2.47-2.48-3.36-9.16-3.36-18.07-.03-27.23.43-1.17 1.35-2.08 2.53-2.49 2.64-.93 5.26-1.6 7.83-2.03.4-.07.8-.01 1.14.15.29-.05.58-.1.86-.15 1.24-.2 2.36.77 2.33 2.03-.03 1.35-.06 3.14-.08 4.93-.05 3.78-.08 7.61-.08 7.61l-1.99-1.47-3.3-2.44c-.62-.46-1.45-.45-2.07-.04-.16.11-.31.25-.43.42-.58.79-.42 1.91.38 2.5l6.18 4.56-6.18 4.57c-.8.58-.96 1.7-.38 2.49.12.17.27.31.43.42.3.2.65.31 1.01.31.37 0 .74-.12 1.06-.35l3.3-2.44 1.99-1.47s.06 8.41.18 12.61c.04 1.25-1.06 2.23-2.29 2.04zm5.68-14.63 7.02 5.18-7.02 5.2zm16.5 9.17c-.6 1.74-1.39 2.93-3.19 3.55-1.71.58-3.51.94-5.28 1.25-.93.17-2.49.72-3.51.33-.34-.12-.61-.34-.79-.71-.41-.83.03-1.53.68-2.03 1.49-1.15 3.03-2.25 4.54-3.37.94-.69 2.88-1.63 2.86-3.01-.01-1.29-1.57-2.06-2.48-2.73-2.7-2-5.41-4-8.11-6l4.53-3.36c1.65-1.22 3.31-2.43 4.95-3.66 1.35-1.01 1.38-2.4.02-3.42-1.76-1.32-3.53-2.61-5.3-3.92-.5-.37-1.15-.72-1.56-1.2-.68-.8-.3-1.88.49-2.28.28-.15.6-.22.95-.16 2.15.3 4.31.65 6.42 1.2 1.84.47 3.57 1.06 4.37 2.94 1.85 4.3 2.62 9.36 2.6 14.01-.02 4.28-.81 8.52-2.19 12.57z" fill="#d9dadb"/><path d="m51.85 16.9c-.81-2.22-2.53-3.98-4.74-4.82-4.4-1.67-8.91-2.58-13.52-2.7-.04.01-.08.01-.13 0-5.33-.12-10.8.8-16.4 2.77-2.31.81-4.13 2.6-4.97 4.9-3.63 9.99-3.62 19.98.03 29.97.82 2.26 2.6 4.04 4.86 4.86 5.32 1.95 10.64 2.86 15.96 2.74h.12c4.66-.12 9.31-1.03 13.96-2.74 2.26-.82 4.04-2.6 4.86-4.86 3.67-10.04 3.66-20.08-.03-30.12zm-17.9 2.66 5.02 3.71-5.02 3.7-2 1.48v-10.37zm-18.07 26.09c-3.36-9.16-3.36-18.07-.03-27.23.43-1.17 1.35-2.08 2.53-2.49 2.64-.93 5.26-1.6 7.83-2.03.4-.07.8-.01 1.14.15.71.31 1.21 1.03 1.19 1.88-.03 1.35-.06 3.14-.08 4.93-.03 2.33-.05 4.68-.07 6.14 0 .91-.01 1.47-.01 1.47l-5.29-3.91c-.02-.02-.05-.03-.07-.04-.78-.53-1.86-.36-2.43.42-.58.79-.42 1.91.38 2.5l6.18 4.56-6.18 4.57c-.8.58-.96 1.7-.38 2.49.35.48.89.73 1.44.73.34 0 .69-.1.99-.31.02-.01.05-.02.07-.04l5.29-3.91s.01.56.01 1.47c.03 2.6.08 8.03.17 11.14.03.85-.48 1.58-1.19 1.89-.33.15-.71.21-1.1.15-2.64-.4-5.29-1.09-7.92-2.05-1.15-.43-2.05-1.33-2.47-2.48zm16.07.28v-10.38l2 1.48 5.02 3.7-5.02 3.72zm3.73 3.21c-.41-.83.03-1.53.68-2.03 1.49-1.15 3.03-2.25 4.54-3.37.94-.69 2.88-1.63 2.86-3.01-.01-1.29-1.57-2.06-2.48-2.73-2.7-2-5.41-4-8.11-6l4.53-3.36c1.65-1.22 3.31-2.43 4.95-3.66 1.35-1.01 1.38-2.4.02-3.42-1.76-1.32-3.53-2.61-5.3-3.92-.5-.37-1.15-.72-1.56-1.2-.91-1.08.08-2.66 1.44-2.44.35.05.7.1 1.05.16 1.8.26 3.6.58 5.37 1.04 1.84.47 3.57 1.06 4.37 2.94 1.85 4.3 2.62 9.36 2.6 14.01-.02 4.28-.81 8.52-2.19 12.57-.6 1.74-1.39 2.93-3.19 3.55-1.71.58-3.51.94-5.28 1.25-.42.07-.95.22-1.51.33-1.11.22-2.3.29-2.79-.71z" fill="#6699d1"/></g></svg>