<?xml version="1.0" encoding="iso-8859-1"?>
<!-- Generator: Adobe Illustrator 19.0.0, SVG Export Plug-In . SVG Version: 6.00 Build 0)  -->
<svg version="1.1" id="Capa_1" xmlns="http://www.w3.org/2000/svg" xmlns:xlink="http://www.w3.org/1999/xlink" x="0px" y="0px"
	 viewBox="0 0 512 512" style="enable-background:new 0 0 512 512;" xml:space="preserve">
<g style="opacity:0.08;">
	<path d="M129.051,8.982h253.898c68.788,0,124.56,55.772,124.56,124.56V387.44c0,68.788-55.772,124.56-124.56,124.56H129.051
		c-68.788,0-124.56-55.772-124.56-124.56V133.542C4.491,64.755,60.263,8.982,129.051,8.982z"/>
</g>
<linearGradient id="SVGID_1_" gradientUnits="userSpaceOnUse" x1="-15.0449" y1="581.5254" x2="-15.0449" y2="637.5254" gradientTransform="matrix(8.9825 0 0 -8.9825 391.1404 5726.5439)">
	<stop  offset="0" style="stop-color:#F2F2F2"/>
	<stop  offset="1" style="stop-color:#FFFFFF"/>
</linearGradient>
<path style="fill:url(#SVGID_1_);" d="M129.051,0h253.898c68.788,0,124.56,55.772,124.56,124.56v253.898
	c0,68.788-55.772,124.56-124.56,124.56H129.051c-68.788,0-124.56-55.772-124.56-124.56V124.56C4.491,55.772,60.263,0,129.051,0z"/>
<g style="opacity:0.16;">
	
		<linearGradient id="SVGID_2_" gradientUnits="userSpaceOnUse" x1="-15.0449" y1="581.5254" x2="-15.0449" y2="637.5254" gradientTransform="matrix(8.9825 0 0 -8.9825 391.1404 5726.5439)">
		<stop  offset="0" style="stop-color:#000000"/>
		<stop  offset="0.06" style="stop-color:#000000;stop-opacity:0"/>
	</linearGradient>
	<path style="fill:url(#SVGID_2_);" d="M382.949,0H129.051C54.55,0,4.491,50.059,4.491,124.56v253.898
		c0,74.5,50.059,124.56,124.56,124.56h253.898c74.5,0,124.56-50.059,124.56-124.56V124.56C507.509,50.059,457.45,0,382.949,0z
		 M489.544,378.458c0,64.755-41.84,106.595-106.595,106.595H129.051c-64.755,0-106.595-41.84-106.595-106.595V124.56
		c0-64.755,41.84-106.595,106.595-106.595h253.898c64.755,0,106.595,41.84,106.595,106.595V378.458z"/>
</g>
<g style="opacity:0.16;">
	<path d="M382.949,0H129.051C54.55,0,4.491,50.059,4.491,124.56v253.898c0,74.5,50.059,124.56,124.56,124.56h253.898
		c74.5,0,124.56-50.059,124.56-124.56V124.56C507.509,50.059,457.45,0,382.949,0z M498.526,378.458
		c0,69.129-46.448,115.577-115.577,115.577H129.051c-69.129,0-115.577-46.448-115.577-115.577V124.56
		c0-69.129,46.448-115.577,115.577-115.577h253.898c69.129,0,115.577,46.448,115.577,115.577V378.458z"/>
</g>
<linearGradient id="SVGID_3_" gradientUnits="userSpaceOnUse" x1="-33.0473" y1="609.5254" x2="2.9561" y2="609.5254" gradientTransform="matrix(8.9825 0 0 -8.9825 391.1404 5726.5439)">
	<stop  offset="0" style="stop-color:#91DCF7"/>
	<stop  offset="1" style="stop-color:#3B81F4"/>
</linearGradient>
<path style="fill:url(#SVGID_3_);" d="M363.529,234.218c0.099-1.716,0.26-3.422,0.26-5.165
	c0.036-47.095-38.113-85.297-85.208-85.333c-30.01-0.018-57.82,15.728-73.234,41.481c-6.494-3.593-13.788-5.506-21.208-5.551
	c-24.801,0-44.912,20.112-44.912,44.912c0,1.293,0.269,2.506,0.377,3.773c-35.139,12.171-53.76,50.526-41.58,85.666
	c9.396,27.127,34.951,45.316,63.659,45.299h193.123c34.708,0.027,62.859-28.097,62.886-62.796
	C417.711,265.126,394.599,238.547,363.529,234.218z"/>
<linearGradient id="SVGID_4_" gradientUnits="userSpaceOnUse" x1="-8.9947" y1="599.5756" x2="0.9048" y2="609.4752" gradientTransform="matrix(8.9825 0 0 -8.9825 391.1404 5726.5439)">
	<stop  offset="0" style="stop-color:#3B81F4;stop-opacity:0"/>
	<stop  offset="1" style="stop-color:#3B81F4"/>
</linearGradient>
<circle style="opacity:0.25;fill:url(#SVGID_4_);enable-background:new    ;" cx="354.807" cy="296.421" r="62.877"/>
<linearGradient id="SVGID_5_" gradientUnits="userSpaceOnUse" x1="-5.808" y1="608.3206" x2="-40.358" y2="627.3206" gradientTransform="matrix(8.9825 0 0 -8.9825 391.1404 5726.5439)">
	<stop  offset="0" style="stop-color:#3B81F4;stop-opacity:0"/>
	<stop  offset="1" style="stop-color:#3B81F4"/>
</linearGradient>
<circle style="opacity:0.25;fill:url(#SVGID_5_);enable-background:new    ;" cx="278.456" cy="229.053" r="85.333"/>
<linearGradient id="SVGID_6_" gradientUnits="userSpaceOnUse" x1="-19.5081" y1="608.9911" x2="-26.5817" y2="616.0597" gradientTransform="matrix(8.9825 0 0 -8.9825 391.1404 5726.5439)">
	<stop  offset="0" style="stop-color:#A2DDF6;stop-opacity:0"/>
	<stop  offset="1" style="stop-color:#A2DDF6"/>
</linearGradient>
<circle style="opacity:0.5;fill:url(#SVGID_6_);enable-background:new    ;" cx="184.14" cy="224.561" r="44.912"/>
<linearGradient id="SVGID_7_" gradientUnits="userSpaceOnUse" x1="-20.2409" y1="599.7228" x2="-30.849" y2="610.3279" gradientTransform="matrix(8.9825 0 0 -8.9825 391.1404 5726.5439)">
	<stop  offset="0" style="stop-color:#8BD6F6;stop-opacity:0"/>
	<stop  offset="1" style="stop-color:#8FD9F7"/>
</linearGradient>
<circle style="opacity:0.25;fill:url(#SVGID_7_);enable-background:new    ;" cx="161.684" cy="291.93" r="67.368"/>
<g>
</g>
<g>
</g>
<g>
</g>
<g>
</g>
<g>
</g>
<g>
</g>
<g>
</g>
<g>
</g>
<g>
</g>
<g>
</g>
<g>
</g>
<g>
</g>
<g>
</g>
<g>
</g>
<g>
</g>
</svg>
