<svg id="User_Interface" enable-background="new 0 0 64 64" height="512" viewBox="0 0 64 64" width="512" xmlns="http://www.w3.org/2000/svg"><g><path d="m51.88 47.02c-.82 2.26-2.6 4.04-4.86 4.86-10.01 3.67-20.03 3.67-30.04 0-2.26-.82-4.04-2.6-4.86-4.86-3.65-9.99-3.66-19.98-.03-29.97.84-2.3 2.66-4.09 4.97-4.9 10.49-3.68 20.51-3.7 30.05-.07 2.21.84 3.93 2.6 4.74 4.82 3.69 10.04 3.7 20.08.03 30.12z" fill="#62ccae"/><path d="m48.12 45.65c-.42 1.15-1.32 2.05-2.46 2.47-4.56 1.67-9.15 2.51-13.66 2.51s-9.1-.84-13.64-2.51c-1.16-.42-2.06-1.32-2.48-2.46-3.35-9.17-3.36-18.08-.03-27.24.43-1.17 1.35-2.08 2.53-2.5 4.83-1.69 9.59-2.55 14.15-2.55 4.47 0 8.89.83 13.16 2.45 1.11.42 1.99 1.32 2.4 2.45 3.39 9.22 3.4 18.17.03 27.38z" fill="#5ac0a6"/><g><g><path d="m34.828 18.942v1.494c1.564.161 3.072.611 4.185 1.768.882.917 2.037 2.639 1.25 3.922-.711 1.16-2.421 1.062-3.036-.112-.293-.558-.354-1.167-.74-1.686-.413-.554-1.007-.926-1.659-1.139v5.756c1.485.407 3.1.783 4.319 1.776 1.318 1.074 2.019 2.648 2.019 4.34 0 3.603-2.937 5.955-6.338 6.241v2.58c0 .815.259 2.611-1.007 2.412-1.284-.202-.75-4.006-.75-4.965-1.703-.189-3.389-.789-4.641-1.995-1.033-.995-2.291-2.98-1.658-4.474.698-1.646 2.822-1.296 3.385.189.604 1.593 1.124 2.91 2.914 3.416v-6.434c-3.29-.908-6.146-2.532-5.878-6.389.225-3.236 2.861-4.945 5.878-5.207 0-.607-.127-1.387.054-1.975.367-1.188 1.703-.593 1.703.482zm-1.758 9.492v-5.3c-1.339.399-2.465 1.106-2.463 2.629.002 1.527 1.158 2.193 2.463 2.671zm1.758 4.11v6.061c1.551-.307 2.911-1.393 2.92-3.086.009-1.737-1.447-2.507-2.92-2.975z" fill="#51a58b"/></g></g><g><g><path d="m32.828 18.942v1.494c1.564.161 3.072.611 4.185 1.768.882.917 2.037 2.639 1.25 3.922-.711 1.16-2.421 1.062-3.036-.112-.293-.558-.354-1.167-.74-1.686-.413-.554-1.007-.926-1.659-1.139v5.756c1.485.407 3.1.783 4.319 1.776 1.318 1.074 2.019 2.648 2.019 4.34 0 3.603-2.937 5.955-6.338 6.241v2.58c0 .815.259 2.611-1.007 2.412-1.284-.202-.75-4.006-.75-4.965-1.703-.189-3.389-.789-4.641-1.995-1.033-.995-2.291-2.98-1.658-4.474.698-1.646 2.822-1.296 3.385.189.604 1.593 1.124 2.91 2.914 3.416v-6.434c-3.29-.908-6.146-2.532-5.878-6.389.225-3.236 2.861-4.945 5.878-5.207 0-.607-.127-1.387.054-1.975.367-1.188 1.703-.593 1.703.482zm-1.758 9.492v-5.3c-1.339.399-2.465 1.106-2.463 2.629.002 1.527 1.158 2.193 2.463 2.671zm1.758 4.11v6.061c1.551-.307 2.911-1.393 2.92-3.086.009-1.737-1.447-2.507-2.92-2.975z" fill="#e5e7ea"/></g></g></g></svg>