<?xml version="1.0" encoding="iso-8859-1"?>
<!-- Generator: Adobe Illustrator 19.0.0, SVG Export Plug-In . SVG Version: 6.00 Build 0)  -->
<svg version="1.1" id="Capa_1" xmlns="http://www.w3.org/2000/svg" xmlns:xlink="http://www.w3.org/1999/xlink" x="0px" y="0px"
	 viewBox="0 0 512 512" style="enable-background:new 0 0 512 512;" xml:space="preserve">
<g style="opacity:0.08;">
	<path d="M129.051,512c-74.5,0-124.56-50.059-124.56-124.56V133.542c0-74.5,50.059-124.56,124.56-124.56h253.898
		c74.5,0,124.56,50.059,124.56,124.56V387.44c0,74.5-50.059,124.56-124.56,124.56H129.051z"/>
</g>
<linearGradient id="SVGID_1_" gradientUnits="userSpaceOnUse" x1="-15.0449" y1="581.5254" x2="-15.0449" y2="637.5254" gradientTransform="matrix(8.9825 0 0 -8.9825 391.1404 5726.5439)">
	<stop  offset="0" style="stop-color:#2D2A2A"/>
	<stop  offset="1" style="stop-color:#544F4F"/>
</linearGradient>
<path style="fill:url(#SVGID_1_);" d="M129.051,503.018c-74.5,0-124.56-50.059-124.56-124.56V124.56C4.491,50.059,54.55,0,129.051,0
	h253.898c74.5,0,124.56,50.059,124.56,124.56v253.898c0,74.5-50.059,124.56-124.56,124.56H129.051z"/>
<g style="opacity:0.16;">
	
		<linearGradient id="SVGID_2_" gradientUnits="userSpaceOnUse" x1="-15.0449" y1="581.5254" x2="-15.0449" y2="637.5254" gradientTransform="matrix(8.9825 0 0 -8.9825 391.1404 5726.5439)">
		<stop  offset="0" style="stop-color:#000000"/>
		<stop  offset="0.06" style="stop-color:#000000;stop-opacity:0"/>
	</linearGradient>
	<path style="fill:url(#SVGID_2_);" d="M382.949,0H129.051C54.55,0,4.491,50.059,4.491,124.56v253.898
		c0,74.5,50.059,124.56,124.56,124.56h253.898c74.5,0,124.56-50.059,124.56-124.56V124.56C507.509,50.059,457.45,0,382.949,0z
		 M489.544,378.458c0,64.755-41.84,106.595-106.595,106.595H129.051c-64.755,0-106.595-41.84-106.595-106.595V124.56
		c0-64.755,41.84-106.595,106.595-106.595h253.898c64.755,0,106.595,41.84,106.595,106.595V378.458z"/>
</g>
<g style="opacity:0.24;">
	<path d="M382.949,0H129.051C54.55,0,4.491,50.059,4.491,124.56v253.898c0,74.5,50.059,124.56,124.56,124.56h253.898
		c74.5,0,124.56-50.059,124.56-124.56V124.56C507.509,50.059,457.45,0,382.949,0z M498.526,378.458
		c0,69.129-46.448,115.577-115.577,115.577H129.051c-69.129,0-115.577-46.448-115.577-115.577V124.56
		c0-69.129,46.448-115.577,115.577-115.577h253.898c69.129,0,115.577,46.448,115.577,115.577V378.458z"/>
</g>
<linearGradient id="SVGID_3_" gradientUnits="userSpaceOnUse" x1="-15.0449" y1="594.5254" x2="-15.0449" y2="624.5254" gradientTransform="matrix(8.9825 0 0 -8.9825 391.1404 5726.5439)">
	<stop  offset="0" style="stop-color:#E0E0E0"/>
	<stop  offset="1" style="stop-color:#FFFFFF"/>
</linearGradient>
<path style="fill:url(#SVGID_3_);" d="M417.684,143.719v143.719c0,14.857-12.09,26.947-26.947,26.947h-51.739
	c-4.967,0-8.982-4.015-8.982-8.982s4.015-8.982,8.982-8.982h51.739c4.958,0,8.982-4.024,8.982-8.982V143.719
	c0-4.958-4.024-8.982-8.982-8.982H121.263c-4.958,0-8.982,4.024-8.982,8.982v143.719c0,4.958,4.024,8.982,8.982,8.982h51.739
	c4.967,0,8.982,4.015,8.982,8.982s-4.015,8.982-8.982,8.982h-51.739c-14.857,0-26.947-12.09-26.947-26.947V143.719
	c0-14.857,12.09-26.947,26.947-26.947h269.474C405.594,116.772,417.684,128.862,417.684,143.719z M262.908,263.716
	c-3.422-4.087-10.384-4.087-13.806,0l-89.825,107.789c-2.228,2.686-2.713,6.413-1.231,9.557c1.473,3.162,4.644,5.183,8.129,5.183
	h179.649c3.485,0,6.656-2.021,8.129-5.174c1.482-3.153,0.997-6.881-1.231-9.557L262.908,263.716z"/>
<g>
</g>
<g>
</g>
<g>
</g>
<g>
</g>
<g>
</g>
<g>
</g>
<g>
</g>
<g>
</g>
<g>
</g>
<g>
</g>
<g>
</g>
<g>
</g>
<g>
</g>
<g>
</g>
<g>
</g>
</svg>
