<svg id="User_Interface" enable-background="new 0 0 64 64" height="512" viewBox="0 0 64 64" width="512" xmlns="http://www.w3.org/2000/svg"><g><path d="m48.12 45.65c-.42 1.15-1.32 2.05-2.46 2.47-4.56 1.67-9.15 2.51-13.66 2.51s-9.1-.84-13.64-2.51c-1.16-.42-2.06-1.32-2.48-2.46-3.35-9.17-3.36-18.08-.03-27.24.43-1.17 1.35-2.08 2.53-2.5 4.83-1.69 9.59-2.55 14.15-2.55 4.47 0 8.89.83 13.16 2.45 1.11.42 1.99 1.32 2.4 2.45 3.39 9.22 3.4 18.17.03 27.38z" fill="#e5e7ea"/><path d="m29.94 47.85c-.92-2.87-6.83-21.18-6.83-21.18l-.34-1.07c-.21-.66-.82-1.07-1.47-1.07-.16 0-.32.02-.48.07-.203.065-.383.169-.536.3.216.18.394.41.486.7l.34 1.07s5.91 18.31 6.83 21.18c.53 1.62 2.02 2.76 3.72 2.78h.34c.443 0 .887-.015 1.331-.031-1.56-.154-2.896-1.236-3.391-2.749z" fill="#d9dadb"/><path d="m27.669 40.878c-1.062-3.168-2.09-6.231-3.114-9.295-.505-1.511-.981-3.032-1.529-4.527 2.781-1.561 5.743-2.588 8.883-3.035 2.105-.3 4.229-.467 6.337-.753 2.525-.342 4.85-1.149 6.649-3.278.287.89.533 1.654.779 2.418 1.177 3.645 2.346 7.293 3.545 10.931.145.441.042.701-.251 1.012-1.669 1.779-3.821 2.469-6.149 2.794-3.004.42-6.038.708-8.997 1.344-1.869.402-3.624 1.335-5.428 2.035-.219.086-.423.206-.725.354z" fill="#d9dadb"/><path d="m25.669 40.878c-1.062-3.168-2.09-6.231-3.114-9.295-.505-1.511-.981-3.032-1.529-4.527 2.781-1.561 5.743-2.588 8.883-3.035 2.105-.3 4.229-.467 6.337-.753 2.525-.342 4.85-1.149 6.649-3.278.287.89.533 1.654.779 2.418 1.177 3.645 2.346 7.293 3.545 10.931.145.441.042.701-.251 1.012-1.669 1.779-3.821 2.469-6.149 2.794-3.004.42-6.038.708-8.997 1.344-1.869.402-3.624 1.335-5.428 2.035-.219.086-.423.206-.725.354z" fill="#ea5765"/><path d="m51.85 16.9c-.81-2.22-2.53-3.98-4.74-4.82-9.54-3.63-19.56-3.61-30.05.07-2.31.81-4.13 2.6-4.97 4.9-3.63 9.99-3.62 19.98.03 29.97.82 2.26 2.6 4.04 4.86 4.86 10.01 3.67 20.03 3.67 30.04 0 2.26-.82 4.04-2.6 4.86-4.86 3.67-10.04 3.66-20.08-.03-30.12zm-3.73 28.75c-.42 1.15-1.32 2.05-2.46 2.47-4.56 1.67-9.15 2.51-13.66 2.51h-.34c-1.7-.02-3.19-1.16-3.72-2.78-.92-2.87-6.83-21.18-6.83-21.18l-.34-1.07c-.21-.66-.82-1.07-1.47-1.07-.16 0-.32.02-.48.07-.81.26-1.26 1.13-1 1.95l6.5 20.15c.49 1.51-.89 2.96-2.42 2.55-1.18-.32-2.36-.7-3.54-1.13-1.16-.42-2.06-1.32-2.48-2.46-2.9-7.93-3.3-15.67-1.2-23.54.33-1.23.72-2.46 1.17-3.7.43-1.17 1.35-2.08 2.53-2.5 4.83-1.69 9.59-2.55 14.15-2.55 4.47 0 8.89.83 13.16 2.45 1.11.42 1.99 1.32 2.4 2.45 3.39 9.22 3.4 18.17.03 27.38z" fill="#434953"/></g></svg>