<svg id="User_Interface" enable-background="new 0 0 64 64" height="512" viewBox="0 0 64 64" width="512" xmlns="http://www.w3.org/2000/svg"><g><path d="m51.88 47.02c-.82 2.26-2.6 4.04-4.86 4.86-10.01 3.67-20.03 3.67-30.04 0-2.26-.82-4.04-2.6-4.86-4.86-3.65-9.99-3.66-19.98-.03-29.97.84-2.3 2.66-4.09 4.97-4.9 10.49-3.68 20.51-3.7 30.05-.07 2.21.84 3.93 2.6 4.74 4.82 3.69 10.04 3.7 20.08.03 30.12z" fill="#62ccae"/><path d="m48.12 45.65c-.42 1.15-1.32 2.05-2.46 2.47-4.56 1.67-9.15 2.51-13.66 2.51s-9.1-.84-13.64-2.51c-1.16-.42-2.06-1.32-2.48-2.46-3.35-9.17-3.36-18.08-.03-27.24.43-1.17 1.35-2.08 2.53-2.5 4.83-1.69 9.59-2.55 14.15-2.55 4.47 0 8.89.83 13.16 2.45 1.11.42 1.99 1.32 2.4 2.45 3.39 9.22 3.4 18.17.03 27.38z" fill="#5ac0a6"/><path d="m46.32 21.13-7.81 6.84 2.07 2.07c.24.25.17.61-.14.62l-6.86.24c-.25.01-.49-.23-.48-.48l.24-6.86c.01-.31.37-.38.62-.14l2.22 2.22 6.84-7.81c.12-.13.37-.1.53.07l2.7 2.7c.17.16.2.4.07.53z" fill="#e5e7ea"/><g fill="#57b59a"><path d="m48.25 20.6-2.7-2.7c-.16-.17-.41-.2-.53-.07l-.719.821 1.949 1.949c.17.16.2.4.07.53l-7.81 6.84 2.07 2.07c.24.25.17.61-.14.62l-5.081.178c.069.038.143.065.221.062l6.86-.24c.31-.01.38-.37.14-.62l-2.07-2.07 7.81-6.84c.13-.13.1-.37-.07-.53z"/><path d="m35.34 23.56-.042 1.198.882.882.934-1.066-1.154-1.154c-.25-.24-.61-.17-.62.14z"/></g><path d="m30.9 33.58-.24 6.86c-.01.31-.37.38-.62.14l-2.22-2.22-6.84 7.81c-.12.13-.37.1-.53-.07l-2.7-2.7c-.17-.16-.2-.4-.07-.53l7.81-6.84-2.07-2.07c-.24-.25-.17-.61.14-.62l6.86-.24c.25-.01.49.23.48.48z" fill="#e5e7ea"/><g fill="#57b59a"><path d="m22.98 46.17 5.906-6.744-1.066-1.066-6.121 6.989.751.751c.16.17.41.2.53.07z"/><path d="m32.04 40.58c.25.24.61.17.62-.14l.24-6.86c.01-.25-.23-.49-.48-.48l-1.779.062c.152.084.266.246.259.418l-.198 5.662z"/></g></g></svg>