<svg id="User_Interface" enable-background="new 0 0 64 64" height="512" viewBox="0 0 64 64" width="512" xmlns="http://www.w3.org/2000/svg"><g><path d="m48.12 45.65c-.42 1.15-1.32 2.05-2.46 2.47-4.56 1.67-9.15 2.51-13.66 2.51s-9.1-.84-13.64-2.51c-1.16-.42-2.06-1.32-2.48-2.46-3.35-9.17-3.36-18.08-.03-27.24.43-1.17 1.35-2.08 2.53-2.5 4.83-1.69 9.59-2.55 14.15-2.55 4.47 0 8.89.83 13.16 2.45 1.11.42 1.99 1.32 2.4 2.45 3.39 9.22 3.4 18.17.03 27.38z" fill="#e5e7ea"/><g><g><path d="m33 18.32v2.64c0 .55-.45 1-1 1s-1-.45-1-1v-2.64c.33-.03.66-.04 1-.04s.67.01 1 .04z" fill="#fdcc58"/></g></g><g><g fill="#9dcd6a"><path d="m20.03 21.46c-.04.04-.08.08-.12.12.02-.03.05-.06.07-.08s.03-.03.05-.04z"/><path d="m24 25.52c-.19.2-.45.3-.7.3-.26 0-.52-.1-.71-.3l-1.84-1.84c.41-.52.87-1.01 1.36-1.47l1.89 1.9c.39.39.39 1.02 0 1.41z"/></g></g><g><g><path d="m21.23 32.73c0 .55-.44 1-1 1h-3.68c.55 0 1-.45 1-1 0-.34.01-.67.04-1h2.64c.56 0 1 .44 1 1z" fill="#5ac0a6"/></g></g><path d="m48.45 32.73c0 .55-.45 1-1 1s-1-.45-1-1c0-.34-.01-.67-.04-1-.2-3.04-1.35-5.82-3.16-8.05-.41-.52-.87-1.01-1.36-1.47-2.35-2.22-5.46-3.66-8.89-3.89-.33-.03-.66-.04-1-.04s-.67.01-1 .04c-3.43.23-6.54 1.67-8.89 3.89-.49.46-.95.95-1.36 1.47-1.81 2.23-2.96 5.01-3.16 8.05-.03.33-.04.66-.04 1 0 .55-.45 1-1 1s-1-.45-1-1c0-4.29 1.66-8.22 4.36-11.15.04-.04.08-.08.12-.12 3-3.19 7.26-5.18 11.97-5.18s8.97 1.99 11.97 5.18l.12.12c2.7 2.93 4.36 6.86 4.36 11.15z" fill="#434953"/><path d="m47.45 33.73h-3.68c-.56 0-1-.45-1-1 0-.56.44-1 1-1h2.64c.03.33.04.66.04 1 0 .55.45 1 1 1z" fill="#ea5765"/><g><g fill="#f16d53"><path d="m43.25 23.68-1.84 1.84c-.19.19-.45.29-.7.29-.26 0-.51-.1-.71-.29-.39-.39-.39-1.02 0-1.41l1.89-1.9c.49.46.95.95 1.36 1.47z"/><path d="m44.09 21.58c-.04-.04-.08-.08-.12-.12.02.01.03.02.05.04s.05.05.07.08z"/></g></g><g><g fill="#d9dadb"><path d="m31 18.32c-3.43.23-6.54 1.67-8.89 3.89l1.89 1.9c.39.39.39 1.02 0 1.41-.059.063-.134.098-.205.141.156.095.326.159.505.159.25 0 .51-.1.7-.3.39-.39.39-1.02 0-1.41l-1.89-1.9c2.119-2.002 4.858-3.36 7.89-3.778z"/><path d="m21.321 24.251-.571-.571c-1.81 2.23-2.96 5.01-3.16 8.05h1c.183-2.788 1.173-5.352 2.731-7.479z"/><path d="m33 18.32v2.64c0 .364-.207.671-.5.846.149.089.314.154.5.154.55 0 1-.45 1-1v-2.528c-.331-.046-.662-.089-1-.112z"/><path d="m20.23 33.73h1c.56 0 1-.45 1-1 0-.56-.44-1-1-1h-1c.56 0 1 .44 1 1 0 .55-.44 1-1 1z"/><path d="m42.41 25.52 1.269-1.269c-.141-.192-.279-.386-.429-.571l-1.84 1.84c-.059.059-.133.093-.203.134.157.092.324.156.503.156.25 0 .51-.1.7-.29z"/><path d="m47.45 33.73h1c.55 0 1-.45 1-1 0-4.29-1.66-8.22-4.36-11.15-.02-.03-.05-.06-.07-.08s-.03-.03-.05-.04c-3-3.19-7.26-5.18-11.97-5.18-.169 0-.332.021-.5.026 4.509.137 8.578 2.078 11.47 5.154.02.01.03.02.05.04s.05.05.07.08c2.7 2.93 4.36 6.86 4.36 11.15 0 .55-.45 1-1 1z"/></g></g><path d="m36.77 45.26-.12-1.52c-.19-3.31-1.31-15.49-2.65-15.49-.35 0-.69.85-1 2.16.11.45.21.97.31 1.52.61 3.55 1.09 9.19 1.29 12.01z" fill="#d9dadb"/><path d="m34.66 43.96c-.82-.34-1.72-.52-2.66-.52s-1.84.18-2.66.52l.01-.22c.19-3.31 1.31-15.49 2.65-15.49s2.46 12.18 2.65 15.49z" fill="#ea5765"/><path d="m51.85 16.9c-.81-2.22-2.53-3.98-4.74-4.82-9.54-3.63-19.56-3.61-30.05.07-2.31.81-4.13 2.6-4.97 4.9-3.63 9.99-3.62 19.98.03 29.97.82 2.26 2.6 4.04 4.86 4.86 10.01 3.67 20.03 3.67 30.04 0 2.26-.82 4.04-2.6 4.86-4.86 3.67-10.04 3.66-20.08-.03-30.12zm-3.73 28.75c-.42 1.15-1.32 2.05-2.46 2.47-1.5.55-3.01 1.01-4.51 1.38-1.01.24-2.03-.32-2.38-1.3-.69-1.94-2.2-3.49-4.11-4.24-.82-.34-1.72-.52-2.66-.52s-1.84.18-2.66.52c-1.91.75-3.42 2.3-4.11 4.24-.35.98-1.36 1.54-2.38 1.29-1.5-.36-3-.82-4.49-1.37-1.16-.42-2.06-1.32-2.48-2.46-3.35-9.17-3.36-18.08-.03-27.24.43-1.17 1.35-2.08 2.53-2.5 1.21-.42 2.42-.8 3.63-1.12 3.58-.95 7.11-1.43 10.52-1.43 4.47 0 8.89.83 13.16 2.45 1.11.42 1.99 1.32 2.4 2.45 3.39 9.22 3.4 18.17.03 27.38z" fill="#434953"/></g></svg>