<?xml version="1.0" encoding="iso-8859-1"?>
<!-- Generator: Adobe Illustrator 19.0.0, SVG Export Plug-In . SVG Version: 6.00 Build 0)  -->
<svg version="1.1" id="Capa_1" xmlns="http://www.w3.org/2000/svg" xmlns:xlink="http://www.w3.org/1999/xlink" x="0px" y="0px"
	 viewBox="0 0 512 512" style="enable-background:new 0 0 512 512;" xml:space="preserve">
<g style="opacity:0.08;">
	<path d="M129.051,512c-74.5,0-124.56-50.059-124.56-124.56V133.542c0-74.5,50.059-124.56,124.56-124.56h253.898
		c74.5,0,124.56,50.059,124.56,124.56V387.44c0,74.5-50.059,124.56-124.56,124.56H129.051z"/>
</g>
<linearGradient id="SVGID_1_" gradientUnits="userSpaceOnUse" x1="-15.0449" y1="581.5254" x2="-15.0449" y2="637.5254" gradientTransform="matrix(8.9825 0 0 -8.9825 391.1404 5726.5439)">
	<stop  offset="0" style="stop-color:#3FBD2D"/>
	<stop  offset="1" style="stop-color:#87EA4A"/>
</linearGradient>
<path style="fill:url(#SVGID_1_);" d="M129.051,503.018c-74.5,0-124.56-50.059-124.56-124.56V124.56C4.491,50.059,54.55,0,129.051,0
	h253.898c74.5,0,124.56,50.059,124.56,124.56v253.898c0,74.5-50.059,124.56-124.56,124.56H129.051z"/>
<g style="opacity:0.16;">
	
		<linearGradient id="SVGID_2_" gradientUnits="userSpaceOnUse" x1="-15.0449" y1="581.5254" x2="-15.0449" y2="637.5254" gradientTransform="matrix(8.9825 0 0 -8.9825 391.1404 5726.5439)">
		<stop  offset="0" style="stop-color:#000000"/>
		<stop  offset="0.06" style="stop-color:#000000;stop-opacity:0"/>
	</linearGradient>
	<path style="fill:url(#SVGID_2_);" d="M382.949,0H129.051C54.55,0,4.491,50.059,4.491,124.56v253.898
		c0,74.5,50.059,124.56,124.56,124.56h253.898c74.5,0,124.56-50.059,124.56-124.56V124.56C507.509,50.059,457.45,0,382.949,0z
		 M489.544,378.458c0,64.755-41.84,106.595-106.595,106.595H129.051c-64.755,0-106.595-41.84-106.595-106.595V124.56
		c0-64.755,41.84-106.595,106.595-106.595h253.898c64.755,0,106.595,41.84,106.595,106.595V378.458z"/>
</g>
<g style="opacity:0.16;">
	<path d="M382.949,0H129.051C54.55,0,4.491,50.059,4.491,124.56v253.898c0,74.5,50.059,124.56,124.56,124.56h253.898
		c74.5,0,124.56-50.059,124.56-124.56V124.56C507.509,50.059,457.45,0,382.949,0z M498.526,378.458
		c0,69.129-46.448,115.577-115.577,115.577H129.051c-69.129,0-115.577-46.448-115.577-115.577V124.56
		c0-69.129,46.448-115.577,115.577-115.577h253.898c69.129,0,115.577,46.448,115.577,115.577V378.458z"/>
</g>
<linearGradient id="SVGID_3_" gradientUnits="userSpaceOnUse" x1="-15.0449" y1="590.5256" x2="-15.0449" y2="628.5254" gradientTransform="matrix(8.9825 0 0 -8.9825 391.1404 5726.5439)">
	<stop  offset="0" style="stop-color:#E5F6E2"/>
	<stop  offset="1" style="stop-color:#FFFFFF"/>
</linearGradient>
<path style="fill:url(#SVGID_3_);" d="M256,80.842c-104.179,0-188.632,70.378-188.632,157.193
	c0,49.754,28.331,95.133,71.114,122.844c3.925,2.542,9.988,7.069,12.863,11.677c2.892,4.572,3.207,10.024,1.258,15.549
	c-1.904,5.515-5.389,10.797-9.189,15.791c-3.853,4.994-8.12,9.764-12.513,14.435l0,0c-0.494,0.494-0.781,1.249-0.656,1.994
	c0.207,1.213,1.365,2.03,2.578,1.814c15.405-2.416,30.316-6.8,44.472-13.617c8.336-4.087,16.537-9.279,23.507-15.944
	c2.201-2.111,5.192-3.072,8.165-2.425c15.055,3.252,30.774,5.075,47.032,5.075c104.179,0,188.632-70.378,188.632-157.193
	S360.179,80.842,256,80.842z"/>
<g>
</g>
<g>
</g>
<g>
</g>
<g>
</g>
<g>
</g>
<g>
</g>
<g>
</g>
<g>
</g>
<g>
</g>
<g>
</g>
<g>
</g>
<g>
</g>
<g>
</g>
<g>
</g>
<g>
</g>
</svg>
