<svg id="User_Interface" enable-background="new 0 0 64 64" height="512" viewBox="0 0 64 64" width="512" xmlns="http://www.w3.org/2000/svg"><g><path d="m48.12 45.65c-.42 1.15-1.32 2.05-2.46 2.47-4.56 1.67-9.15 2.51-13.66 2.51s-9.1-.84-13.64-2.51c-1.16-.42-2.06-1.32-2.48-2.46-3.35-9.17-3.36-18.08-.03-27.24.43-1.17 1.35-2.08 2.53-2.5 4.83-1.69 9.59-2.55 14.15-2.55 4.47 0 8.89.83 13.16 2.45 1.11.42 1.99 1.32 2.4 2.45 3.39 9.22 3.4 18.17.03 27.38z" fill="#e5e7ea"/><path d="m35.28 35.78-7.12 3.84-4.3 2.32-2.82 1.52 3.84-7.12 3.84-7.12z" fill="#434953"/><path d="m42.96 21.54-.82 1.52-3.02 5.6-3.14 5.82-.7 1.3-6.56-6.56 7.12-3.84z" fill="#ea5765"/><path d="m37.28 35.78-7.12 3.84-7.12 3.84.82-1.52 4.3-2.32 7.12-3.84.7-1.3z" fill="#d9dadb"/><path d="m44.96 21.54-3.84 7.12-3.84 7.12-1.3-1.3 3.14-5.82 3.02-5.6z" fill="#d9dadb"/><path d="m51.85 16.9c-.81-2.22-2.53-3.98-4.74-4.82-9.54-3.63-19.56-3.61-30.05.07-2.31.81-4.13 2.6-4.97 4.9-3.63 9.99-3.62 19.98.03 29.97.82 2.26 2.6 4.04 4.86 4.86 10.01 3.67 20.03 3.67 30.04 0 2.26-.82 4.04-2.6 4.86-4.86 3.67-10.04 3.66-20.08-.03-30.12zm-5.89 16.51c.36.37.86.59 1.41.59h1.03c1.2 0 2.13 1.05 1.99 2.24-.36 3.12-1.12 6.26-2.27 9.41-.42 1.15-1.32 2.05-2.46 2.47-3.14 1.15-6.29 1.9-9.42 2.26-1.19.14-2.24-.79-2.24-1.99v-.9c0-.95-.6-1.83-1.51-2.06-.74-.18-1.44.07-1.9.53-.37.36-.59.86-.59 1.41v1.02c0 1.2-1.05 2.13-2.24 1.99-3.13-.36-6.28-1.11-9.4-2.26-1.16-.42-2.06-1.32-2.48-2.46-1.15-3.16-1.91-6.3-2.27-9.42-.05-.42.04-.82.22-1.16.33-.64 1-1.08 1.77-1.08h.91c.95 0 1.83-.6 2.06-1.51.18-.74-.07-1.44-.53-1.9-.36-.37-.86-.59-1.41-.59h-1.03c-1.2 0-2.13-1.05-1.99-2.24.35-3.1 1.1-6.21 2.24-9.34.43-1.17 1.35-2.08 2.53-2.5 3.17-1.11 6.3-1.86 9.36-2.24 1.2-.15 2.26.78 2.26 1.99v.84c0 .95.6 1.83 1.51 2.06.74.18 1.44-.07 1.9-.53.37-.36.59-.86.59-1.41v-1.07c0-1.18 1.02-2.12 2.2-2 3.22.33 6.39 1.09 9.49 2.26 1.11.42 1.99 1.32 2.4 2.45 1.17 3.18 1.94 6.34 2.3 9.49.14 1.19-.79 2.24-1.99 2.24h-.91c-.95 0-1.83.6-2.06 1.51-.18.74.07 1.44.53 1.9z" fill="#434953"/></g></svg>