<?xml version="1.0" encoding="iso-8859-1"?>
<!-- Generator: Adobe Illustrator 19.0.0, SVG Export Plug-In . SVG Version: 6.00 Build 0)  -->
<svg version="1.1" id="Capa_1" xmlns="http://www.w3.org/2000/svg" xmlns:xlink="http://www.w3.org/1999/xlink" x="0px" y="0px"
	 viewBox="0 0 512 512" style="enable-background:new 0 0 512 512;" xml:space="preserve">
<g style="opacity:0.08;">
	<path d="M129.051,512c-74.5,0-124.56-50.059-124.56-124.56V133.542c0-74.5,50.059-124.56,124.56-124.56h253.898
		c74.5,0,124.56,50.059,124.56,124.56V387.44c0,74.5-50.059,124.56-124.56,124.56H129.051z"/>
</g>
<linearGradient id="SVGID_1_" gradientUnits="userSpaceOnUse" x1="-15.0449" y1="581.5254" x2="-15.0449" y2="637.5254" gradientTransform="matrix(8.9825 0 0 -8.9825 391.1404 5726.5439)">
	<stop  offset="0" style="stop-color:#2D2A2A"/>
	<stop  offset="1" style="stop-color:#544F4F"/>
</linearGradient>
<path style="fill:url(#SVGID_1_);" d="M129.051,503.018c-74.5,0-124.56-50.059-124.56-124.56V124.56C4.491,50.059,54.55,0,129.051,0
	h253.898c74.5,0,124.56,50.059,124.56,124.56v253.898c0,74.5-50.059,124.56-124.56,124.56H129.051z"/>
<g style="opacity:0.16;">
	
		<linearGradient id="SVGID_2_" gradientUnits="userSpaceOnUse" x1="-15.0449" y1="581.5254" x2="-15.0449" y2="637.5254" gradientTransform="matrix(8.9825 0 0 -8.9825 391.1404 5726.5439)">
		<stop  offset="0" style="stop-color:#000000"/>
		<stop  offset="0.06" style="stop-color:#000000;stop-opacity:0"/>
	</linearGradient>
	<path style="fill:url(#SVGID_2_);" d="M382.949,0H129.051C54.55,0,4.491,50.059,4.491,124.56v253.898
		c0,74.5,50.059,124.56,124.56,124.56h253.898c74.5,0,124.56-50.059,124.56-124.56V124.56C507.509,50.059,457.45,0,382.949,0z
		 M489.544,378.458c0,64.755-41.84,106.595-106.595,106.595H129.051c-64.755,0-106.595-41.84-106.595-106.595V124.56
		c0-64.755,41.84-106.595,106.595-106.595h253.898c64.755,0,106.595,41.84,106.595,106.595V378.458z"/>
</g>
<g style="opacity:0.24;">
	<path d="M382.949,0H129.051C54.55,0,4.491,50.059,4.491,124.56v253.898c0,74.5,50.059,124.56,124.56,124.56h253.898
		c74.5,0,124.56-50.059,124.56-124.56V124.56C507.509,50.059,457.45,0,382.949,0z M498.526,378.458
		c0,69.129-46.448,115.577-115.577,115.577H129.051c-69.129,0-115.577-46.448-115.577-115.577V124.56
		c0-69.129,46.448-115.577,115.577-115.577h253.898c69.129,0,115.577,46.448,115.577,115.577V378.458z"/>
</g>
<linearGradient id="SVGID_3_" gradientUnits="userSpaceOnUse" x1="-15.0449" y1="595.5254" x2="-15.0449" y2="623.5254" gradientTransform="matrix(8.9825 0 0 -8.9825 391.1404 5726.5439)">
	<stop  offset="0" style="stop-color:#E0E0E0"/>
	<stop  offset="1" style="stop-color:#FFFFFF"/>
</linearGradient>
<path style="fill:url(#SVGID_3_);" d="M336.842,287.439h-26.947v-71.86h26.947c24.765,0,44.912-20.148,44.912-44.912
	s-20.148-44.912-44.912-44.912c-24.765,0-44.912,20.148-44.912,44.912v26.947h-71.86v-26.947c0-24.765-20.148-44.912-44.912-44.912
	s-44.912,20.148-44.912,44.912s20.148,44.912,44.912,44.912h26.947v71.86h-26.947c-24.765,0-44.912,20.148-44.912,44.912
	c0,24.765,20.148,44.912,44.912,44.912s44.912-20.148,44.912-44.912v-26.947h71.86v26.947c0,24.765,20.148,44.912,44.912,44.912
	c24.765,0,44.912-20.148,44.912-44.912C381.754,307.586,361.607,287.439,336.842,287.439z M309.895,170.667
	c0-14.857,12.09-26.947,26.947-26.947c14.857,0,26.947,12.09,26.947,26.947s-12.09,26.947-26.947,26.947h-26.947V170.667z
	 M148.211,170.667c0-14.857,12.09-26.947,26.947-26.947s26.947,12.09,26.947,26.947v26.947h-26.947
	C160.301,197.614,148.211,185.524,148.211,170.667z M202.105,332.351c0,14.857-12.09,26.947-26.947,26.947
	s-26.947-12.09-26.947-26.947c0-14.857,12.09-26.947,26.947-26.947h26.947V332.351z M220.07,215.579h71.86v71.86h-71.86V215.579z
	 M336.842,359.298c-14.857,0-26.947-12.09-26.947-26.947v-26.947h26.947c14.857,0,26.947,12.09,26.947,26.947
	C363.789,347.208,351.699,359.298,336.842,359.298z"/>
<g>
</g>
<g>
</g>
<g>
</g>
<g>
</g>
<g>
</g>
<g>
</g>
<g>
</g>
<g>
</g>
<g>
</g>
<g>
</g>
<g>
</g>
<g>
</g>
<g>
</g>
<g>
</g>
<g>
</g>
</svg>
