<svg id="User_Interface" enable-background="new 0 0 64 64" height="512" viewBox="0 0 64 64" width="512" xmlns="http://www.w3.org/2000/svg"><g><path d="m36.38 22.91-.14-.14c.19-.24.45-.4.73-.45z" fill="#fdcc58"/><path d="m41.11 30.2-.72.28-1.45.55-5.75-5.75.84-2.17c.33-.86 1.44-1.1 2.1-.45l.11.11.14.14-.05.04 4.72 4.72.05-.04.46.46c.65.65.42 1.77-.45 2.11z" fill="#373d44"/><path d="m48.12 45.65c-.42 1.15-1.32 2.05-2.46 2.47-4.56 1.67-9.15 2.51-13.66 2.51s-9.1-.84-13.64-2.51c-1.16-.42-2.06-1.32-2.48-2.46-3.35-9.17-3.36-18.08-.03-27.24.43-1.17 1.35-2.08 2.53-2.5 4.83-1.69 9.59-2.55 14.15-2.55 4.47 0 8.89.83 13.16 2.45 1.11.42 1.99 1.32 2.4 2.45 3.39 9.22 3.4 18.17.03 27.38z" fill="#fdcc58"/><path d="m51.85 16.9c-.81-2.22-2.53-3.98-4.74-4.82-9.54-3.63-19.56-3.61-30.05.07-2.31.81-4.13 2.6-4.97 4.9-3.63 9.99-3.62 19.98.03 29.97.82 2.26 2.6 4.04 4.86 4.86 10.01 3.67 20.03 3.67 30.04 0 2.26-.82 4.04-2.6 4.86-4.86 3.67-10.04 3.66-20.08-.03-30.12zm-3.73 28.75c-.42 1.15-1.32 2.05-2.46 2.47-4.22 1.55-8.47 2.38-12.66 2.49h-.05c-.31.01-.64.02-.95.02-4.51 0-9.1-.84-13.64-2.51-1.16-.42-2.06-1.32-2.48-2.46-1.32-3.62-2.12-7.2-2.41-10.77-.43-5.48.37-10.93 2.38-16.47.43-1.17 1.35-2.08 2.53-2.5 4.83-1.69 9.59-2.55 14.15-2.55 2.72 0 5.43.31 8.09.92 1.55.35 2.13 2.25 1 3.37l-4.65 4.66-.59.59-.14-.14-.11-.11c-.66-.65-1.77-.41-2.1.45l-.84 2.17 5.75 5.75 1.45-.55.72-.28c.87-.34 1.1-1.46.45-2.11l-.46-.46.95-.96 4.22-4.22c.1-.1.21-.19.32-.26.07-.05.15-.09.23-.13.09-.05.18-.08.27-.1.13-.05.26-.07.4-.08.24-.03.47-.01.7.06.09.01.17.04.25.08.08.03.16.06.24.12.46.25.83.7.97 1.3 1.72 7.42 1.21 14.73-1.53 22.21z" fill="#434953"/><g><path d="m38.94 31.03-2.43 6.34-11.64 4.04-1.48.52-.55-.55-.55-.55 4.56-13.13 6.34-2.42z" fill="#e5e7ea"/></g><path d="m33.24 30.97c-.85-.86-2.25-.86-3.12 0-.75.74-.85 1.89-.31 2.74l-7.32 7.32.7.7 7.32-7.32c.35.22.75.34 1.17.34h.01c.59 0 1.14-.23 1.56-.65.86-.86.86-2.27-.01-3.13zm-.71 2.43c-.22.23-.52.35-.84.35-.36 0-.64-.12-.87-.35-.47-.48-.47-1.25 0-1.72.24-.24.55-.36.86-.36s.62.12.86.35c.47.48.47 1.25 0 1.73z" fill="#d9dadb"/><path d="m32.54 33.4h-.01c-.22.23-.52.35-.84.35-.36 0-.64-.12-.87-.35-.47-.48-.47-1.25 0-1.72.24-.24.55-.36.86-.36s.62.12.86.35c.47.48.47 1.25 0 1.73z" fill="#efbb54"/><path d="m32.54 31.67c-.107-.102-.23-.174-.358-.232-.129.059-.254.134-.362.242-.47.47-.47 1.24 0 1.72.106.106.226.183.357.241.13-.058.252-.135.353-.241h.01c.47-.48.47-1.25 0-1.73z" fill="#fdcc58"/><g><g><g><path d="m36.97 22.32-.59.59-.14-.14c.19-.24.45-.4.73-.45z" fill="#efbb54"/></g><g><path d="m48.27 22.45-5.17 5.18.46.46c.65.65.42 1.77-.45 2.11l-2.17.83-.55-.55.72-.28c.87-.34 1.1-1.46.45-2.11l-.46-.46.95-.96 4.22-4.22c.1-.1.21-.19.32-.26.07-.05.15-.09.23-.13.09-.04.18-.08.27-.1.13-.05.26-.07.4-.08.23-.02.47 0 .7.06.08.02.17.05.25.08l.24.12c-.14.08-.28.18-.41.31z" fill="#efbb54"/></g></g></g><path d="m40.94 31.03-2.43 6.34-13.12 4.56-.52-.52 11.64-4.04 2.43-6.34 1.45-.55z" fill="#efbb54"/><g><g><g><path d="m36.97 22.32-.59.59-.14-.14c.19-.24.45-.4.73-.45z" fill="#efbb54"/></g><g><path d="m43.11 30.2-2.17.83-.55-.55.72-.28c.87-.34 1.1-1.46.45-2.11l-.46-.46.95-.96 1 1 .05-.04.46.46c.65.65.42 1.77-.45 2.11z" fill="#efbb54"/></g></g></g></g></svg>