<svg id="User_Interface" enable-background="new 0 0 64 64" height="512" viewBox="0 0 64 64" width="512" xmlns="http://www.w3.org/2000/svg"><g><path d="m51.88 47.02c-.82 2.26-2.6 4.04-4.86 4.86-10.01 3.67-20.03 3.67-30.04 0-2.26-.82-4.04-2.6-4.86-4.86-3.65-9.99-3.66-19.98-.03-29.97.84-2.3 2.66-4.09 4.97-4.9 10.49-3.68 20.51-3.7 30.05-.07 2.21.84 3.93 2.6 4.74 4.82 3.69 10.04 3.7 20.08.03 30.12z" fill="#ea5765"/><path d="m48.12 45.65c-.42 1.15-1.32 2.05-2.46 2.47-4.56 1.67-9.15 2.51-13.66 2.51s-9.1-.84-13.64-2.51c-1.16-.42-2.06-1.32-2.48-2.46-3.35-9.17-3.36-18.08-.03-27.24.43-1.17 1.35-2.08 2.53-2.5 4.83-1.69 9.59-2.55 14.15-2.55 4.47 0 8.89.83 13.16 2.45 1.11.42 1.99 1.32 2.4 2.45 3.39 9.22 3.4 18.17.03 27.38z" fill="#db5367"/><path d="m44.95 24.4v10.02c0 .8-.48 1.54-1.23 1.85-1.94.79-5.26.46-5.26.46l.4 7.51c.04.78-.36 1.54-1.06 1.88-2.07 1-3.02-1.27-5.15-6.66-1.94-4.89-4.89-5.59-6.1-5.66v-10.66c1.89-.02 3.77-.5 5.41-1.45.08-.04.15-.08.23-.12.88-.46 1.87-.66 2.86-.66h5.67c3.5 0 4.23 3.49 4.23 3.49z" fill="#e5e7ea"/><path d="m26.55 23v11.28c0 1.1-.89 2-2 2h-3.24c-1.1 0-2-.9-2-2v-11.28c0-1.1.9-2 2-2h3.24c1.11 0 2 .9 2 2z" fill="#6699d1"/><g fill="#ce5169"><path d="m28.542 22.924c-.041-1.065-.908-1.924-1.992-1.924h-2c1.11 0 2 .9 2 2v.14c.67-.007 1.335-.093 1.992-.216z"/><path d="m38.46 36.73.4 7.51c.036.706-.302 1.378-.882 1.755.538.417 1.114.467 1.822.125.7-.34 1.1-1.1 1.06-1.88l-.397-7.446c-1.12.023-2.003-.064-2.003-.064z"/><path d="m28.542 34.355c-.815-.408-1.531-.528-1.992-.555v.48c0 1.1-.89 2-2 2h2c1.084 0 1.952-.86 1.992-1.925z"/><path d="m46.95 34.42v-10.02s-.73-3.49-4.23-3.49h-2c3.5 0 4.23 3.49 4.23 3.49v10.02c0 .8-.48 1.54-1.23 1.85-.772.314-1.761.45-2.674.501 1.039.055 3.235.085 4.674-.501.75-.31 1.23-1.05 1.23-1.85z"/></g></g></svg>