<svg id="User_Interface" enable-background="new 0 0 64 64" height="512" viewBox="0 0 64 64" width="512" xmlns="http://www.w3.org/2000/svg"><g><path d="m51.88 47.02c-.82 2.26-2.6 4.04-4.86 4.86-10.01 3.67-20.03 3.67-30.04 0-2.26-.82-4.04-2.6-4.86-4.86-3.65-9.99-3.66-19.98-.03-29.97.84-2.3 2.66-4.09 4.97-4.9 10.49-3.68 20.51-3.7 30.05-.07 2.21.84 3.93 2.6 4.74 4.82 3.69 10.04 3.7 20.08.03 30.12z" fill="#6ea7db"/><path d="m48.12 45.65c-.42 1.15-1.32 2.05-2.46 2.47-4.56 1.67-9.15 2.51-13.66 2.51s-9.1-.84-13.64-2.51c-1.16-.42-2.06-1.32-2.48-2.46-3.35-9.17-3.36-18.08-.03-27.24.43-1.17 1.35-2.08 2.53-2.5 4.83-1.69 9.59-2.55 14.15-2.55 4.47 0 8.89.83 13.16 2.45 1.11.42 1.99 1.32 2.4 2.45 3.39 9.22 3.4 18.17.03 27.38z" fill="#6699d1"/><circle cx="33" cy="33" fill="#6194c1" r="9"/><g><path d="m34 18v3.08c0 .56-.45 1-1 1s-1-.44-1-1v-3.08c0-.55.45-1 1-1s1 .45 1 1z" fill="#6194c1"/></g><g><path d="m25.57 25.57c-.19.2-.45.3-.7.3-.26 0-.52-.1-.71-.3l-2.18-2.18c-.39-.39-.39-1.02 0-1.41s1.02-.39 1.41 0l2.18 2.18c.39.39.39 1.02 0 1.41z" fill="#6194c1"/></g><g><path d="m22.08 33c0 .55-.44 1-1 1h-3.08c-.55 0-1-.45-1-1s.45-1 1-1h3.08c.56 0 1 .45 1 1z" fill="#6194c1"/></g><g><path d="m25.57 41.84-2.18 2.18c-.19.2-.45.29-.7.29-.26 0-.52-.09-.71-.29-.39-.39-.39-1.02 0-1.41l2.18-2.18c.39-.39 1.02-.39 1.41 0s.39 1.02 0 1.41z" fill="#6194c1"/></g><g><path d="m34 44.92v3.08c0 .55-.45 1-1 1s-1-.45-1-1v-3.08c0-.56.45-1 1-1s1 .44 1 1z" fill="#6194c1"/></g><g><path d="m44.02 44.02c-.19.2-.45.29-.71.29-.25 0-.51-.09-.7-.29l-2.18-2.18c-.39-.39-.39-1.02 0-1.41s1.02-.39 1.41 0l2.18 2.18c.39.39.39 1.02 0 1.41z" fill="#6194c1"/></g><g><path d="m49 33c0 .55-.45 1-1 1h-3.08c-.56 0-1-.45-1-1s.44-1 1-1h3.08c.55 0 1 .45 1 1z" fill="#6194c1"/></g><g><path d="m44.02 23.39-2.18 2.18c-.19.2-.45.3-.71.3-.25 0-.51-.1-.7-.3-.39-.39-.39-1.02 0-1.41l2.18-2.18c.39-.39 1.02-.39 1.41 0s.39 1.02 0 1.41z" fill="#6194c1"/></g><circle cx="32" cy="32" fill="#fdcc58" r="9"/><g><g><path d="m33 17v3.08c0 .56-.45 1-1 1s-1-.44-1-1v-3.08c0-.55.45-1 1-1s1 .45 1 1z" fill="#fdcc58"/></g></g><g><g><path d="m24.57 24.57c-.19.2-.45.3-.7.3-.26 0-.52-.1-.71-.3l-2.18-2.18c-.39-.39-.39-1.02 0-1.41s1.02-.39 1.41 0l2.18 2.18c.39.39.39 1.02 0 1.41z" fill="#fdcc58"/></g></g><g><g><path d="m21.08 32c0 .55-.44 1-1 1h-3.08c-.55 0-1-.45-1-1s.45-1 1-1h3.08c.56 0 1 .45 1 1z" fill="#fdcc58"/></g></g><g><g><path d="m24.57 40.84-2.18 2.18c-.19.2-.45.29-.7.29-.26 0-.52-.09-.71-.29-.39-.39-.39-1.02 0-1.41l2.18-2.18c.39-.39 1.02-.39 1.41 0s.39 1.02 0 1.41z" fill="#fdcc58"/></g></g><g><g><path d="m33 43.92v3.08c0 .55-.45 1-1 1s-1-.45-1-1v-3.08c0-.56.45-1 1-1s1 .44 1 1z" fill="#fdcc58"/></g></g><g><g><path d="m43.02 43.02c-.19.2-.45.29-.71.29-.25 0-.51-.09-.7-.29l-2.18-2.18c-.39-.39-.39-1.02 0-1.41s1.02-.39 1.41 0l2.18 2.18c.39.39.39 1.02 0 1.41z" fill="#fdcc58"/></g></g><g><g><path d="m48 32c0 .55-.45 1-1 1h-3.08c-.56 0-1-.45-1-1s.44-1 1-1h3.08c.55 0 1 .45 1 1z" fill="#fdcc58"/></g></g><g><g><path d="m43.02 22.39-2.18 2.18c-.19.2-.45.3-.71.3-.25 0-.51-.1-.7-.3-.39-.39-.39-1.02 0-1.41l2.18-2.18c.39-.39 1.02-.39 1.41 0s.39 1.02 0 1.41z" fill="#fdcc58"/></g></g></g></svg>