<svg id="User_Interface" enable-background="new 0 0 64 64" height="512" viewBox="0 0 64 64" width="512" xmlns="http://www.w3.org/2000/svg"><g><path d="m48.12 45.65c-.42 1.15-1.32 2.05-2.46 2.47-4.56 1.67-9.15 2.51-13.66 2.51s-9.1-.84-13.64-2.51c-1.16-.42-2.06-1.32-2.48-2.46-3.35-9.17-3.36-18.08-.03-27.24.43-1.17 1.35-2.08 2.53-2.5 4.83-1.69 9.59-2.55 14.15-2.55 4.47 0 8.89.83 13.16 2.45 1.11.42 1.99 1.32 2.4 2.45 3.39 9.22 3.4 18.17.03 27.38z" fill="#e5e7ea"/><path d="m51.85 16.9c-.81-2.22-2.53-3.98-4.74-4.82-9.54-3.63-19.56-3.61-30.05.07-2.31.81-4.13 2.6-4.97 4.9-3.63 9.99-3.62 19.98.03 29.97.82 2.26 2.6 4.04 4.86 4.86 10.01 3.67 20.03 3.67 30.04 0 2.26-.82 4.04-2.6 4.86-4.86 3.67-10.04 3.66-20.08-.03-30.12zm-5.28 17.01h-28.99l5.17 5.17 4.55 4.55c.55.55 1.46.27 1.65-.42.02-.03.02-.07.03-.11.01-.06.02-.12.02-.18v-3.84h15.78c2.75 0 4.65 2.7 3.78 5.31-.14.42-.28.84-.44 1.26-.42 1.15-1.32 2.05-2.46 2.47-4.22 1.55-8.47 2.38-12.66 2.49h-.05c-.31.01-.64.02-.95.02-4.51 0-9.1-.84-13.64-2.51-1.16-.42-2.06-1.32-2.48-2.46-1.4-3.82-2.21-7.59-2.44-11.36-.15-2.29 1.71-4.21 4-4.21h28.98l-5.17-5.17-4.54-4.54c-.63-.63-1.71-.18-1.71.71v3.83h-15.78c-1.32 0-2.45-.62-3.16-1.56-.78-1.01-1.08-2.38-.63-3.73.13-.4.27-.81.42-1.21.43-1.17 1.35-2.08 2.53-2.5 4.83-1.69 9.59-2.55 14.15-2.55.32 0 .63.01.95.02h.06c4.13.11 8.2.93 12.15 2.43 1.11.42 1.99 1.32 2.4 2.45 1.41 3.84 2.24 7.64 2.48 11.42.14 2.29-1.71 4.22-4 4.22z" fill="#f16d53"/><g><g><g><path d="m48.42 30.09h-2l-5.17-5.17-4.18-4.18c.24-.64 1.1-.9 1.64-.36l4.54 4.54z" fill="#d9dadb"/></g><g><path d="m31 39.08v3.84c0 .89-1.08 1.33-1.7.71l-.36-.36c.01-.02.01-.04.01-.06.02-.03.02-.07.03-.11.01-.06.02-.12.02-.18v-3.84z" fill="#d9dadb"/></g></g></g></g></svg>