<?xml version="1.0" encoding="iso-8859-1"?>
<!-- Generator: Adobe Illustrator 19.0.0, SVG Export Plug-In . SVG Version: 6.00 Build 0)  -->
<svg version="1.1" id="Capa_1" xmlns="http://www.w3.org/2000/svg" xmlns:xlink="http://www.w3.org/1999/xlink" x="0px" y="0px"
	 viewBox="0 0 512 512" style="enable-background:new 0 0 512 512;" xml:space="preserve">
<g style="opacity:0.08;">
	<path d="M475.733,217.6c-20.625,0-23.467,17.067-40.533,17.067c-17.067,0-25.6-8.533-25.6-51.2v-102.4
		c0-18.85-15.283-34.133-34.133-34.133h-106.94c-3.994,0-12.527,8.533-12.527,25.6c0.273,8.755,3.746,17.101,9.771,23.458
		c4.548,4.531,7.168,10.65,7.296,17.075c0,20.215-13.875,27.733-51.2,27.733s-51.2-7.518-51.2-27.733
		c0.128-6.426,2.748-12.544,7.296-17.075c6.025-6.357,9.498-14.703,9.771-23.458c0-17.067-8.533-25.6-12.527-25.6H34.133
		C15.283,46.933,0,62.217,0,81.067v149.606c0,3.994,8.533,12.527,25.6,12.527c8.755-0.273,17.101-3.746,23.458-9.771
		c4.531-4.548,10.65-7.168,17.075-7.296c20.215,0,27.733,13.875,27.733,51.2s-7.518,51.2-27.733,51.2
		c-6.426-0.128-12.544-2.748-17.075-7.296c-6.357-6.025-14.703-9.498-23.458-9.771C8.533,311.467,0,320,0,323.994v115.473
		c0,18.85,15.283,34.133,34.133,34.133h341.333c18.85,0,34.133-15.283,34.133-34.133V371.2c0-42.667,8.533-51.2,25.6-51.2
		c17.067,0,19.908,17.067,40.533,17.067c34.133,0,36.267-34.133,36.267-59.733S509.867,217.6,475.733,217.6z"/>
</g>
<linearGradient id="SVGID_1_" gradientUnits="userSpaceOnUse" x1="-13.2578" y1="582.2109" x2="-13.2578" y2="632.2109" gradientTransform="matrix(8.5333 0 0 -8.5333 369.1334 5433.2671)">
	<stop  offset="0" style="stop-color:#C4C4C6"/>
	<stop  offset="1" style="stop-color:#F0F0F3"/>
</linearGradient>
<path style="fill:url(#SVGID_1_);" d="M475.733,209.067c-20.625,0-23.467,17.067-40.533,17.067c-17.067,0-25.6-8.533-25.6-51.2
	v-102.4c0-18.85-15.283-34.133-34.133-34.133h-106.94C264.533,38.4,256,46.933,256,64c0.273,8.755,3.746,17.101,9.771,23.458
	c4.548,4.531,7.168,10.65,7.296,17.075c0,20.215-13.875,27.733-51.2,27.733s-51.2-7.518-51.2-27.733
	c0.128-6.426,2.748-12.544,7.296-17.075c6.025-6.357,9.498-14.703,9.771-23.458c0-17.067-8.533-25.6-12.527-25.6H34.133
	C15.283,38.4,0,53.683,0,72.533V222.14c0,3.994,8.533,12.527,25.6,12.527c8.755-0.273,17.101-3.746,23.458-9.771
	c4.531-4.548,10.65-7.168,17.075-7.296c20.215,0,27.733,13.875,27.733,51.2S86.349,320,66.133,320
	c-6.426-0.128-12.544-2.748-17.075-7.296c-6.357-6.025-14.703-9.498-23.458-9.771c-17.067,0-25.6,8.533-25.6,12.527v115.473
	c0,18.85,15.283,34.133,34.133,34.133h341.333c18.85,0,34.133-15.283,34.133-34.133v-68.267c0-42.667,8.533-51.2,25.6-51.2
	c17.067,0,19.908,17.067,40.533,17.067C509.867,328.533,512,294.4,512,268.8S509.867,209.067,475.733,209.067z"/>
<g style="opacity:0.16;">
	
		<linearGradient id="SVGID_2_" gradientUnits="userSpaceOnUse" x1="-13.2578" y1="582.2109" x2="-13.2578" y2="632.2109" gradientTransform="matrix(8.5333 0 0 -8.5333 369.1334 5433.2671)">
		<stop  offset="0" style="stop-color:#000000"/>
		<stop  offset="0.06" style="stop-color:#000000;stop-opacity:0"/>
	</linearGradient>
	<path style="fill:url(#SVGID_2_);" d="M475.733,209.067c-20.625,0-23.467,17.067-40.533,17.067c-17.067,0-25.6-8.533-25.6-51.2
		v-102.4c0-18.85-15.283-34.133-34.133-34.133h-106.94C264.533,38.4,256,46.933,256,64c0.273,8.755,3.746,17.101,9.771,23.458
		c4.548,4.531,7.168,10.65,7.296,17.075c0,20.215-13.875,27.733-51.2,27.733s-51.2-7.518-51.2-27.733
		c0.128-6.426,2.748-12.544,7.296-17.075c6.025-6.357,9.498-14.703,9.771-23.458c0-17.067-8.533-25.6-12.527-25.6H34.133
		C15.283,38.4,0,53.683,0,72.533V222.14c0,3.994,8.533,12.527,25.6,12.527c8.755-0.273,17.101-3.746,23.458-9.771
		c4.531-4.548,10.65-7.168,17.075-7.296c20.215,0,27.733,13.875,27.733,51.2S86.349,320,66.133,320
		c-6.426-0.128-12.544-2.748-17.075-7.296c-6.357-6.025-14.703-9.498-23.458-9.771c-17.067,0-25.6,8.533-25.6,12.527v115.473
		c0,18.85,15.283,34.133,34.133,34.133h341.333c18.85,0,34.133-15.283,34.133-34.133v-68.267c0-42.667,8.533-51.2,25.6-51.2
		c17.067,0,19.908,17.067,40.533,17.067C509.867,328.533,512,294.4,512,268.8S509.867,209.067,475.733,209.067z M475.733,311.467
		c-4.634,0-6.647-1.408-11.793-5.461c-7.859-7.219-18.074-11.349-28.74-11.605c-42.667,0-42.667,44.407-42.667,68.267v68.267
		c-0.009,9.421-7.646,17.058-17.067,17.067H34.133c-9.421-0.009-17.058-7.646-17.067-17.067V321.391
		c2.731-0.998,5.623-1.468,8.533-1.391c4.907,0.333,9.506,2.509,12.885,6.093c7.535,6.955,17.391,10.871,27.648,10.974
		c44.8,0,44.8-47.838,44.8-68.267s0-68.267-44.8-68.267c-10.257,0.111-20.113,4.019-27.657,10.982
		c-3.371,3.575-7.97,5.751-12.877,6.084c-2.91,0.077-5.803-0.393-8.533-1.391V72.533c0.009-9.421,7.646-17.058,17.067-17.067
		h135.142c0.998,2.731,1.468,5.623,1.391,8.533c-0.333,4.907-2.509,9.506-6.093,12.877c-6.963,7.543-10.871,17.399-10.974,27.657
		c0,44.8,47.838,44.8,68.267,44.8s68.267,0,68.267-44.8c-0.102-10.266-4.019-20.122-10.982-27.665
		c-3.576-3.371-5.751-7.97-6.084-12.868c-0.077-2.91,0.393-5.803,1.391-8.533h101.009c9.421,0.009,17.058,7.646,17.067,17.067v102.4
		c0,23.859,0,68.267,42.667,68.267c10.667-0.256,20.881-4.386,28.74-11.605c5.146-4.062,7.159-5.461,11.793-5.461
		c10.505,0,19.2,3.209,19.2,42.667S486.238,311.467,475.733,311.467z"/>
</g>
<path style="opacity:0.24;enable-background:new    ;" d="M475.733,209.067c-20.625,0-23.467,17.067-40.533,17.067
	c-17.067,0-25.6-8.533-25.6-51.2v-102.4c0-18.85-15.283-34.133-34.133-34.133h-106.94C264.533,38.4,256,46.933,256,64
	c0.273,8.755,3.746,17.101,9.771,23.458c4.548,4.531,7.168,10.65,7.296,17.075c0,20.215-13.875,27.733-51.2,27.733
	s-51.2-7.518-51.2-27.733c0.128-6.426,2.748-12.544,7.296-17.075c6.025-6.357,9.498-14.703,9.771-23.458
	c0-17.067-8.533-25.6-12.527-25.6H34.133C15.283,38.4,0,53.683,0,72.533V222.14c0,3.994,8.533,12.527,25.6,12.527
	c8.755-0.273,17.101-3.746,23.458-9.771c4.531-4.548,10.65-7.168,17.075-7.296c20.215,0,27.733,13.875,27.733,51.2
	S86.349,320,66.133,320c-6.426-0.128-12.544-2.748-17.075-7.296c-6.357-6.025-14.703-9.498-23.458-9.771
	c-17.067,0-25.6,8.533-25.6,12.527v115.473c0,18.85,15.283,34.133,34.133,34.133h341.333c18.85,0,34.133-15.283,34.133-34.133
	v-68.267c0-42.667,8.533-51.2,25.6-51.2c17.067,0,19.908,17.067,40.533,17.067C509.867,328.533,512,294.4,512,268.8
	S509.867,209.067,475.733,209.067z M475.733,320c-6.426-0.128-12.544-2.748-17.075-7.296c-6.357-6.025-14.703-9.498-23.458-9.771
	c-28.425,0-34.133,22.852-34.133,59.733v68.267c-0.017,14.131-11.469,25.583-25.6,25.6H34.133
	c-14.131-0.017-25.583-11.469-25.6-25.6V316.809c4.762-3.959,10.897-5.888,17.067-5.342c6.835,0.29,13.312,3.115,18.167,7.927
	c6.025,5.777,14.02,9.045,22.366,9.139c31.872,0,36.267-28.706,36.267-59.733s-4.395-59.733-36.267-59.733
	c-8.346,0.085-16.35,3.354-22.366,9.139c-4.864,4.813-11.341,7.637-18.167,7.927c-6.17,0.538-12.305-1.382-17.067-5.342V72.533
	c0.017-14.131,11.469-25.583,25.6-25.6H173.85c3.968,4.762,5.888,10.897,5.35,17.067c-0.29,6.835-3.115,13.312-7.936,18.167
	c-5.743,6.042-9.003,14.029-9.131,22.366c0,31.872,28.706,36.267,59.733,36.267s59.733-4.395,59.733-36.267
	c-0.128-8.337-3.388-16.324-9.139-22.374c-4.813-4.855-7.637-11.332-7.927-18.159c-0.538-6.17,1.382-12.305,5.35-17.067h105.583
	c14.131,0.017,25.583,11.469,25.6,25.6v102.4c0,36.881,5.709,59.733,34.133,59.733c8.755-0.273,17.101-3.746,23.458-9.771
	c4.531-4.548,10.65-7.168,17.075-7.296c20.215,0,27.733,13.875,27.733,51.2S495.949,320,475.733,320z"/>
<g>
</g>
<g>
</g>
<g>
</g>
<g>
</g>
<g>
</g>
<g>
</g>
<g>
</g>
<g>
</g>
<g>
</g>
<g>
</g>
<g>
</g>
<g>
</g>
<g>
</g>
<g>
</g>
<g>
</g>
</svg>
