<?xml version="1.0" encoding="iso-8859-1"?>
<!-- Generator: Adobe Illustrator 19.0.0, SVG Export Plug-In . SVG Version: 6.00 Build 0)  -->
<svg version="1.1" id="Capa_1" xmlns="http://www.w3.org/2000/svg" xmlns:xlink="http://www.w3.org/1999/xlink" x="0px" y="0px"
	 viewBox="0 0 510.213 510.213" style="enable-background:new 0 0 510.213 510.213;" xml:space="preserve">
<g style="opacity:0.08;">
	<path d="M149.189,510.213c-62.153,0-103.919-41.766-103.919-103.919V194.46c0-62.153,41.766-103.919,103.919-103.919h211.825
		c62.162,0,103.928,41.766,103.928,103.919v211.825c0,62.162-41.766,103.928-103.919,103.928H149.189z"/>
</g>
<linearGradient id="SVGID_1_" gradientUnits="userSpaceOnUse" x1="255.1065" y1="8.606" x2="255.1065" y2="428.278" gradientTransform="matrix(1 0 0 -1 0 510.426)">
	<stop  offset="0" style="stop-color:#C4C4C6"/>
	<stop  offset="1" style="stop-color:#F0F0F3"/>
</linearGradient>
<path style="fill:url(#SVGID_1_);" d="M149.189,501.82c-62.153,0-103.919-41.766-103.919-103.919V186.067
	c0-62.153,41.766-103.919,103.919-103.919h211.825c62.162,0,103.928,41.766,103.928,103.919v211.825
	c0,62.162-41.766,103.928-103.919,103.928L149.189,501.82L149.189,501.82z"/>
<g style="opacity:0.16;">
	
		<linearGradient id="SVGID_2_" gradientUnits="userSpaceOnUse" x1="255.1065" y1="8.607" x2="255.1065" y2="428.279" gradientTransform="matrix(1 0 0 -1 0 510.426)">
		<stop  offset="0" style="stop-color:#000000"/>
		<stop  offset="0.06" style="stop-color:#000000;stop-opacity:0"/>
	</linearGradient>
	<path style="fill:url(#SVGID_2_);" d="M361.023,82.147H149.189c-62.153,0-103.919,41.766-103.919,103.919v211.825
		c0,62.162,41.766,103.928,103.919,103.928h211.825c62.162,0,103.928-41.766,103.928-103.919V186.067
		C464.942,123.913,423.176,82.147,361.023,82.147z M448.155,397.9c0,52.929-34.203,87.132-87.132,87.132H149.189
		c-52.929,0-87.132-34.203-87.132-87.132V186.067c0-52.929,34.203-87.132,87.132-87.132h211.825
		c52.937,0,87.141,34.203,87.141,87.132L448.155,397.9L448.155,397.9z"/>
</g>
<g style="opacity:0.24;">
	<path d="M361.023,82.147H149.189c-62.153,0-103.919,41.766-103.919,103.919v211.825c0,62.162,41.766,103.928,103.919,103.928
		h211.825c62.162,0,103.928-41.766,103.928-103.919V186.067C464.942,123.913,423.176,82.147,361.023,82.147z M456.549,397.9
		c0,57.134-38.392,95.526-95.526,95.526H149.189c-57.134,0-95.526-38.392-95.526-95.526V186.067
		c0-57.134,38.392-95.526,95.526-95.526h211.825c57.143,0,95.534,38.392,95.534,95.526V397.9H456.549z"/>
</g>
<path style="fill:#413D3D;" d="M366.434,281.377c-5.857-5.857-15.355-5.857-21.213,0l-75.115,75.115V15c0-8.284-6.716-15-15-15
	c-8.284,0-15,6.716-15,15v341.492l-75.115-75.115c-5.858-5.859-15.356-5.857-21.213,0c-5.858,5.857-5.858,15.355,0,21.213
	l100.721,100.722c2.813,2.813,6.628,4.394,10.606,4.394c3.979,0,7.794-1.58,10.606-4.394L366.434,302.59
	C372.293,296.733,372.293,287.234,366.434,281.377z"/>
<g>
</g>
<g>
</g>
<g>
</g>
<g>
</g>
<g>
</g>
<g>
</g>
<g>
</g>
<g>
</g>
<g>
</g>
<g>
</g>
<g>
</g>
<g>
</g>
<g>
</g>
<g>
</g>
<g>
</g>
</svg>
