<svg id="User_Interface" enable-background="new 0 0 64 64" height="512" viewBox="0 0 64 64" width="512" xmlns="http://www.w3.org/2000/svg"><g><path d="m51.88 47.02c-.82 2.26-2.6 4.04-4.86 4.86-10.01 3.67-20.03 3.67-30.04 0-2.26-.82-4.04-2.6-4.86-4.86-3.65-9.99-3.66-19.98-.03-29.97.84-2.3 2.66-4.09 4.97-4.9 10.49-3.68 20.51-3.7 30.05-.07 2.21.84 3.93 2.6 4.74 4.82 3.69 10.04 3.7 20.08.03 30.12z" fill="#ea5765"/><path d="m48.12 45.65c-.42 1.15-1.32 2.05-2.46 2.47-4.56 1.67-9.15 2.51-13.66 2.51s-9.1-.84-13.64-2.51c-1.16-.42-2.06-1.32-2.48-2.46-3.35-9.17-3.36-18.08-.03-27.24.43-1.17 1.35-2.08 2.53-2.5 4.83-1.69 9.59-2.55 14.15-2.55 4.47 0 8.89.83 13.16 2.45 1.11.42 1.99 1.32 2.4 2.45 3.39 9.22 3.4 18.17.03 27.38z" fill="#e5e7ea"/><path d="m45.08 42.33h-22.16c-1.92 0-3.08-2.14-2.03-3.75l5.33-8.17 5.75-8.81c.96-1.47 3.1-1.47 4.06 0l5.75 8.81 5.33 8.17c1.05 1.61-.11 3.75-2.03 3.75z" fill="#d9dadb"/><g><g><path d="m32.79 36.31c-.29-.28-.64-.42-1.05-.42s-.76.14-1.04.42c-.29.29-.43.63-.43 1.03 0 .47.15.83.45 1.08.29.26.64.39 1.04.39.39 0 .73-.13 1.02-.39s.44-.62.44-1.08c0-.4-.14-.74-.43-1.03zm.15-11.71c-.19-.38-.56-.58-1.13-.58-.46 0-.83.15-1.11.46-.29.3-.43.72-.43 1.26 0 .4.03 1.05.09 1.97l.31 4.67c.06.61.16 1.06.3 1.36.13.29.38.44.73.44.34 0 .59-.15.74-.46.15-.3.25-.74.29-1.32l.42-4.81c.05-.44.07-.88.07-1.31 0-.73-.09-1.29-.28-1.68z" fill="#434953"/></g></g><path d="m45.11 37.58-5.33-8.17-5.75-8.81c-.96-1.47-3.1-1.47-4.06 0l-5.75 8.81-5.33 8.17c-1.05 1.61.11 3.75 2.03 3.75h22.16c1.92 0 3.08-2.14 2.03-3.75zm-12.33.84c-.29.26-.63.39-1.02.39-.4 0-.75-.13-1.04-.39-.3-.25-.45-.61-.45-1.08 0-.4.14-.74.43-1.03.28-.28.63-.42 1.04-.42s.76.14 1.05.42c.29.29.43.63.43 1.03 0 .46-.15.82-.44 1.08zm.37-10.83-.42 4.81c-.04.58-.14 1.02-.29 1.32-.15.31-.4.46-.74.46-.35 0-.6-.15-.73-.44-.14-.3-.24-.75-.3-1.36l-.31-4.67c-.06-.92-.09-1.57-.09-1.97 0-.54.14-.96.43-1.26.28-.31.65-.46 1.11-.46.57 0 .94.2 1.13.58.19.39.28.95.28 1.68 0 .43-.02.87-.07 1.31z" fill="#fdcc58"/></g></svg>