<svg id="User_Interface" enable-background="new 0 0 64 64" height="512" viewBox="0 0 64 64" width="512" xmlns="http://www.w3.org/2000/svg"><g><path d="m51.88 47.02c-.82 2.26-2.6 4.04-4.86 4.86-10.01 3.67-20.03 3.67-30.04 0-2.26-.82-4.04-2.6-4.86-4.86-3.65-9.99-3.66-19.98-.03-29.97.84-2.3 2.66-4.09 4.97-4.9 10.49-3.68 20.51-3.7 30.05-.07 2.21.84 3.93 2.6 4.74 4.82 3.69 10.04 3.7 20.08.03 30.12z" fill="#6ea7db"/><path d="m48.12 45.65c-.42 1.15-1.32 2.05-2.46 2.47-4.56 1.67-9.15 2.51-13.66 2.51s-9.1-.84-13.64-2.51c-1.16-.42-2.06-1.32-2.48-2.46-3.35-9.17-3.36-18.08-.03-27.24.43-1.17 1.35-2.08 2.53-2.5 4.83-1.69 9.59-2.55 14.15-2.55 4.47 0 8.89.83 13.16 2.45 1.11.42 1.99 1.32 2.4 2.45 3.39 9.22 3.4 18.17.03 27.38z" fill="#6699d1"/><path d="m44.58 28.67c0 .94-.23 1.83-.65 2.61-.58-.3-1.25-.48-1.96-.48-.24 0-.47.02-.7.07-.94-1.71-2.77-2.87-4.87-2.87-.5 0-.99.07-1.45.2-.32-.49-.7-.93-1.14-1.33.74-2.18 2.8-3.74 5.23-3.74 3.06 0 5.54 2.48 5.54 5.54z" fill="#fdcc58"/><path d="m40.04 23.13c-.139 0-.271.023-.408.033 2.781.296 4.948 2.648 4.948 5.507 0 .813-.181 1.584-.499 2.283.298.081.584.19.849.327.42-.78.65-1.67.65-2.61 0-3.06-2.48-5.54-5.54-5.54z" fill="#6194c1"/><path d="m46.15 34.97c0 2.3-1.87 4.17-4.18 4.17h-19.94c-2.31 0-4.18-1.87-4.18-4.17s1.87-4.17 4.18-4.17c.04 0 .08 0 .12.01.6-3.28 3.47-5.77 6.93-5.77 1.82 0 3.49.7 4.73 1.83.44.4.82.84 1.14 1.33.46-.13.95-.2 1.45-.2 2.1 0 3.93 1.16 4.87 2.87.23-.05.46-.07.7-.07.71 0 1.38.18 1.96.48 1.32.71 2.22 2.1 2.22 3.69z" fill="#e5e7ea"/><g fill="#6194c1"><path d="m47.15 34.97c0-1.59-.9-2.98-2.22-3.69-.265-.137-.551-.245-.849-.327-.05.109-.094.221-.151.327 1.32.71 2.22 2.1 2.22 3.69 0 2.3-1.87 4.17-4.18 4.17h1c2.31 0 4.18-1.87 4.18-4.17z"/><path d="m34.061 26.285c-1.13-.778-2.504-1.245-3.981-1.245-.174 0-.345.011-.516.023 1.63.112 3.117.778 4.246 1.807.069-.203.16-.394.251-.585z"/></g></g></svg>