<svg id="User_Interface" enable-background="new 0 0 64 64" height="512" viewBox="0 0 64 64" width="512" xmlns="http://www.w3.org/2000/svg"><g><path d="m47.92 45.99c-.001-.001-.001-.003-.002-.004.071-.092.144-.184.192-.306-.05.12-.12.21-.19.31z" fill="#efbb54"/><path d="m48.12 45.65c-.42 1.15-1.32 2.05-2.46 2.47-4.56 1.67-9.15 2.51-13.66 2.51s-9.1-.84-13.64-2.51c-1.16-.42-2.06-1.32-2.48-2.46-3.35-9.17-3.36-18.08-.03-27.24.43-1.17 1.35-2.08 2.53-2.5 4.83-1.69 9.59-2.55 14.15-2.55 4.47 0 8.89.83 13.16 2.45 1.11.42 1.99 1.32 2.4 2.45 3.39 9.22 3.4 18.17.03 27.38z" fill="#fdcc58"/><path d="m51.85 16.9c-.81-2.22-2.53-3.98-4.74-4.82-9.54-3.63-19.56-3.61-30.05.07-2.31.81-4.13 2.6-4.97 4.9-3.63 9.99-3.62 19.98.03 29.97.82 2.26 2.6 4.04 4.86 4.86 10.01 3.67 20.03 3.67 30.04 0 2.26-.82 4.04-2.6 4.86-4.86 3.67-10.04 3.66-20.08-.03-30.12zm-33.35 28.28c0 1.5-2.08 1.88-2.62.48-1.68-4.6-2.52-9.13-2.52-13.66 0-4.51.83-9.01 2.49-13.58.23-.61.75-.88 1.26-.88.7 0 1.39.5 1.39 1.37zm11.28 3.19c0 1.19-1.03 2.11-2.21 1.99-.18-.02-2.67-.41-3.02-.48-.84-.17-1.45-.89-1.45-1.75v-32.25c0-.8.57-1.49 1.35-1.65.26-.05.51-.1.77-.15.02-.01.03-.01.04-.01.6-.11 1.57-.25 2.47-.36 1.09-.14 2.05.71 2.05 1.81zm11.26-.45c0 .93-.65 1.77-1.56 1.95-.96.19-1.91.35-2.86.47-1.2.14-2.26-.79-2.26-2v-32.75c0-1.19 1.05-2.12 2.24-1.99.96.11 1.91.25 2.86.44.93.18 1.58 1.01 1.58 1.95zm7.08-2.27c0 .01-.01.02-.01.03-.52 1.31-2.51.85-2.51-.56v-26.44c0-1.27 1.72-1.81 2.35-.7.06.1.1.19.14.29 3.39 9.22 3.4 18.17.03 27.38z" fill="#434953"/><path d="m24.31 39.5c0 .89-.17 1.79-.49 2.69-.09.23-.26.4-.49.48-.08.03-.15.05-.23.08-1.54.52-3.06.56-4.6.1-.18-.05-.35-.1-.53-.17-.23-.08-.41-.26-.49-.5-.33-.95-.5-1.88-.5-2.78 0-.88.16-1.75.48-2.59.08-.22.26-.39.48-.47.19-.07.37-.13.56-.18 1.55-.46 3.06-.43 4.6.09.08.02.15.05.23.08.23.08.4.26.49.49.32.89.49 1.79.49 2.68z" fill="#ea5765"/><path d="m35.79 22.5c0 .89-.16 1.79-.49 2.69-.08.23-.26.4-.49.48-.15.05-.3.1-.45.15-1.53.47-3.04.47-4.58-.03-.11-.03-.22-.07-.33-.11-.23-.08-.4-.26-.49-.5-.33-.95-.5-1.88-.5-2.78 0-.88.16-1.75.48-2.59.09-.22.26-.39.49-.47.12-.04.23-.08.35-.11 1.54-.51 3.04-.52 4.58-.05.15.04.3.09.45.15.23.08.41.26.49.49.33.89.49 1.79.49 2.68z" fill="#5ac0a6"/><path d="m47.24 33.5c0 .89-.16 1.79-.49 2.69-.08.23-.26.4-.49.48-.22.08-.44.15-.66.21-1.52.43-3.02.38-4.56-.15-.05-.02-.09-.03-.14-.05-.23-.08-.4-.26-.49-.5-.33-.95-.5-1.88-.5-2.78 0-.88.16-1.75.48-2.59.09-.22.26-.39.49-.47.05-.02.11-.04.16-.05 1.53-.54 3.03-.6 4.56-.18.22.07.44.14.66.22.23.08.41.26.49.49.33.89.49 1.79.49 2.68z" fill="#e5e7ea"/><g fill="#efbb54"><path d="m18.15 46.1c-.62.66-1.87.6-2.27-.44-1.68-4.6-2.52-9.13-2.52-13.66 0-4.51.83-9.01 2.49-13.58.23-.61.75-.88 1.26-.88.38 0 .76.15 1.02.43-.11.12-.21.27-.28.45-1.66 4.57-2.49 9.07-2.49 13.58 0 4.53.84 9.06 2.52 13.66.07.17.16.32.27.44z"/><path d="m27.6 50.07c.3.05.61.1.91.15-.04.02-.08.04-.12.05-.06.03-.13.04-.19.05-.06.02-.11.03-.17.03-.15.02-.3.03-.46.01-.18-.02-.32-.04-.43-.05-.07-.01-.13-.02-.2-.03-.05 0-.09 0-.13-.01-.4-.06-.81-.13-1.21-.2-.35-.06-.7-.12-1.05-.19-.84-.17-1.45-.89-1.45-1.75v-5.38c.08-.03.15-.05.23-.08.23-.08.4-.25.49-.48.32-.9.49-1.8.49-2.69s-.17-1.79-.49-2.68c-.09-.23-.26-.41-.49-.49-.08-.03-.15-.06-.23-.08v-20.37c0-.8.57-1.49 1.35-1.65.26-.05.51-.1.77-.15.02-.01.03-.01.04-.01.6-.11 1.57-.25 2.47-.36.31-.04.6 0 .87.1.03.01.05.02.07.04-.54.08-1.04.15-1.41.22-.01 0-.02 0-.04.01-.26.05-.51.1-.77.15-.78.16-1.35.85-1.35 1.65v20.37c.08.02.15.05.23.08.23.08.4.26.49.49.32.89.49 1.79.49 2.68s-.17 1.79-.49 2.69c-.09.23-.26.4-.49.48-.08.03-.15.05-.23.08v5.38c0 .86.61 1.58 1.45 1.75.35.07.7.13 1.05.19z"/><path d="m37.62 50.19c-.34.06-.67.11-1 .15-1.2.14-2.26-.79-2.26-2v-22.52c.15-.05.3-.1.45-.15.23-.08.41-.25.49-.48.33-.9.49-1.8.49-2.69s-.16-1.79-.49-2.68c-.08-.23-.26-.41-.49-.49-.15-.06-.3-.11-.45-.15v-3.59c0-1.19 1.05-2.12 2.24-1.99.35.04.7.08 1.04.14-.74.29-1.28 1-1.28 1.85v3.59c.15.04.3.09.45.15.23.08.41.26.49.49.33.89.49 1.79.49 2.68s-.16 1.79-.49 2.69c-.08.23-.26.4-.49.48-.15.05-.3.1-.45.15v22.52c0 .85.53 1.55 1.26 1.85z"/><path d="m49.24 33.5c0 .89-.16 1.79-.49 2.69-.08.23-.26.4-.49.48-.22.08-.44.15-.66.21v8.24c0 .348.119.637.318.866-.693.894-2.318.412-2.318-.866v-8.24c.22-.06.44-.13.66-.21.23-.08.41-.25.49-.48.33-.9.49-1.8.49-2.69s-.16-1.79-.49-2.68c-.08-.23-.26-.41-.49-.49-.22-.08-.44-.15-.66-.22v-11.43c0-.79.67-1.3 1.33-1.3.09 0 .19.01.28.03s.18.05.26.1c.05.03.1.06.15.1.05.03.09.06.12.1.03.03.06.05.07.08.03.03.05.07.06.1-.16.21-.27.48-.27.79v11.43c.22.07.44.14.66.22.23.08.41.26.49.49.33.89.49 1.79.49 2.68z"/></g></g></svg>