<svg id="User_Interface" enable-background="new 0 0 64 64" height="512" viewBox="0 0 64 64" width="512" xmlns="http://www.w3.org/2000/svg"><g><path d="m48.12 45.65c-.42 1.15-1.32 2.05-2.46 2.47-4.56 1.67-9.15 2.51-13.66 2.51s-9.1-.84-13.64-2.51c-1.16-.42-2.06-1.32-2.48-2.46-3.35-9.17-3.36-18.08-.03-27.24.43-1.17 1.35-2.08 2.53-2.5 4.83-1.69 9.59-2.55 14.15-2.55 4.47 0 8.89.83 13.16 2.45 1.11.42 1.99 1.32 2.4 2.45 3.39 9.22 3.4 18.17.03 27.38z" fill="#5ac0a6"/><path d="m51.85 16.9c-.81-2.22-2.53-3.98-4.74-4.82-9.54-3.63-19.56-3.61-30.05.07-2.31.81-4.13 2.6-4.97 4.9-3.63 9.99-3.62 19.98.03 29.97.82 2.26 2.6 4.04 4.86 4.86 10.01 3.67 20.03 3.67 30.04 0 2.26-.82 4.04-2.6 4.86-4.86 3.67-10.04 3.66-20.08-.03-30.12zm-3.73 28.75c-.42 1.15-1.32 2.05-2.46 2.47-4.22 1.55-8.47 2.38-12.66 2.49h-.05c-.31.01-.64.02-.95.02-4.51 0-9.1-.84-13.64-2.51-1.16-.42-2.06-1.32-2.48-2.46-3.35-9.17-3.36-18.08-.03-27.24.43-1.17 1.35-2.08 2.53-2.5 4.23-1.48 8.4-2.32 12.44-2.5h.07c.07 0 .13.01.2.03.07.01.13.04.2.07.49.22.75.81.49 1.34-.25.5-.55 1.04-.86 1.5-.77 1.13-1.73 2.54-2.53 4.26-1.05 2.23-.35 4.4.71 6.09.55.87 1.19 1.61 1.74 2.17h3.72c0-.45-.2-.89-.58-1.19-.02-.02-.9-.72-1.72-1.72-.94-1.15-1.79-2.71-1.15-4.09.69-1.49 1.54-2.73 2.29-3.84.88-1.28 1.66-2.45 1.94-3.64.11-.51.56-.87 1.08-.82 3.14.34 6.24 1.09 9.27 2.24 1.11.42 1.99 1.32 2.4 2.45 3.39 9.22 3.4 18.17.03 27.38z" fill="#434953"/><g fill="#56b297"><path d="m27.94 39.68c.85-.46 1.7-.77 2.54-.94.68-.14 1.35-.18 2.02-.14.17.01.33.03.5.05-1.02.14-2.04.48-3.06 1.03-1.23 2.38-3.1 4.44-4.75 4.44-.32 0-.66-.09-1-.23-.01 0-.01-.01-.02-.01.613-.33 1.537-.926 2.396-1.935.717-.842 1.133-1.672 1.374-2.265z"/><path d="m46.94 35c0-3.38-2.74-6.12-6.13-6.12h2c3.39 0 6.13 2.74 6.13 6.12s-3.38 9.13-6.13 9.13c-.32 0-.65-.1-.98-.24.859-.576 2.455-1.813 3.659-3.964 1.132-2.023 1.386-3.906 1.451-4.926z"/><path d="m33.11 21.88c-.64 1.38.21 2.94 1.15 4.09.82 1 1.7 1.7 1.72 1.72.38.3.58.74.58 1.19h-2c0-.45-.2-.89-.58-1.19-.02-.02-.9-.72-1.72-1.72-.94-1.15-1.79-2.71-1.15-4.09.69-1.49 1.54-2.73 2.29-3.84.88-1.28 1.66-2.45 1.94-3.64.11-.51.56-.87 1.08-.82.44.05.89.12 1.33.19-.2.15-.35.37-.41.63-.28 1.19-1.06 2.36-1.94 3.64-.75 1.11-1.6 2.35-2.29 3.84z"/></g><path d="m46.94 35c0 3.38-3.38 9.13-6.13 9.13-1.65 0-3.52-2.07-4.75-4.45-2.71-1.46-5.41-1.46-8.12 0-1.23 2.38-3.1 4.44-4.75 4.44-2.75 0-6.13-5.74-6.13-9.12s2.74-6.12 6.13-6.12h17.62c3.39 0 6.13 2.74 6.13 6.12z" fill="#e5e7ea"/><circle cx="22.937" cy="35.003" fill="#434953" r="2.5"/><circle cx="40.417" cy="32.667" fill="#fdcc58" r="1"/><circle cx="42.75" cy="35.003" fill="#ea5765" r="1"/><circle cx="38.208" cy="34.917" fill="#6699d1" r="1"/><circle cx="40.417" cy="37.333" fill="#9dcd6a" r="1"/></g></svg>