<svg id="User_Interface" enable-background="new 0 0 64 64" height="512" viewBox="0 0 64 64" width="512" xmlns="http://www.w3.org/2000/svg"><g><path d="m51.88 47.02c-.82 2.26-2.6 4.04-4.86 4.86-10.01 3.67-20.03 3.67-30.04 0-2.26-.82-4.04-2.6-4.86-4.86-3.65-9.99-3.66-19.98-.03-29.97.84-2.3 2.66-4.09 4.97-4.9 10.49-3.68 20.51-3.7 30.05-.07 2.21.84 3.93 2.6 4.74 4.82 3.69 10.04 3.7 20.08.03 30.12z" fill="#62ccae"/><path d="m48.12 45.65c-.42 1.15-1.32 2.05-2.46 2.47-4.56 1.67-9.15 2.51-13.66 2.51s-9.1-.84-13.64-2.51c-1.16-.42-2.06-1.32-2.48-2.46-3.35-9.17-3.36-18.08-.03-27.24.43-1.17 1.35-2.08 2.53-2.5 4.83-1.69 9.59-2.55 14.15-2.55 4.47 0 8.89.83 13.16 2.45 1.11.42 1.99 1.32 2.4 2.45 3.39 9.22 3.4 18.17.03 27.38z" fill="#5ac0a6"/><g><g><path d="m44.38 21c0 .55-.45 1-1 1h-4.38c-.55 0-1-.45-1-1s.45-1 1-1h4.38c.55 0 1 .45 1 1z" fill="#57b59a"/></g></g><g><path d="m42.38 24.81c0 .56-.45 1-1 1h-2.38c-.55 0-1-.44-1-1 0-.55.45-1 1-1h2.38c.55 0 1 .45 1 1z" fill="#57b59a"/></g><g><path d="m44.38 28.62c0 .56-.45 1-1 1h-4.38c-.55 0-1-.44-1-1 0-.55.45-1 1-1h4.38c.55 0 1 .45 1 1z" fill="#57b59a"/></g><g><path d="m42.38 32.44c0 .55-.45 1-1 1h-2.38c-.55 0-1-.45-1-1 0-.56.45-1 1-1h2.38c.55 0 1 .44 1 1z" fill="#57b59a"/></g><g><path d="m44.38 36.25c0 .55-.45 1-1 1h-4.38c-.55 0-1-.45-1-1s.45-1 1-1h4.38c.55 0 1 .45 1 1z" fill="#57b59a"/></g><path d="m38 41.63c0 3.32-2.69 6-6 6s-6-2.68-6-6c0-2.32 1.32-4.33 3.25-5.33v-16.09c0-1.52 1.23-2.75 2.75-2.75.76 0 1.45.31 1.94.8.5.5.81 1.19.81 1.95v16.09c1.93 1 3.25 3.01 3.25 5.33z" fill="#e5e7ea"/><path d="m33 38.31v-14.12c0-.56-.45-1-1-1s-1 .44-1 1v14.12c-1.48.44-2.56 1.79-2.56 3.41 0 1.96 1.6 3.56 3.56 3.56s3.56-1.6 3.56-3.56c0-1.62-1.08-2.97-2.56-3.41zm-1 4.97c-.86 0-1.56-.7-1.56-1.56 0-.87.7-1.57 1.56-1.57s1.56.7 1.56 1.57c0 .86-.7 1.56-1.56 1.56z" fill="#ea5765"/><g><path d="m43.38 20c0 .55-.45 1-1 1h-4.38c-.55 0-1-.45-1-1s.45-1 1-1h4.38c.55 0 1 .45 1 1z" fill="#ea5765"/></g><g><path d="m41.38 23.81c0 .56-.45 1-1 1h-2.38c-.55 0-1-.44-1-1 0-.55.45-1 1-1h2.38c.55 0 1 .45 1 1z" fill="#ea5765"/></g><g><path d="m43.38 27.62c0 .56-.45 1-1 1h-4.38c-.55 0-1-.44-1-1 0-.55.45-1 1-1h4.38c.55 0 1 .45 1 1z" fill="#ea5765"/></g><g><path d="m41.38 31.44c0 .55-.45 1-1 1h-2.38c-.55 0-1-.45-1-1 0-.56.45-1 1-1h2.38c.55 0 1 .44 1 1z" fill="#ea5765"/></g><g><path d="m43.38 35.25c0 .55-.45 1-1 1h-4.38c-.55 0-1-.45-1-1s.45-1 1-1h4.38c.55 0 1 .45 1 1z" fill="#ea5765"/></g></g></svg>