<svg id="User_Interface" enable-background="new 0 0 64 64" height="512" viewBox="0 0 64 64" width="512" xmlns="http://www.w3.org/2000/svg"><g><path d="m49.594 46.898c-.458 1.255-1.441 2.237-2.685 2.696-4.977 1.823-9.987 2.739-14.909 2.739s-9.932-.917-14.887-2.739c-1.266-.458-2.248-1.441-2.707-2.685-3.656-10.008-3.667-19.733-.033-29.731.469-1.277 1.473-2.27 2.761-2.729 5.272-1.845 10.467-2.783 15.444-2.783 4.879 0 9.703.906 14.363 2.674 1.211.458 2.172 1.441 2.619 2.674 3.701 10.064 3.712 19.832.034 29.884z" fill="#fdcc58"/><path d="m51.85 16.9c-.81-2.22-2.53-3.98-4.74-4.82-9.54-3.63-19.56-3.61-30.05.07-2.31.81-4.13 2.6-4.97 4.9-3.63 9.99-3.62 19.98.03 29.97.82 2.26 2.6 4.04 4.86 4.86 10.01 3.67 20.03 3.67 30.04 0 2.26-.82 4.04-2.6 4.86-4.86 3.67-10.04 3.66-20.08-.03-30.12zm-3.73 28.75c-.42 1.14-1.31 2.05-2.45 2.47-.95.34-1.88.65-2.83.93-.2.06-.4.1-.6.14-.01 0-.01 0-.02 0-.16.03-.33.06-.49.07-.59.06-1.19.03-1.76-.12-3.12-.8-4.38-3.94-4.88-6.47-1 .07-2.01.01-3-.13h-.18c-.98.14-1.99.2-2.99.13-.51 2.53-1.76 5.65-4.88 6.46-.53.14-1.08.18-1.62.13-.06 0-.11-.01-.17-.01-.21-.02-.41-.05-.61-.09-.17-.03-.33-.07-.5-.12-.92-.28-1.85-.58-2.78-.92-1.16-.42-2.06-1.32-2.48-2.46-3.35-9.17-3.36-18.08-.03-27.24.43-1.17 1.35-2.08 2.53-2.5 4.83-1.69 9.59-2.55 14.15-2.55.32 0 .63.01.95.02h.06c4.13.11 8.2.93 12.15 2.43 1.11.42 1.99 1.32 2.4 2.45 3.39 9.22 3.4 18.17.03 27.38z" fill="#62ccae"/><path d="m44.75 24.55c-.49.82-.97 1.74-1.08 1.96-.76 1.54-.74 3.39-.52 5.05.13 1.03.33 2.07.32 3.11-.01 2.34-1.54 4.84-3.39 6.25-.7.54-1.48.94-2.3 1.22-.2.07-.41.13-.62.19-.61.17-1.24.27-1.87.32-.04.01-.09.01-.13.01-.02.01-.05.01-.07.01-1 .07-2.01.01-3-.13h-.18c-.98.14-1.99.2-2.99.13-1.8-.12-3.54-.64-5-1.75-1.85-1.41-3.38-3.91-3.39-6.25-.01-1.04.19-2.08.32-3.11.22-1.66.24-3.51-.52-5.05-.11-.22-.59-1.14-1.08-1.96-.41-.69.15-1.53.94-1.43.41.05.82.13 1.22.25.02 0 .03.01.05.01.16.05.32.1.48.15.18.05.35.11.52.18s.34.13.51.21c.17.07.33.14.49.22.04.02.07.04.11.06l.06-.06.54-.53 2.45-2.44 3.19 3.19c.29-.43.56-.83.81-1.19.86-1.24 1.47-2.05 1.47-2.05s.4.52 1 1.37c.06.09.13.18.19.28.06.09.13.19.2.29.17.24.35.5.53.78.12.17.23.34.35.52l3.19-3.19 1 1 1.99 1.97c.22-.11.46-.21.7-.31.23-.09.48-.19.72-.27.6-.21 1.22-.36 1.85-.44.31-.04.58.07.78.25.3.29.41.76.16 1.18z" fill="#a491c4"/><path d="m39.21 34.49c0 2.91-1.76 5.94-4.28 7.3-.87.48-1.83.75-2.84.75h-.18c-1.01-.03-1.97-.34-2.83-.84-2.44-1.4-4.12-4.36-4.12-7.21 0-1.76 1.43-4.62 3.01-7.24.61-1.03 1.25-2.02 1.84-2.89.29-.43.56-.83.81-1.19.86-1.24 1.47-2.05 1.47-2.05s.4.52 1 1.37c.06.09.13.18.19.28.06.09.13.19.2.29.17.24.35.5.53.78.12.17.23.34.35.52.58.84 1.19 1.8 1.79 2.8 1.6 2.65 3.06 5.55 3.06 7.33z" fill="#a491c4"/><path d="m23.57 24.2c2.05 1 3.66 2.39 4.27 2.95l.13.1c-1.58 2.62-3.01 5.48-3.01 7.24 0 2.85 1.68 5.81 4.12 7.21.86.5 1.82.81 2.83.84-.98.14-1.99.2-2.99.13-1.8-.12-3.54-.64-5-1.75-1.85-1.41-3.38-3.91-3.39-6.25-.01-1.04.19-2.08.32-3.11.22-1.66.24-3.51-.52-5.05-.11-.22-.59-1.14-1.08-1.96-.41-.69.15-1.53.94-1.43.493.073 1.064.193 1.686.388.662.208 1.229.455 1.694.692z" fill="#9688b5"/><path d="m40.54 24.14c-2.1 1.01-3.76 2.44-4.38 3.01l-.01.01c-.6-1-1.21-1.96-1.79-2.8l3.19-3.19 1 1z" fill="#8a80a8"/><path d="m44.75 24.55c-.49.82-.97 1.74-1.08 1.96-.76 1.54-.74 3.39-.52 5.05.13 1.03.33 2.07.32 3.11-.01 2.34-1.54 4.84-3.39 6.25-.7.54-1.48.94-2.3 1.22-.2.07-.41.13-.62.19-.61.17-1.24.27-1.87.32-.04.01-.09.01-.13.01-.02.01-.05.01-.07.01-1 .07-2.01.01-3-.13 1.01 0 1.97-.27 2.84-.75 2.52-1.36 4.28-4.39 4.28-7.3 0-1.78-1.46-4.68-3.06-7.33l.01-.01c.62-.57 2.28-2 4.38-3.01.22-.11.46-.21.7-.31.23-.09.48-.19.72-.27.6-.21 1.22-.36 1.85-.44.31-.04.58.07.78.25.3.29.41.76.16 1.18z" fill="#9688b5"/><path d="m29.81 24.36c-.59.87-1.23 1.86-1.84 2.89l-.13-.1c-.61-.56-2.22-1.95-4.27-2.95l.06-.06.54-.53 2.45-2.44z" fill="#8a80a8"/><g fill="#f4bf56"><path d="m42.22 49.19c-.17.03-.33.05-.49.07-.59.06-1.19.03-1.76-.12-3.12-.8-4.38-3.94-4.88-6.47.02 0 .05 0 .07-.01.03 0 .06-.01.08-.01h.05c.6.04 1.21.06 1.8.02.5 2.53 1.76 5.67 4.88 6.47.08.02.17.03.25.05z"/><path d="m46.75 24.55c-.49.82-.97 1.74-1.08 1.96-.76 1.54-.74 3.39-.52 5.05.13 1.03.33 2.07.32 3.11-.01 2.34-1.54 4.84-3.39 6.25-1.45 1.11-3.2 1.63-4.99 1.75-.59.04-1.2.02-1.8-.02.64-.06 1.26-.16 1.87-.32.21-.06.42-.12.62-.19.82-.28 1.6-.68 2.3-1.22 1.85-1.41 3.38-3.91 3.39-6.25.01-1.04-.19-2.08-.32-3.11-.22-1.66-.24-3.51.52-5.05.11-.22.59-1.14 1.08-1.96.25-.42.14-.89-.16-1.18.4-.11.81-.2 1.22-.25.79-.1 1.35.74.94 1.43z"/><path d="m35.55 23.17-1.19 1.19c-.12-.18-.23-.35-.35-.52-.18-.28-.36-.54-.53-.78-.07-.1-.14-.2-.2-.29-.07-.09-.13-.18-.19-.27v-.01c.6-.84 1-1.37 1-1.37s.61.81 1.46 2.05z"/><path d="m21.41 23.37c.2-.18.47-.29.78-.25.67.08 1.34.26 1.98.49l-.54.53-.06.06c-.328-.166-.698-.334-1.11-.49-.372-.141-.725-.252-1.05-.34z"/><path d="m41.96 23.56c-.25.08-.49.17-.72.27-.24.1-.48.2-.7.31l-1.99-1.97 1-1z"/><path d="m30.62 23.17c-.25.36-.52.76-.81 1.19l-2.19-2.19 1-1z"/></g></g></svg>