<svg id="User_Interface" enable-background="new 0 0 64 64" height="512" viewBox="0 0 64 64" width="512" xmlns="http://www.w3.org/2000/svg"><g><path d="m48.12 45.65c-.42 1.15-1.32 2.05-2.46 2.47-4.56 1.67-9.15 2.51-13.66 2.51s-9.1-.84-13.64-2.51c-1.16-.42-2.06-1.32-2.48-2.46-3.35-9.17-3.36-18.08-.03-27.24.43-1.17 1.35-2.08 2.53-2.5 4.83-1.69 9.59-2.55 14.15-2.55 4.47 0 8.89.83 13.16 2.45 1.11.42 1.99 1.32 2.4 2.45 3.39 9.22 3.4 18.17.03 27.38z" fill="#5ac0a6"/><g><g><g><path d="m39.15 49.93c-.3.05-.6.12-.9.17-1.06.18-1.98-.62-2.11-1.68v-.05c-.09-.67-.38-1.27-.8-1.75-.05-.06-.1-.12-.16-.18-.25-.24-.52-.45-.83-.63-.16-.09-.34-.17-.52-.24-.09-.03-.19-.07-.28-.09-.1-.03-.19-.05-.28-.08-.01 0-.02 0-.02 0-.09-.02-.18-.03-.27-.05.14-.01.28-.04.42-.04h1.05c1.81 0 3.45 1.27 3.69 3.06v.05c.08.66.47 1.22 1.01 1.51z" fill="#51a58b"/></g></g></g><path d="m42.18 30.64-.24.42-1.78 3.04c-.4-.21-.81-.39-1.24-.55-2.19-.84-4.49-1.26-6.82-1.26-2.24 0-4.49.39-6.7 1.17-.2.07-.41.15-.61.23s-.4.16-.59.26c-.11.04-.22.09-.33.15l-2.02-3.45c.72-.38 1.46-.7 2.23-.97 2.63-.92 5.33-1.39 8.02-1.39 2.82 0 5.59.51 8.24 1.52.63.24 1.25.52 1.84.83z" fill="#e5e7ea"/><path d="m46.22 23.74-.22.38-1.8 3.07c-.78-.43-1.6-.8-2.44-1.12-3.1-1.18-6.35-1.78-9.66-1.78-3.14 0-6.29.54-9.34 1.61-.46.16-.9.33-1.34.52-.44.18-.86.38-1.28.61-.11.05-.21.1-.32.16l-2.02-3.44c1.16-.64 2.38-1.18 3.65-1.62 3.47-1.22 7.06-1.84 10.65-1.84 3.8 0 7.52.69 11.09 2.04 1.04.4 2.06.87 3.03 1.41z" fill="#e5e7ea"/><path d="m43.18 31.64-2.02 3.46c-.4-.21-.81-.39-1.24-.55-2.19-.84-4.49-1.26-6.82-1.26-2.24 0-4.49.39-6.7 1.17-.53.18-1.04.39-1.53.64l-.67-1.15c.2-.09.39-.18.59-.26s.41-.16.61-.23c2.21-.78 4.46-1.17 6.7-1.17 2.33 0 4.63.42 6.82 1.26.43.16.84.34 1.24.55l1.78-3.04c.42.18.84.37 1.24.58z" fill="#51a58b"/><path d="m47.22 24.74-2.02 3.45c-.78-.43-1.6-.8-2.44-1.12-3.1-1.18-6.35-1.78-9.66-1.78-3.14 0-6.29.54-9.34 1.61-1.02.35-2 .78-2.94 1.29l-.68-1.16c.42-.21.85-.42 1.28-.61.44-.19.88-.36 1.34-.52 3.05-1.07 6.2-1.61 9.34-1.61 3.31 0 6.56.6 9.66 1.78.84.32 1.66.69 2.44 1.12l1.8-3.07c.41.2.82.4 1.22.62z" fill="#51a58b"/><path d="m51.85 16.9c-.81-2.22-2.53-3.98-4.74-4.82-9.54-3.63-19.56-3.61-30.05.07-2.31.81-4.13 2.6-4.97 4.9-3.63 9.99-3.62 19.98.03 29.97.82 2.26 2.6 4.04 4.86 4.86 10.01 3.67 20.03 3.67 30.04 0 2.26-.82 4.04-2.6 4.86-4.86 3.67-10.04 3.66-20.08-.03-30.12zm-3.73 28.75c-.42 1.15-1.32 2.05-2.46 2.47-2.47.9-4.95 1.57-7.41 1.98-1.06.18-1.98-.62-2.11-1.68v-.05c-.24-1.79-1.88-3.06-3.69-3.06h-1.05c-.97 0-1.85.4-2.49 1.04s-1.04 1.52-1.04 2.49c0 .84-.67 1.48-1.48 1.36-2.68-.41-5.36-1.1-8.03-2.08-1.16-.42-2.06-1.32-2.48-2.46-3.35-9.17-3.36-18.08-.03-27.24.43-1.17 1.35-2.08 2.53-2.5 2.19-.77 4.37-1.36 6.52-1.79 2.59-.5 5.14-.76 7.63-.76 4.47 0 8.89.83 13.16 2.45 1.11.42 1.99 1.32 2.4 2.45 3.39 9.22 3.4 18.17.03 27.38z" fill="#e5e7ea"/><path d="m27.824 36.778c1.425-.392 2.861-.588 4.286-.588 1.86 0 3.7.34 5.46 1.01.21.08.42.17.63.27l-2.03 3.48c-1.33-.51-2.69-.76-4.06-.76s-2.76.24-4.15.73c-.03.01-.06.02-.09.04l-2.04-3.48c.26-.12.53-.23.81-.33.393-.139.788-.263 1.184-.372z" fill="#e5e7ea"/><path d="m38.57 38.2c-.22-.084-.445-.147-.667-.22l-1.733 2.97c-1.33-.51-2.69-.76-4.06-.76-1.286 0-2.591.22-3.896.652l.656 1.118c.03-.02.06-.03.09-.04 1.39-.49 2.78-.73 4.15-.73s2.73.25 4.06.76l2.03-3.48c-.21-.1-.42-.19-.63-.27z" fill="#51a58b"/></g></svg>