<svg id="User_Interface" enable-background="new 0 0 64 64" height="512" viewBox="0 0 64 64" width="512" xmlns="http://www.w3.org/2000/svg"><g><path d="m51.88 47.02c-.82 2.26-2.6 4.04-4.86 4.86-10.01 3.67-20.03 3.67-30.04 0-2.26-.82-4.04-2.6-4.86-4.86-3.65-9.99-3.66-19.98-.03-29.97.84-2.3 2.66-4.09 4.97-4.9 10.49-3.68 20.51-3.7 30.05-.07 2.21.84 3.93 2.6 4.74 4.82 3.69 10.04 3.7 20.08.03 30.12z" fill="#6ea7db"/><path d="m48.12 45.65c-.42 1.15-1.32 2.05-2.46 2.47-4.56 1.67-9.15 2.51-13.66 2.51s-9.1-.84-13.64-2.51c-1.16-.42-2.06-1.32-2.48-2.46-3.35-9.17-3.36-18.08-.03-27.24.43-1.17 1.35-2.08 2.53-2.5 4.83-1.69 9.59-2.55 14.15-2.55 4.47 0 8.89.83 13.16 2.45 1.11.42 1.99 1.32 2.4 2.45 3.39 9.22 3.4 18.17.03 27.38z" fill="#6699d1"/><g><path d="m27.59 20.66c0 1.01-.82 1.83-1.83 1.83h-3.27v3.27c0 1.01-.82 1.83-1.83 1.83s-1.83-.82-1.83-1.83v-5.1c0-1.01.82-1.83 1.83-1.83h5.1c1.01 0 1.83.82 1.83 1.83z" fill="#e5e7ea"/></g><g fill="#6194c1"><path d="m24.49 25.76v-3.27h-2v3.27c0 .641-.331 1.203-.83 1.53.288.189.63.3 1 .3 1.01 0 1.83-.82 1.83-1.83z"/><path d="m27.76 18.83h-2c1.01 0 1.83.82 1.83 1.83s-.82 1.83-1.83 1.83h2c1.01 0 1.83-.82 1.83-1.83s-.82-1.83-1.83-1.83z"/></g><g><path d="m45.17 20.66v5.1c0 1.01-.82 1.83-1.83 1.83s-1.83-.82-1.83-1.83v-3.27h-3.27c-1.01 0-1.83-.82-1.83-1.83s.82-1.83 1.83-1.83h5.1c1.01 0 1.83.82 1.83 1.83z" fill="#e5e7ea"/></g><path d="m47.17 25.76v-5.1c0-1.01-.82-1.83-1.83-1.83h-2c1.01 0 1.83.82 1.83 1.83v5.1c0 .641-.331 1.203-.83 1.53.288.189.631.3 1 .3 1.01 0 1.83-.82 1.83-1.83z" fill="#6194c1"/><g><path d="m27.59 43.34c0 1.01-.82 1.83-1.83 1.83h-5.1c-1.01 0-1.83-.82-1.83-1.83v-5.1c0-1.01.82-1.83 1.83-1.83s1.83.82 1.83 1.83v3.27h3.27c1.01 0 1.83.82 1.83 1.83z" fill="#e5e7ea"/></g><g fill="#6194c1"><path d="m25.76 45.17h2c1.01 0 1.83-.82 1.83-1.83s-.82-1.83-1.83-1.83h-2c1.01 0 1.83.82 1.83 1.83s-.82 1.83-1.83 1.83z"/><path d="m24.49 41.51v-3.27c0-1.01-.82-1.83-1.83-1.83-.369 0-.712.112-1 .3.499.327.83.889.83 1.53v3.27z"/></g><g><path d="m45.17 38.24v5.1c0 1.01-.82 1.83-1.83 1.83h-5.1c-1.01 0-1.83-.82-1.83-1.83s.82-1.83 1.83-1.83h3.27v-3.27c0-1.01.82-1.83 1.83-1.83s1.83.82 1.83 1.83z" fill="#e5e7ea"/></g><path d="m47.17 43.34v-5.1c0-1.01-.82-1.83-1.83-1.83-.369 0-.712.112-1 .3.499.327.83.889.83 1.53v5.1c0 1.01-.82 1.83-1.83 1.83h2c1.01 0 1.83-.82 1.83-1.83z" fill="#6194c1"/><g fill="#434953"><path d="m29.68 26.62v10.78c0 .27-.23.5-.5.5h-2.02c-.28 0-.5-.23-.5-.5v-10.78c0-.28.22-.5.5-.5h2.02c.27 0 .5.22.5.5z"/><path d="m25.88 26.62v10.78c0 .27-.23.5-.5.5h-.4c-.28 0-.5-.23-.5-.5v-10.78c0-.28.22-.5.5-.5h.4c.27 0 .5.22.5.5z"/><path d="m33.53 26.61v10.78c0 .28-.22.5-.5.5h-2.07c-.27 0-.5-.22-.5-.5v-10.78c0-.27.23-.5.5-.5h2.07c.28 0 .5.23.5.5z"/><path d="m39.04 26.62v10.78c0 .27-.23.5-.5.5h-1.46c-.27 0-.5-.23-.5-.5v-10.78c0-.28.23-.5.5-.5h1.46c.27 0 .5.22.5.5z"/><path d="m35.54 26.61v10.78c0 .28-.22.5-.5.5h-.33c-.27 0-.5-.22-.5-.5v-10.78c0-.28.23-.5.5-.5h.33c.28 0 .5.22.5.5z"/></g></g></svg>