<?xml version="1.0" encoding="iso-8859-1"?>
<!-- Generator: Adobe Illustrator 19.0.0, SVG Export Plug-In . SVG Version: 6.00 Build 0)  -->
<svg version="1.1" id="Capa_1" xmlns="http://www.w3.org/2000/svg" xmlns:xlink="http://www.w3.org/1999/xlink" x="0px" y="0px"
	 viewBox="0 0 512 512" style="enable-background:new 0 0 512 512;" xml:space="preserve">
<g style="opacity:0.08;">
	<circle cx="256" cy="260.197" r="251.803"/>
</g>
<linearGradient id="SVGID_1_" gradientUnits="userSpaceOnUse" x1="-12.6621" y1="576.4395" x2="-12.6621" y2="636.4395" gradientTransform="matrix(8.3934 0 0 -8.3934 362.2788 5341.9175)">
	<stop  offset="0" style="stop-color:#3871E9"/>
	<stop  offset="1" style="stop-color:#61C5F6"/>
</linearGradient>
<circle style="fill:url(#SVGID_1_);" cx="256" cy="251.803" r="251.803"/>
<g style="opacity:0.48;enable-background:new    ;">
	<g>
		<path style="fill:#FFFFFF;" d="M353.96,334.412c20.891-30.2,47.801-55.917,78.991-75.423
			c16.745,27.019,37.888,51.024,62.388,71.059c1.905-5.825,3.609-11.734,5.095-17.735c-20.606-17.794-38.559-38.593-52.996-61.826
			c18.516-10.03,38.35-17.903,59.149-23.393c-0.554-5.657-1.326-11.247-2.241-16.795c-23.015,5.884-44.93,14.546-65.343,25.659
			c-20.346-37.804-31.92-80.988-31.92-126.842c0-17.836,1.788-35.252,5.12-52.123c0.311-0.638,0.554-1.301,0.856-1.939
			c-4.885-3.903-9.896-7.655-15.066-11.197c-0.613,2.568-1.326,5.095-1.855,7.697c-43.906,88.719-135.361,149.89-240.858,149.89
			c-3.886,0-7.73-0.126-11.575-0.294C174.701,107.545,255.849,36.57,355.177,20.312c-9.72-4.172-19.775-7.697-30.082-10.634
			c-94.3,25.197-169.522,97.557-198.681,190.195c-38.585-4.146-74.727-16.518-106.689-35.286c-1.964,5.33-3.71,10.76-5.321,16.258
			c32.407,18.466,68.734,30.821,107.428,35.362c-5.54,22.159-8.519,45.325-8.519,69.17c0,12.724,0.923,25.222,2.543,37.51
			c-29.763,12.028-56.924,29.066-80.745,49.849c2.736,4.977,5.666,9.829,8.721,14.596c22.016-19.657,47.163-35.874,74.752-47.49
			c12.246,63.068,45.392,118.675,91.816,159.559c10.316,1.888,20.841,3.198,31.559,3.785
			c-55.153-39.81-94.712-99.941-107.411-169.405c27.564-9.56,57.109-14.831,87.879-14.831c38.081,0,74.307,8.016,107.159,22.369
			c-25.382,42.639-40.012,92.378-40.012,145.5c0,4.843,0.168,9.652,0.411,14.437c5.607-0.755,11.18-1.628,16.661-2.753
			c-0.159-3.878-0.285-7.764-0.285-11.684c0-50.537,14.051-97.842,38.417-138.257c36.411,18.717,68.012,45.509,92.42,78
			c3.945-4.088,7.756-8.293,11.415-12.632C423.298,381.029,391.034,353.75,353.96,334.412z M338.642,327
			c-35.529-15.914-74.836-24.836-116.216-24.836c-31.601,0-61.977,5.238-90.414,14.764c-1.217-10.357-1.914-20.874-1.914-31.551
			c0-23.367,3.013-46.038,8.645-67.66c5.481,0.311,10.979,0.512,16.535,0.512c97.641,0,183.959-49.311,235.428-124.324
			c-0.26,5.036-0.411,10.106-0.411,15.209c0,48.951,12.397,95.056,34.203,135.361C390.446,265.694,361.136,293.846,338.642,327z"/>
	</g>
</g>
<linearGradient id="SVGID_2_" gradientUnits="userSpaceOnUse" x1="-9.6621" y1="583.4395" x2="-9.6621" y2="631.4395" gradientTransform="matrix(8.3934 0 0 -8.3934 362.2788 5341.9175)">
	<stop  offset="0" style="stop-color:#E2EFF6"/>
	<stop  offset="1" style="stop-color:#FFFFFF"/>
</linearGradient>
<path style="fill:url(#SVGID_2_);" d="M130.098,235.016c-13.908,0-25.18-11.272-25.18-25.18s11.272-25.18,25.18-25.18
	s25.18,11.272,25.18,25.18S144.006,235.016,130.098,235.016z M230.82,41.967c-13.908,0-25.18,11.272-25.18,25.18
	s11.272,25.18,25.18,25.18S256,81.055,256,67.148S244.728,41.967,230.82,41.967z M432.262,218.229
	c-13.908,0-25.18,11.272-25.18,25.18s11.272,25.18,25.18,25.18c13.908,0,25.18-11.272,25.18-25.18S446.17,218.229,432.262,218.229z
	 M281.18,293.77c-13.908,0-25.18,11.272-25.18,25.18c0,13.908,11.272,25.18,25.18,25.18s25.18-11.272,25.18-25.18
	C306.361,305.043,295.088,293.77,281.18,293.77z M155.279,394.492c-13.908,0-25.18,11.272-25.18,25.18
	c0,13.908,11.272,25.18,25.18,25.18c13.908,0,25.18-11.272,25.18-25.18C180.459,405.764,169.187,394.492,155.279,394.492z"/>
<radialGradient id="SVGID_3_" cx="-32.1931" cy="631.5605" r="17.9998" gradientTransform="matrix(10.7251 0 0 8.3934 601.2754 -5116.311)" gradientUnits="userSpaceOnUse">
	<stop  offset="0" style="stop-color:#FFFFFF"/>
	<stop  offset="0.9" style="stop-color:#E2EFF6;stop-opacity:0"/>
</radialGradient>
<ellipse style="opacity:0.5;fill:url(#SVGID_3_);enable-background:new    ;" cx="256" cy="184.656" rx="193.049" ry="151.082"/>
<g style="opacity:0.16;">
	<path d="M256,0C116.929,0,4.197,112.732,4.197,251.803S116.929,503.607,256,503.607s251.803-112.732,251.803-251.803
		S395.071,0,256,0z M256,495.213c-134.429,0-243.41-108.98-243.41-243.41S121.571,8.393,256,8.393s243.41,108.98,243.41,243.41
		S390.429,495.213,256,495.213z"/>
</g>
<g>
</g>
<g>
</g>
<g>
</g>
<g>
</g>
<g>
</g>
<g>
</g>
<g>
</g>
<g>
</g>
<g>
</g>
<g>
</g>
<g>
</g>
<g>
</g>
<g>
</g>
<g>
</g>
<g>
</g>
</svg>
