<svg id="User_Interface" enable-background="new 0 0 64 64" height="512" viewBox="0 0 64 64" width="512" xmlns="http://www.w3.org/2000/svg"><g><path d="m51.88 47.02c-.82 2.26-2.6 4.04-4.86 4.86-10.01 3.67-20.03 3.67-30.04 0-2.26-.82-4.04-2.6-4.86-4.86-3.65-9.99-3.66-19.98-.03-29.97.84-2.3 2.66-4.09 4.97-4.9 10.49-3.68 20.51-3.7 30.05-.07 2.21.84 3.93 2.6 4.74 4.82 3.69 10.04 3.7 20.08.03 30.12z" fill="#6ea7db"/><path d="m48.12 45.65c-.42 1.15-1.32 2.05-2.46 2.47-4.56 1.67-9.15 2.51-13.66 2.51s-9.1-.84-13.64-2.51c-1.16-.42-2.06-1.32-2.48-2.46-3.35-9.17-3.36-18.08-.03-27.24.43-1.17 1.35-2.08 2.53-2.5 4.83-1.69 9.59-2.55 14.15-2.55 4.47 0 8.89.83 13.16 2.45 1.11.42 1.99 1.32 2.4 2.45 3.39 9.22 3.4 18.17.03 27.38z" fill="#6699d1"/><path d="m43.14 20.79c-2.04 3.92-2.78 8.06-2.58 12.35h-17.12c.2-4.29-.54-8.43-2.58-12.35-.38-.73.13-1.6.95-1.6h1.78c.23 0 .42.13.51.34l1.04 2.59c.18.45.82.46 1 .01l1.11-2.61c.09-.2.28-.33.5-.33h2.15l2.1 2.93 1.89-2.93h2.33c.23 0 .44.14.51.36l1.11 3.31c.17.49.87.49 1.03-.01l1.05-3.29c.07-.22.28-.37.52-.37h1.75c.82 0 1.33.87.95 1.6z" fill="#e5e7ea"/><g><g><g><path d="m26.14 22.13.003-.007c-.001-.002-.002-.002-.003-.003l-1.04-2.59c-.09-.21-.28-.34-.51-.34h-1c.23 0 .42.13.51.34l1.04 2.59c.18.45.82.46 1 .01z" fill="#6194c1"/></g><g><path d="m37.73 19.55c-.07-.22-.28-.36-.51-.36h-1c.23 0 .44.14.51.36l1.11 3.31c.166.479.832.482 1.012.015-.003-.007-.009-.008-.012-.015z" fill="#6194c1"/></g><g><path d="m43.19 19.19h-1c.82 0 1.33.87.95 1.6-2.04 3.92-2.78 8.06-2.58 12.35h.25.75c-.2-4.29.54-8.43 2.58-12.35.38-.73-.13-1.6-.95-1.6z" fill="#6194c1"/></g><g><path d="m29.9 19.19 2.1 2.93.474-.734-1.574-2.196z" fill="#6194c1"/></g></g></g><path d="m34.5 44.28c.09 1.44-1.06 2.65-2.5 2.65s-2.59-1.21-2.5-2.65l1.07-7.93h2.86z" fill="#434953"/><path d="m34.5 44.28c.079 1.268-.804 2.356-2 2.598.162.033.328.052.5.052 1.44 0 2.59-1.21 2.5-2.65l-1.07-7.93h-1z" fill="#6194c1"/><path d="m42.21 34.54v.41c0 .77-.63 1.4-1.4 1.4h-17.57c-.77 0-1.4-.63-1.4-1.4v-.41c0-.77.63-1.4 1.4-1.4h17.57c.77 0 1.4.63 1.4 1.4z" fill="#434953"/><path d="m40.81 36.35h1c.77 0 1.4-.63 1.4-1.4v-.41c0-.77-.63-1.4-1.4-1.4h-1c.77 0 1.4.63 1.4 1.4v.41c0 .77-.63 1.4-1.4 1.4z" fill="#6194c1"/></g></svg>