<?xml version="1.0" encoding="iso-8859-1"?>
<!-- Generator: Adobe Illustrator 19.0.0, SVG Export Plug-In . SVG Version: 6.00 Build 0)  -->
<svg version="1.1" id="Capa_1" xmlns="http://www.w3.org/2000/svg" xmlns:xlink="http://www.w3.org/1999/xlink" x="0px" y="0px"
	 viewBox="0 0 512 512" style="enable-background:new 0 0 512 512;" xml:space="preserve">
<g style="opacity:0.08;">
	<circle cx="256" cy="260.197" r="251.803"/>
</g>
<linearGradient id="SVGID_1_" gradientUnits="userSpaceOnUse" x1="-12.6621" y1="576.4395" x2="-12.6621" y2="636.4395" gradientTransform="matrix(8.3934 0 0 -8.3934 362.2788 5341.9175)">
	<stop  offset="0" style="stop-color:#2D2A2A"/>
	<stop  offset="1" style="stop-color:#544F4F"/>
</linearGradient>
<circle style="fill:url(#SVGID_1_);" cx="256" cy="251.803" r="251.803"/>
<linearGradient id="SVGID_2_" gradientUnits="userSpaceOnUse" x1="-12.6621" y1="579.4395" x2="-12.6621" y2="633.4395" gradientTransform="matrix(8.3934 0 0 -8.3934 362.2788 5341.9175)">
	<stop  offset="0" style="stop-color:#ECECEC"/>
	<stop  offset="1" style="stop-color:#FFFFFF"/>
</linearGradient>
<circle style="fill:url(#SVGID_2_);" cx="256" cy="251.803" r="226.623"/>
<g style="opacity:0.16;">
	
		<linearGradient id="SVGID_3_" gradientUnits="userSpaceOnUse" x1="-12.6621" y1="633.4395" x2="-12.6621" y2="579.4395" gradientTransform="matrix(8.3934 0 0 -8.3934 362.2788 5341.9175)">
		<stop  offset="0" style="stop-color:#000000"/>
		<stop  offset="0.36" style="stop-color:#000000;stop-opacity:0"/>
	</linearGradient>
	<path style="fill:url(#SVGID_3_);" d="M256,25.18c-125.163,0-226.623,101.46-226.623,226.623S130.837,478.426,256,478.426
		s226.623-101.46,226.623-226.623S381.163,25.18,256,25.18z M256,470.033c-120.521,0-218.229-97.708-218.229-218.23
		S135.479,33.574,256,33.574s218.23,97.708,218.23,218.229S376.521,470.033,256,470.033z"/>
</g>
<g style="opacity:0.16;">
	
		<linearGradient id="SVGID_4_" gradientUnits="userSpaceOnUse" x1="-12.6621" y1="576.4395" x2="-12.6621" y2="636.4395" gradientTransform="matrix(8.3934 0 0 -8.3934 362.2788 5341.9175)">
		<stop  offset="0" style="stop-color:#000000"/>
		<stop  offset="0.36" style="stop-color:#000000;stop-opacity:0"/>
	</linearGradient>
	<path style="fill:url(#SVGID_4_);" d="M256,0C116.929,0,4.197,112.732,4.197,251.803S116.929,503.607,256,503.607
		s251.803-112.732,251.803-251.803S395.071,0,256,0z M256,486.82c-129.796,0-235.016-105.22-235.016-235.016
		S126.204,16.787,256,16.787s235.016,105.22,235.016,235.016C490.874,381.541,385.737,486.677,256,486.82z"/>
</g>
<g style="opacity:0.24;">
	<path d="M256,0C116.929,0,4.197,112.732,4.197,251.803S116.929,503.607,256,503.607s251.803-112.732,251.803-251.803
		S395.071,0,256,0z M256,495.213c-134.429,0-243.41-108.98-243.41-243.41S121.571,8.393,256,8.393s243.41,108.98,243.41,243.41
		S390.429,495.213,256,495.213z"/>
</g>
<g>
	<g>
		<g style="opacity:0.36;">
			
				<line style="fill:none;stroke:#6A6A6A;stroke-linecap:round;stroke-linejoin:round;" x1="256" y1="46.164" x2="256" y2="62.951"/>
			
				<line style="fill:none;stroke:#6A6A6A;stroke-linecap:round;stroke-linejoin:round;" x1="401.408" y1="106.395" x2="389.54" y2="118.264"/>
			
				<line style="fill:none;stroke:#6A6A6A;stroke-linecap:round;stroke-linejoin:round;" x1="461.639" y1="251.803" x2="444.852" y2="251.803"/>
			
				<line style="fill:none;stroke:#6A6A6A;stroke-linecap:round;stroke-linejoin:round;" x1="401.408" y1="397.178" x2="389.54" y2="385.343"/>
			
				<line style="fill:none;stroke:#6A6A6A;stroke-linecap:round;stroke-linejoin:round;" x1="256" y1="457.443" x2="256" y2="440.656"/>
			
				<line style="fill:none;stroke:#6A6A6A;stroke-linecap:round;stroke-linejoin:round;" x1="110.592" y1="397.178" x2="122.46" y2="385.343"/>
			
				<line style="fill:none;stroke:#6A6A6A;stroke-linecap:round;stroke-linejoin:round;" x1="50.361" y1="251.803" x2="67.148" y2="251.803"/>
			
				<line style="fill:none;stroke:#6A6A6A;stroke-linecap:round;stroke-linejoin:round;" x1="110.592" y1="106.395" x2="122.46" y2="118.264"/>
		</g>
		
			<line style="fill:none;stroke:#6A6A6A;stroke-width:2;stroke-linecap:round;stroke-linejoin:round;" x1="246.348" y1="238.038" x2="159.727" y2="114.319"/>
	</g>
	<g>
		
			<line style="fill:none;stroke:#F4413D;stroke-width:2;stroke-linecap:round;stroke-linejoin:round;" x1="244.165" y1="263.638" x2="145.71" y2="362.093"/>
		
			<line style="fill:none;stroke:#F4413D;stroke-width:2;stroke-linecap:round;stroke-linejoin:round;" x1="279.753" y1="228.05" x2="267.835" y2="239.969"/>
	</g>
</g>
<path style="fill:#413D3D;" d="M256,226.623c-13.908,0-25.18,11.272-25.18,25.18c0,13.908,11.272,25.18,25.18,25.18
	c13.908,0,25.18-11.272,25.18-25.18C281.18,237.895,269.908,226.623,256,226.623z M256,260.197c-4.633,0-8.393-3.76-8.393-8.393
	c0-4.633,3.76-8.393,8.393-8.393c4.633,0,8.393,3.76,8.393,8.393C264.393,256.436,260.633,260.197,256,260.197z"/>
<line style="fill:none;stroke:#413D3D;stroke-width:2;stroke-linecap:round;stroke-linejoin:round;" x1="362.765" y1="314.754" x2="270.521" y2="260.197"/>
<g>
</g>
<g>
</g>
<g>
</g>
<g>
</g>
<g>
</g>
<g>
</g>
<g>
</g>
<g>
</g>
<g>
</g>
<g>
</g>
<g>
</g>
<g>
</g>
<g>
</g>
<g>
</g>
<g>
</g>
</svg>
