<svg id="User_Interface" enable-background="new 0 0 64 64" height="512" viewBox="0 0 64 64" width="512" xmlns="http://www.w3.org/2000/svg"><g><path d="m51.88 47.02c-.82 2.26-2.6 4.04-4.86 4.86-10.01 3.67-20.03 3.67-30.04 0-2.26-.82-4.04-2.6-4.86-4.86-3.65-9.99-3.66-19.98-.03-29.97.84-2.3 2.66-4.09 4.97-4.9 10.49-3.68 20.51-3.7 30.05-.07 2.21.84 3.93 2.6 4.74 4.82 3.69 10.04 3.7 20.08.03 30.12z" fill="#6ea7db"/><path d="m48.12 45.65c-.42 1.15-1.32 2.05-2.46 2.47-4.56 1.67-9.15 2.51-13.66 2.51s-9.1-.84-13.64-2.51c-1.16-.42-2.06-1.32-2.48-2.46-3.35-9.17-3.36-18.08-.03-27.24.43-1.17 1.35-2.08 2.53-2.5 4.83-1.69 9.59-2.55 14.15-2.55 4.47 0 8.89.83 13.16 2.45 1.11.42 1.99 1.32 2.4 2.45 3.39 9.22 3.4 18.17.03 27.38z" fill="#6699d1"/><path d="m43.18 23.42v8.47c0 4.85-2.7 9.41-7.27 12.28l-3.91 2.45v-28.54z" fill="#e5e7ea"/><path d="m32 18.08v28.54l-3.92-2.45c-4.56-2.87-7.26-7.43-7.26-12.28v-8.47z" fill="#f2f3f4"/><path d="m33 18.558 10.18 4.862v8.47c0 4.85-2.7 9.41-7.27 12.28l-2.911 1.824 1.001.626 3.91-2.45c4.57-2.87 7.27-7.43 7.27-12.28v-8.47l-11.18-5.34z" fill="#6194c1"/></g></svg>