<svg id="User_Interface" enable-background="new 0 0 64 64" height="512" viewBox="0 0 64 64" width="512" xmlns="http://www.w3.org/2000/svg"><g><path d="m51.88 47.06c-.82 2.26-2.6 4.04-4.86 4.86-10.01 3.67-20.03 3.67-30.04 0-2.26-.82-4.04-2.6-4.86-4.86-3.65-9.99-3.66-19.98-.03-29.97.84-2.3 2.66-4.09 4.97-4.9 10.49-3.68 20.51-3.7 30.05-.07 2.21.84 3.93 2.6 4.74 4.82 3.69 10.04 3.7 20.08.03 30.12z" fill="#ea5765"/><path d="m46.28 42.04c0 .02-.01.03-.01.05-.06.09-.12.16-.2.22.04-.05.08-.09.12-.14.03-.04.07-.08.09-.13z" fill="#fdcc58"/><path d="m50.578 30.067h.002c-.001-.001-.002-.002-.002-.003-.196-3.592-.912-7.19-2.168-10.827h-18.502c-.83 0-1.573-.512-1.869-1.287l-.959-2.515c-.352-.923-1.322-1.437-2.291-1.244-2.114.421-4.258 1.01-6.409 1.766-1.18.42-2.1 1.33-2.53 2.5-3.33 9.16-3.32 18.07.03 27.24.42 1.14 1.32 2.04 2.48 2.46 4.54 1.67 9.13 2.51 13.64 2.51s9.1-.84 13.66-2.51c1.14-.42 2.04-1.32 2.46-2.47 1.926-5.258 2.74-10.432 2.458-15.62z" fill="#fdcc58"/><path d="m46.42 41.56c0 .55-.45 1-1 1h-2.86v2.86c0 .55-.45 1-1 1-.56 0-1-.45-1-1v-2.86h-2.87c-.55 0-1-.45-1-1 0-.56.45-1 1-1h2.87v-2.87c0-.55.44-1 1-1 .55 0 1 .45 1 1v2.87h2.86c.55 0 1 .44 1 1z" fill="#9dcd6a"/><path d="m48.12 45.69c-.42 1.15-1.32 2.05-2.46 2.47-4.56 1.67-9.15 2.51-13.66 2.51-.48 0-.95-.01-1.43-.03 4.01-.18 8.05-1 12.09-2.48 1.14-.42 2.04-1.32 2.46-2.47.44-1.2.82-2.41 1.15-3.6.09-.15.15-.34.15-.53 0-.02 0-.03-.01-.05.99-3.83 1.38-7.63 1.17-11.44-.03-.6-.1-1.21-.16-1.81.14.03.29.06.44.1 1.24.31 2.22.93 2.72 1.71.29 5.19-.53 10.36-2.46 15.62z" fill="#efbb54"/><path d="m50.58 30.07c-.5-.78-1.48-1.4-2.72-1.71-4.96-1.19-10.1-1.8-15.28-1.8-5.3 0-10.83.63-16.43 1.88-1.19.27-2.17.81-2.72 1.52.21-3.82 1.02-7.63 2.42-11.5.43-1.17 1.35-2.08 2.53-2.5 2.15-.76 4.3-1.35 6.41-1.77.97-.19 1.94.32 2.29 1.25l.96 2.51c.29.77 1.04 1.29 1.87 1.29h18.5c1.26 3.64 1.98 7.24 2.17 10.83z" fill="#efbb54"/><g><g><g><path d="m50.58 30.07c-.5-.78-1.48-1.4-2.72-1.71-.15-.04-.3-.07-.44-.1-.31-2.99-.96-5.99-2.01-9.02h3c1.26 3.64 1.98 7.24 2.17 10.83z" fill="#e2ae52"/></g></g></g></g></svg>