<svg id="User_Interface" enable-background="new 0 0 64 64" height="512" viewBox="0 0 64 64" width="512" xmlns="http://www.w3.org/2000/svg"><g><path d="m48.12 45.65c-.42 1.15-1.32 2.05-2.46 2.47-4.56 1.67-9.15 2.51-13.66 2.51s-9.1-.84-13.64-2.51c-1.16-.42-2.06-1.32-2.48-2.46-3.35-9.17-3.36-18.08-.03-27.24.43-1.17 1.35-2.08 2.53-2.5 4.83-1.69 9.59-2.55 14.15-2.55 4.47 0 8.89.83 13.16 2.45 1.11.42 1.99 1.32 2.4 2.45 3.39 9.22 3.4 18.17.03 27.38z" fill="#e5e7ea"/><path d="m51.85 16.9c-.81-2.22-2.53-3.98-4.74-4.82-9.54-3.63-19.56-3.61-30.05.07-2.31.81-4.13 2.6-4.97 4.9-3.63 9.99-3.62 19.98.03 29.97.82 2.26 2.6 4.04 4.86 4.86 10.01 3.67 20.03 3.67 30.04 0 2.26-.82 4.04-2.6 4.86-4.86 3.67-10.04 3.66-20.08-.03-30.12zm-3.73 28.75c-.42 1.15-1.32 2.05-2.46 2.47-4.56 1.67-9.15 2.51-13.66 2.51s-9.1-.84-13.64-2.51c-1.16-.42-2.06-1.32-2.48-2.46-1.43-3.92-2.25-7.8-2.46-11.66h3.29l3.84 8.45c.34.75 1.1 1.2 1.92 1.17.82-.04 1.53-.57 1.8-1.35l5.14-15.12 6.88 15.36c.34.69 1.04 1.11 1.79 1.11h.17c.81-.07 1.51-.63 1.75-1.41l3.44-11.27 1.27 2.1c.36.59 1.01.96 1.71.96h4.16c-.21 3.86-1.03 7.74-2.46 11.65zm-.58-15.65-3-4.95c-.41-.68-1.18-1.05-1.95-.95-.79.1-1.44.64-1.67 1.4l-3.28 10.72-6.43-15.75c-.29-.78-1.04-1.3-1.88-1.3-.87.01-1.62.55-1.89 1.35l-5.33 15.68-1.76-3.85c-.64-1.43-2.07-2.35-3.64-2.35h-3.29c.2-3.84 1.02-7.69 2.43-11.58.43-1.17 1.35-2.08 2.53-2.5 4.83-1.69 9.59-2.55 14.15-2.55 4.47 0 8.89.83 13.16 2.45 1.11.42 1.99 1.32 2.4 2.45 1.45 3.94 2.28 7.85 2.49 11.73z" fill="#5ac0a6"/><g fill="#d9dadb"><path d="m39.069 43.34c.303.178.65.28 1.011.28h.17c.81-.07 1.51-.63 1.75-1.41l2.775-9.09c-.02-.029-.046-.051-.065-.08l-1.27-2.1-3.44 11.27c-.152.494-.499.881-.931 1.13z"/><path d="m44.59 24.1c-.277.035-.525.14-.755.274.279.165.53.385.705.676l3 4.95h2l-3-4.95c-.41-.68-1.18-1.05-1.95-.95z"/><path d="m24.47 43.62c.82-.04 1.53-.57 1.8-1.35l4.277-12.581-1.137-2.539-5.14 15.12c-.163.472-.499.834-.911 1.07.329.192.712.295 1.111.28z"/><path d="m18.71 30h-2c1.57 0 3 .92 3.64 2.35l1.76 3.85.853-2.509-.613-1.341c-.64-1.43-2.07-2.35-3.64-2.35z"/><path d="m31.33 19.17c-.365.004-.697.119-.993.289.39.228.709.57.873 1.011l6.43 15.75.857-2.8-5.287-12.95c-.29-.78-1.04-1.3-1.88-1.3z"/></g></g></svg>